{"glyphs":{"0":{"ha":793,"x_min":69,"x_max":724,"o":"m 396 0 q 219 65 293 0 q 108 252 146 131 q 69 544 69 374 q 108 835 69 713 q 219 1022 146 957 q 396 1088 293 1088 q 574 1022 501 1088 q 685 833 647 956 q 724 544 724 711 q 685 253 724 375 q 574 66 647 132 q 396 0 501 0 m 396 108 q 519 165 471 108 q 592 319 568 221 q 615 544 615 418 q 591 767 615 669 q 518 922 567 865 q 396 979 469 979 q 274 923 322 979 q 202 768 226 867 q 178 544 178 669 q 202 319 178 417 q 274 165 226 221 q 396 108 322 108 z "},"1":{"ha":525,"x_min":57,"x_max":386,"o":"m 332 0 q 294 15 310 0 q 278 54 278 31 l 278 957 l 139 908 q 111 901 124 901 q 72 917 88 901 q 57 954 57 932 q 65 985 57 971 q 92 1006 72 999 l 306 1079 q 320 1084 313 1082 q 333 1086 328 1086 q 372 1070 357 1086 q 386 1032 386 1054 l 386 54 q 371 15 386 31 q 332 0 356 0 z "},"2":{"ha":807,"x_min":90,"x_max":742,"o":"m 153 0 q 115 15 131 0 q 99 54 99 31 q 114 92 99 75 l 535 589 q 590 673 569 626 q 611 760 611 719 q 585 875 611 825 q 513 953 560 925 q 407 982 467 982 q 301 952 349 982 q 226 872 253 922 q 199 760 199 822 q 183 722 199 738 q 144 707 168 707 q 106 722 122 707 q 90 760 90 738 q 132 926 90 853 q 245 1043 174 1000 q 407 1086 317 1086 q 567 1044 497 1086 q 677 929 638 1003 q 717 760 717 856 q 702 672 717 714 q 663 592 688 631 q 608 521 638 554 l 253 108 l 688 108 q 726 92 710 108 q 742 54 742 75 q 726 15 742 31 q 688 0 710 0 l 153 0 z "},"3":{"ha":813,"x_min":76,"x_max":750,"o":"m 417 -7 q 242 35 319 -7 q 121 151 165 78 q 76 318 76 225 q 90 358 76 342 q 128 375 104 375 q 165 358 151 375 q 179 318 179 342 q 210 203 179 254 q 294 123 240 153 q 413 93 347 93 q 582 153 521 93 q 643 310 643 214 q 614 428 643 378 q 535 508 585 479 q 422 536 485 536 q 385 551 400 536 q 369 590 369 567 q 385 628 369 613 q 422 643 400 643 q 512 667 471 643 q 578 732 553 692 q 603 821 603 772 q 553 944 603 894 q 419 993 503 993 q 315 970 361 993 q 244 909 269 947 q 218 822 218 871 q 203 783 218 799 q 167 767 189 767 q 129 783 143 767 q 115 821 115 799 q 155 959 115 897 q 263 1056 194 1021 q 419 1092 331 1092 q 565 1056 500 1092 q 667 959 629 1021 q 706 821 706 897 q 683 729 706 774 q 622 649 660 685 q 540 594 585 614 q 658 531 611 574 q 728 430 706 488 q 750 310 750 372 q 706 147 750 218 q 586 34 663 75 q 417 -7 510 -7 z "},"4":{"ha":899,"x_min":18,"x_max":839,"o":"m 622 0 q 586 15 601 0 q 571 54 571 31 l 571 260 l 74 260 q 37 274 51 260 q 20 308 22 289 q 31 344 18 328 l 581 1064 q 598 1080 588 1074 q 625 1086 608 1086 q 662 1070 647 1086 q 676 1031 676 1054 l 676 357 l 786 357 q 824 346 808 357 q 839 307 839 335 q 824 274 839 289 q 786 260 808 260 l 676 260 l 676 54 q 661 15 676 31 q 622 0 646 0 m 132 315 l 113 357 l 571 357 l 571 953 l 599 924 l 132 315 z "},"5":{"ha":871,"x_min":90,"x_max":794,"o":"m 442 0 q 263 47 342 0 q 137 173 183 93 q 90 353 90 253 q 106 392 90 376 q 143 407 121 407 q 183 392 167 407 q 199 353 199 376 q 231 228 199 283 q 317 140 263 172 q 442 108 372 108 q 567 140 511 108 q 654 228 622 172 q 686 353 686 283 q 654 478 686 422 q 567 565 622 533 q 442 597 511 597 l 199 597 q 160 613 175 597 q 144 651 144 629 l 144 1032 q 160 1070 144 1054 q 199 1086 175 1086 l 686 1086 q 724 1070 708 1086 q 740 1032 740 1054 q 725 994 740 1010 q 686 978 710 978 l 251 978 l 251 706 l 442 706 q 622 659 543 706 q 748 533 701 613 q 794 353 794 453 q 748 173 794 253 q 622 47 701 93 q 442 0 543 0 z "},"6":{"ha":804,"x_min":90,"x_max":742,"o":"m 417 0 q 249 42 322 0 q 133 158 175 85 q 90 326 90 232 q 133 494 90 419 q 249 610 175 568 q 417 653 322 653 q 583 610 510 653 q 699 494 657 568 q 742 326 742 419 q 699 158 742 232 q 583 42 657 85 q 417 0 510 0 m 415 100 q 530 129 479 100 q 610 210 581 158 q 639 326 639 261 q 610 443 639 392 q 530 524 581 494 q 415 554 479 554 q 301 524 351 554 q 222 443 251 494 q 193 326 193 392 q 222 210 193 261 q 301 129 251 158 q 415 100 351 100 m 131 492 l 474 1056 q 522 1085 492 1085 q 558 1072 543 1085 q 577 1040 574 1060 q 569 1003 581 1021 l 340 629 l 131 492 z "},"7":{"ha":789,"x_min":64,"x_max":738,"o":"m 226 0 q 188 15 204 0 q 172 54 172 31 q 175 69 172 61 q 183 89 178 78 l 597 978 l 119 978 q 80 994 96 978 q 64 1032 64 1010 q 80 1070 64 1054 q 119 1086 96 1086 l 685 1086 q 722 1070 707 1086 q 738 1032 738 1054 q 735 1017 738 1025 q 729 1003 732 1010 l 275 31 q 226 0 260 0 z "},"8":{"ha":824,"x_min":88,"x_max":736,"o":"m 413 -6 q 246 38 319 -6 q 130 157 172 82 q 88 326 88 232 q 130 490 88 418 q 246 604 172 563 q 413 646 319 646 q 579 604 506 646 q 694 490 653 563 q 736 326 736 418 q 692 157 735 232 q 577 38 650 82 q 413 -6 504 -6 m 413 92 q 522 123 474 92 q 599 207 571 154 q 628 326 628 260 q 600 441 628 390 q 524 521 572 492 q 413 550 475 550 q 301 521 350 550 q 224 441 253 492 q 196 326 196 390 q 224 207 196 260 q 301 123 251 154 q 413 92 350 92 m 413 560 q 275 594 336 560 q 179 689 214 629 q 144 825 144 749 q 179 958 144 899 q 275 1053 214 1018 q 413 1088 336 1088 q 550 1055 489 1089 q 646 960 611 1021 q 679 825 681 900 q 644 689 679 749 q 548 594 608 629 q 413 560 488 560 m 413 653 q 495 676 458 653 q 554 738 532 699 q 576 826 576 778 q 556 910 578 874 q 497 968 535 947 q 413 989 460 989 q 295 942 342 989 q 247 826 249 896 q 293 703 246 753 q 413 653 340 653 z "},"9":{"ha":804,"x_min":63,"x_max":714,"o":"m 388 1086 q 556 1044 482 1086 q 672 928 629 1001 q 714 760 714 854 q 672 592 714 667 q 556 476 629 518 q 388 433 482 433 q 220 476 293 433 q 105 592 147 518 q 63 760 63 667 q 105 928 63 854 q 220 1044 147 1001 q 388 1086 293 1086 m 388 986 q 274 957 324 986 q 194 876 224 928 q 165 760 165 825 q 194 643 165 694 q 274 562 224 592 q 388 532 324 532 q 502 562 451 532 q 582 643 553 592 q 611 760 611 694 q 582 876 611 825 q 502 957 553 928 q 388 986 451 986 m 672 594 l 331 31 q 282 1 311 1 q 245 14 260 1 q 227 46 231 26 q 235 85 224 65 l 463 457 l 672 594 z "},"A":{"ha":976,"x_min":19,"x_max":965,"o":"m 79 0 q 33 26 47 0 q 31 78 19 53 l 439 1047 q 492 1085 454 1085 q 543 1047 528 1085 l 953 76 q 949 25 965 50 q 904 0 933 0 q 874 8 888 0 q 853 33 861 17 l 471 960 l 514 960 l 129 33 q 109 8 122 17 q 79 0 96 0 m 171 258 l 213 351 l 776 351 l 818 258 l 171 258 z "},"Á":{"ha":976,"x_min":19,"x_max":965,"o":"m 79 0 q 33 26 47 0 q 31 78 19 53 l 439 1047 q 492 1085 454 1085 q 543 1047 528 1085 l 953 76 q 949 25 965 50 q 904 0 933 0 q 874 8 888 0 q 853 33 861 17 l 471 960 l 514 960 l 129 33 q 109 8 122 17 q 79 0 96 0 m 171 258 l 213 351 l 776 351 l 818 258 l 171 258 m 479 1200 q 441 1216 457 1200 q 425 1254 425 1232 q 438 1290 425 1276 l 594 1447 q 632 1463 610 1463 q 671 1447 656 1463 q 686 1407 686 1431 q 683 1388 686 1397 q 671 1371 679 1378 l 515 1214 q 479 1200 501 1200 z "},"Ă":{"ha":976,"x_min":19,"x_max":965,"o":"m 79 0 q 33 26 47 0 q 31 78 19 53 l 439 1047 q 492 1085 454 1085 q 543 1047 528 1085 l 953 76 q 949 25 965 50 q 904 0 933 0 q 874 8 888 0 q 853 33 861 17 l 471 960 l 514 960 l 129 33 q 109 8 122 17 q 79 0 96 0 m 171 258 l 213 351 l 776 351 l 818 258 l 171 258 m 488 1201 q 380 1223 429 1201 q 301 1281 331 1244 q 271 1363 271 1317 q 286 1401 271 1385 q 324 1418 301 1418 q 360 1404 344 1418 q 375 1368 375 1390 q 407 1314 375 1336 q 488 1292 439 1292 q 571 1314 540 1292 q 601 1368 601 1336 q 617 1404 601 1390 q 654 1418 632 1418 q 691 1402 676 1418 q 706 1364 706 1386 q 674 1278 704 1315 q 594 1222 643 1242 q 488 1201 546 1201 z "},"Ắ":{"ha":976,"x_min":19,"x_max":965,"o":"m 79 0 q 33 26 47 0 q 31 78 19 53 l 439 1047 q 492 1085 454 1085 q 543 1047 528 1085 l 953 76 q 949 25 965 50 q 904 0 933 0 q 874 8 888 0 q 853 33 861 17 l 471 960 l 514 960 l 129 33 q 109 8 122 17 q 79 0 96 0 m 171 258 l 213 351 l 776 351 l 818 258 l 171 258 m 488 1201 q 380 1223 429 1201 q 301 1281 331 1244 q 271 1363 271 1318 q 286 1402 271 1386 q 324 1418 301 1418 q 360 1404 344 1418 q 375 1368 375 1390 q 407 1315 375 1338 q 488 1292 439 1292 q 571 1314 540 1292 q 601 1368 601 1336 q 617 1404 601 1390 q 654 1418 632 1418 q 691 1402 676 1418 q 706 1364 706 1386 q 674 1278 704 1315 q 594 1222 643 1242 q 488 1201 546 1201 m 479 1433 q 441 1449 457 1433 q 425 1488 425 1464 q 438 1524 425 1508 l 594 1681 q 632 1696 610 1696 q 671 1680 656 1696 q 686 1640 686 1664 q 683 1621 686 1631 q 671 1604 679 1611 l 515 1447 q 479 1433 501 1433 z "},"Ặ":{"ha":976,"x_min":19,"x_max":965,"o":"m 79 0 q 33 26 47 0 q 31 78 19 53 l 439 1047 q 492 1085 454 1085 q 543 1047 528 1085 l 953 76 q 949 25 965 50 q 904 0 933 0 q 874 8 888 0 q 853 33 861 17 l 471 960 l 514 960 l 129 33 q 109 8 122 17 q 79 0 96 0 m 171 258 l 213 351 l 776 351 l 818 258 l 171 258 m 488 1201 q 380 1223 429 1201 q 301 1281 331 1244 q 271 1363 271 1317 q 286 1401 271 1385 q 324 1418 301 1418 q 360 1404 344 1418 q 375 1368 375 1390 q 407 1314 375 1336 q 488 1292 439 1292 q 571 1314 540 1292 q 601 1368 601 1336 q 617 1404 601 1390 q 654 1418 632 1418 q 691 1402 676 1418 q 706 1364 706 1386 q 674 1278 704 1315 q 594 1222 643 1242 q 488 1201 546 1201 m 488 -290 q 435 -268 457 -290 q 413 -214 413 -246 q 435 -159 413 -179 q 489 -139 458 -139 q 541 -159 518 -139 q 564 -214 564 -179 q 542 -268 564 -246 q 488 -290 519 -290 z "},"Ằ":{"ha":976,"x_min":19,"x_max":965,"o":"m 79 0 q 33 26 47 0 q 31 78 19 53 l 439 1047 q 492 1085 454 1085 q 543 1047 528 1085 l 953 76 q 949 25 965 50 q 904 0 933 0 q 874 8 888 0 q 853 33 861 17 l 471 960 l 514 960 l 129 33 q 109 8 122 17 q 79 0 96 0 m 171 258 l 213 351 l 776 351 l 818 258 l 171 258 m 488 1201 q 380 1223 429 1201 q 301 1281 331 1244 q 271 1363 271 1318 q 286 1402 271 1386 q 324 1418 301 1418 q 360 1404 344 1418 q 375 1368 375 1390 q 407 1315 375 1338 q 488 1292 439 1292 q 571 1314 540 1292 q 601 1368 601 1336 q 617 1404 601 1390 q 654 1418 632 1418 q 691 1402 676 1418 q 706 1364 706 1386 q 674 1278 704 1315 q 594 1222 643 1242 q 488 1201 546 1201 m 488 1442 q 451 1457 467 1442 l 294 1613 q 281 1650 281 1628 q 296 1690 281 1674 q 333 1706 311 1706 q 372 1689 356 1706 l 528 1532 q 542 1497 542 1519 q 526 1457 542 1472 q 488 1442 511 1442 z "},"Ẳ":{"ha":976,"x_min":19,"x_max":965,"o":"m 79 0 q 33 26 47 0 q 31 78 19 53 l 439 1047 q 492 1085 454 1085 q 543 1047 528 1085 l 953 76 q 949 25 965 50 q 904 0 933 0 q 874 8 888 0 q 853 33 861 17 l 471 960 l 514 960 l 129 33 q 109 8 122 17 q 79 0 96 0 m 171 258 l 213 351 l 776 351 l 818 258 l 171 258 m 488 1201 q 380 1223 429 1201 q 301 1281 331 1244 q 271 1363 271 1318 q 286 1402 271 1386 q 324 1418 301 1418 q 360 1404 344 1418 q 375 1368 375 1390 q 407 1315 375 1338 q 488 1292 439 1292 q 571 1314 540 1292 q 601 1368 601 1336 q 617 1404 601 1390 q 654 1418 632 1418 q 691 1402 676 1418 q 706 1364 706 1386 q 674 1278 704 1315 q 594 1222 643 1242 q 488 1201 546 1201 m 488 1389 q 452 1403 467 1389 q 438 1439 438 1418 l 438 1478 q 482 1532 438 1521 l 517 1539 q 560 1560 546 1546 q 574 1600 574 1575 q 554 1647 574 1631 q 504 1664 535 1664 q 472 1657 488 1664 q 443 1642 456 1650 q 428 1632 438 1635 q 408 1629 418 1629 q 378 1641 392 1629 q 364 1674 364 1653 q 381 1711 364 1696 q 437 1743 407 1732 q 503 1754 467 1754 q 619 1713 574 1754 q 665 1607 665 1672 q 624 1509 665 1542 q 525 1468 583 1476 l 536 1450 q 522 1405 536 1421 q 488 1389 508 1389 z "},"Ẵ":{"ha":976,"x_min":19,"x_max":965,"o":"m 79 0 q 33 26 47 0 q 31 78 19 53 l 439 1047 q 492 1085 454 1085 q 543 1047 528 1085 l 953 76 q 949 25 965 50 q 904 0 933 0 q 874 8 888 0 q 853 33 861 17 l 471 960 l 514 960 l 129 33 q 109 8 122 17 q 79 0 96 0 m 171 258 l 213 351 l 776 351 l 818 258 l 171 258 m 488 1201 q 379 1223 428 1201 q 301 1281 331 1244 q 271 1363 271 1318 q 285 1402 271 1386 q 324 1418 300 1418 q 360 1404 344 1418 q 375 1368 375 1390 q 407 1315 375 1338 q 488 1292 439 1292 q 571 1314 540 1292 q 601 1368 601 1336 q 617 1404 601 1390 q 654 1418 632 1418 q 691 1402 676 1418 q 706 1364 706 1386 q 673 1278 703 1315 q 594 1222 643 1242 q 488 1201 544 1201 m 578 1450 q 517 1466 544 1450 q 469 1501 489 1482 q 437 1529 450 1519 q 407 1539 424 1539 q 378 1525 390 1539 q 354 1488 367 1511 q 327 1462 344 1469 q 292 1463 310 1454 q 267 1487 274 1469 q 269 1525 260 1504 q 328 1603 296 1579 q 401 1628 360 1628 q 467 1610 443 1628 q 511 1575 490 1593 q 547 1548 535 1554 q 568 1542 558 1542 q 603 1575 588 1542 q 631 1602 613 1593 q 665 1606 649 1611 q 696 1579 688 1597 q 693 1542 704 1561 q 642 1471 669 1492 q 578 1450 614 1450 z "},"Â":{"ha":976,"x_min":19,"x_max":965,"o":"m 79 0 q 33 26 47 0 q 31 78 19 53 l 439 1047 q 492 1085 454 1085 q 543 1047 528 1085 l 953 76 q 949 25 965 50 q 904 0 933 0 q 874 8 888 0 q 853 33 861 17 l 471 960 l 514 960 l 129 33 q 109 8 122 17 q 79 0 96 0 m 171 258 l 213 351 l 776 351 l 818 258 l 171 258 m 328 1206 q 288 1219 304 1206 q 272 1254 272 1232 q 299 1301 272 1283 l 463 1410 q 489 1417 474 1417 q 504 1415 497 1417 q 517 1410 511 1413 l 679 1301 q 706 1254 706 1283 q 690 1219 706 1233 q 651 1206 675 1206 q 634 1208 642 1206 q 618 1217 626 1211 l 489 1306 l 360 1217 q 328 1206 344 1206 z "},"Ấ":{"ha":976,"x_min":19,"x_max":965,"o":"m 79 0 q 33 26 47 0 q 31 78 19 53 l 439 1047 q 492 1085 454 1085 q 543 1047 528 1085 l 953 76 q 949 25 965 50 q 904 0 933 0 q 874 8 888 0 q 853 33 861 17 l 471 960 l 514 960 l 129 33 q 109 8 122 17 q 79 0 96 0 m 171 258 l 213 351 l 776 351 l 818 258 l 171 258 m 328 1206 q 288 1219 304 1206 q 272 1254 272 1232 q 299 1301 272 1283 l 463 1410 q 489 1417 474 1417 q 504 1415 497 1417 q 517 1410 511 1413 l 679 1301 q 706 1254 706 1283 q 690 1219 706 1233 q 651 1206 675 1206 q 634 1208 642 1206 q 618 1217 626 1211 l 489 1306 l 360 1217 q 328 1206 344 1206 m 613 1435 q 574 1450 590 1435 q 558 1489 558 1465 q 571 1525 558 1510 l 728 1682 q 765 1697 743 1697 q 805 1681 790 1697 q 819 1642 819 1665 q 816 1622 819 1632 q 804 1606 813 1613 l 649 1449 q 613 1435 635 1435 z "},"Ậ":{"ha":976,"x_min":19,"x_max":965,"o":"m 79 0 q 33 26 47 0 q 31 78 19 53 l 439 1047 q 492 1085 454 1085 q 543 1047 528 1085 l 953 76 q 949 25 965 50 q 904 0 933 0 q 874 8 888 0 q 853 33 861 17 l 471 960 l 514 960 l 129 33 q 109 8 122 17 q 79 0 96 0 m 171 258 l 213 351 l 776 351 l 818 258 l 171 258 m 328 1206 q 288 1219 304 1206 q 272 1254 272 1232 q 299 1301 272 1283 l 463 1410 q 489 1417 474 1417 q 504 1415 497 1417 q 517 1410 511 1413 l 679 1301 q 706 1254 706 1283 q 690 1219 706 1233 q 651 1206 675 1206 q 634 1208 642 1206 q 618 1217 626 1211 l 489 1306 l 360 1217 q 328 1206 344 1206 m 488 -290 q 435 -268 457 -290 q 413 -214 413 -246 q 435 -159 413 -179 q 489 -139 458 -139 q 541 -159 518 -139 q 564 -214 564 -179 q 542 -268 564 -246 q 488 -290 519 -290 z "},"Ầ":{"ha":976,"x_min":19,"x_max":965,"o":"m 79 0 q 33 26 47 0 q 31 78 19 53 l 439 1047 q 492 1085 454 1085 q 543 1047 528 1085 l 953 76 q 949 25 965 50 q 904 0 933 0 q 874 8 888 0 q 853 33 861 17 l 471 960 l 514 960 l 129 33 q 109 8 122 17 q 79 0 96 0 m 171 258 l 213 351 l 776 351 l 818 258 l 171 258 m 328 1206 q 288 1219 304 1206 q 272 1254 272 1232 q 299 1301 272 1283 l 463 1410 q 489 1417 474 1417 q 504 1415 497 1417 q 517 1410 511 1413 l 679 1301 q 706 1254 706 1283 q 690 1219 706 1233 q 651 1206 675 1206 q 634 1208 642 1206 q 618 1217 626 1211 l 489 1306 l 360 1217 q 328 1206 344 1206 m 622 1443 q 586 1458 601 1443 l 429 1614 q 415 1651 415 1629 q 431 1691 415 1675 q 468 1707 446 1707 q 507 1690 490 1707 l 663 1533 q 676 1499 676 1521 q 660 1459 676 1475 q 622 1443 644 1443 z "},"Ẩ":{"ha":976,"x_min":19,"x_max":965,"o":"m 79 0 q 33 26 47 0 q 31 78 19 53 l 439 1047 q 492 1085 454 1085 q 543 1047 528 1085 l 953 76 q 949 25 965 50 q 904 0 933 0 q 874 8 888 0 q 853 33 861 17 l 471 960 l 514 960 l 129 33 q 109 8 122 17 q 79 0 96 0 m 171 258 l 213 351 l 776 351 l 818 258 l 171 258 m 332 1206 q 292 1219 308 1206 q 276 1254 276 1232 q 303 1301 276 1283 l 467 1410 q 493 1417 478 1417 q 508 1415 501 1417 q 521 1410 515 1413 l 683 1301 q 710 1254 710 1283 q 694 1219 710 1233 q 656 1206 679 1206 q 638 1208 646 1206 q 622 1217 631 1211 l 493 1306 l 364 1217 q 332 1206 349 1206 m 626 1390 q 591 1405 606 1390 q 576 1440 576 1419 l 576 1479 q 621 1533 576 1524 l 656 1540 q 699 1563 685 1547 q 713 1601 713 1578 q 692 1649 713 1632 q 643 1665 672 1665 q 610 1659 625 1665 q 582 1643 594 1653 q 565 1633 575 1636 q 547 1631 556 1631 q 516 1642 529 1631 q 503 1675 503 1654 q 519 1713 503 1699 q 574 1744 544 1733 q 642 1756 604 1756 q 758 1715 711 1756 q 804 1608 804 1674 q 763 1510 804 1543 q 664 1469 721 1478 l 675 1451 q 660 1406 675 1422 q 626 1390 646 1390 z "},"Ẫ":{"ha":976,"x_min":19,"x_max":965,"o":"m 79 0 q 33 26 47 0 q 31 78 19 53 l 439 1047 q 492 1085 454 1085 q 543 1047 528 1085 l 953 76 q 949 25 965 50 q 904 0 933 0 q 874 8 888 0 q 853 33 861 17 l 471 960 l 514 960 l 129 33 q 109 8 122 17 q 79 0 96 0 m 171 258 l 213 351 l 776 351 l 818 258 l 171 258 m 331 1206 q 291 1219 307 1206 q 275 1254 275 1232 q 301 1301 275 1283 l 465 1410 q 492 1417 476 1417 q 507 1415 500 1417 q 519 1410 514 1413 l 682 1301 q 708 1254 708 1283 q 693 1219 708 1233 q 654 1206 678 1206 q 637 1208 644 1206 q 621 1217 629 1211 l 492 1306 l 363 1217 q 331 1206 347 1206 m 574 1454 q 512 1470 539 1454 q 465 1506 485 1486 q 432 1533 446 1524 q 403 1543 418 1543 q 374 1529 386 1543 q 350 1492 363 1515 q 323 1467 340 1474 q 288 1467 306 1460 q 263 1492 269 1474 q 265 1529 256 1510 q 324 1608 292 1583 q 397 1632 356 1632 q 462 1615 438 1632 q 507 1579 486 1597 q 542 1553 531 1560 q 564 1546 554 1546 q 599 1579 583 1546 q 626 1606 608 1597 q 661 1610 643 1615 q 692 1583 683 1601 q 689 1546 700 1565 q 638 1476 665 1497 q 574 1454 610 1454 z "},"Ȁ":{"ha":976,"x_min":19,"x_max":965,"o":"m 79 0 q 33 26 47 0 q 31 78 19 53 l 439 1047 q 492 1085 454 1085 q 543 1047 528 1085 l 953 76 q 949 25 965 50 q 904 0 933 0 q 874 8 888 0 q 853 33 861 17 l 471 960 l 514 960 l 129 33 q 109 8 122 17 q 79 0 96 0 m 171 258 l 213 351 l 776 351 l 818 258 l 171 258 m 638 1192 q 599 1218 613 1192 l 514 1397 q 510 1418 510 1407 q 525 1454 510 1438 q 565 1471 540 1471 q 596 1462 582 1471 q 615 1438 610 1453 l 674 1249 q 676 1232 676 1242 q 664 1202 676 1213 q 638 1192 651 1192 m 428 1192 q 389 1218 401 1192 l 304 1397 q 301 1408 301 1403 q 300 1418 300 1413 q 315 1454 300 1438 q 354 1471 331 1471 q 385 1462 371 1471 q 403 1438 399 1453 l 464 1249 q 466 1240 465 1244 q 467 1232 467 1236 q 454 1202 467 1213 q 428 1192 442 1192 z "},"Ä":{"ha":976,"x_min":19,"x_max":965,"o":"m 79 0 q 33 26 47 0 q 31 78 19 53 l 439 1047 q 492 1085 454 1085 q 543 1047 528 1085 l 953 76 q 949 25 965 50 q 904 0 933 0 q 874 8 888 0 q 853 33 861 17 l 471 960 l 514 960 l 129 33 q 109 8 122 17 q 79 0 96 0 m 171 258 l 213 351 l 776 351 l 818 258 l 171 258 m 344 1224 q 290 1245 311 1224 q 268 1300 268 1267 q 290 1353 268 1331 q 344 1376 311 1376 q 399 1353 376 1376 q 421 1300 421 1331 q 399 1245 421 1267 q 344 1224 376 1224 m 635 1224 q 580 1245 601 1224 q 558 1300 558 1267 q 580 1353 558 1331 q 635 1376 601 1376 q 689 1353 667 1376 q 711 1300 711 1331 q 689 1245 711 1267 q 635 1224 667 1224 z "},"Ạ":{"ha":976,"x_min":19,"x_max":965,"o":"m 79 0 q 33 26 47 0 q 31 78 19 53 l 439 1047 q 492 1085 454 1085 q 543 1047 528 1085 l 953 76 q 949 25 965 50 q 904 0 933 0 q 874 8 888 0 q 853 33 861 17 l 471 960 l 514 960 l 129 33 q 109 8 122 17 q 79 0 96 0 m 171 258 l 213 351 l 776 351 l 818 258 l 171 258 m 488 -290 q 435 -268 457 -290 q 413 -214 413 -246 q 435 -159 413 -179 q 489 -139 458 -139 q 541 -159 518 -139 q 564 -214 564 -179 q 542 -268 564 -246 q 488 -290 519 -290 z "},"À":{"ha":976,"x_min":19,"x_max":965,"o":"m 79 0 q 33 26 47 0 q 31 78 19 53 l 439 1047 q 492 1085 454 1085 q 543 1047 528 1085 l 953 76 q 949 25 965 50 q 904 0 933 0 q 874 8 888 0 q 853 33 861 17 l 471 960 l 514 960 l 129 33 q 109 8 122 17 q 79 0 96 0 m 171 258 l 213 351 l 776 351 l 818 258 l 171 258 m 488 1208 q 451 1224 467 1208 l 294 1379 q 281 1417 281 1396 q 296 1456 281 1440 q 333 1472 311 1472 q 372 1456 356 1472 l 528 1299 q 542 1264 542 1288 q 526 1224 542 1240 q 488 1208 511 1208 z "},"Ả":{"ha":976,"x_min":19,"x_max":965,"o":"m 79 0 q 33 26 47 0 q 31 78 19 53 l 439 1047 q 492 1085 454 1085 q 543 1047 528 1085 l 953 76 q 949 25 965 50 q 904 0 933 0 q 874 8 888 0 q 853 33 861 17 l 471 960 l 514 960 l 129 33 q 109 8 122 17 q 79 0 96 0 m 171 258 l 213 351 l 776 351 l 818 258 l 171 258 m 488 1156 q 452 1170 467 1156 q 438 1206 438 1185 l 438 1244 q 482 1299 438 1289 l 517 1306 q 560 1327 546 1313 q 574 1367 574 1342 q 553 1414 574 1397 q 504 1431 533 1431 q 471 1424 486 1431 q 443 1408 456 1418 q 427 1399 436 1403 q 408 1396 418 1396 q 377 1408 390 1396 q 364 1440 364 1419 q 381 1478 364 1464 q 437 1510 407 1499 q 503 1521 467 1521 q 619 1480 572 1521 q 665 1374 665 1439 q 624 1276 665 1308 q 525 1235 582 1243 l 536 1217 q 522 1172 536 1188 q 488 1156 507 1156 z "},"Ȃ":{"ha":976,"x_min":19,"x_max":965,"o":"m 79 0 q 33 26 47 0 q 31 78 19 53 l 439 1047 q 492 1085 454 1085 q 543 1047 528 1085 l 953 76 q 949 25 965 50 q 904 0 933 0 q 874 8 888 0 q 853 33 861 17 l 471 960 l 514 960 l 129 33 q 109 8 122 17 q 79 0 96 0 m 171 258 l 213 351 l 776 351 l 818 258 l 171 258 m 324 1200 q 286 1216 301 1200 q 271 1256 271 1232 q 300 1337 271 1300 q 379 1395 329 1374 q 489 1417 429 1417 q 594 1397 546 1417 q 674 1340 643 1376 q 706 1254 704 1303 q 691 1216 706 1232 q 654 1200 676 1200 q 617 1214 632 1200 q 601 1250 601 1228 q 571 1304 601 1282 q 489 1326 540 1326 q 407 1303 439 1326 q 375 1250 375 1281 q 360 1214 375 1228 q 324 1200 344 1200 z "},"Ā":{"ha":976,"x_min":19,"x_max":965,"o":"m 79 0 q 33 26 47 0 q 31 78 19 53 l 439 1047 q 492 1085 454 1085 q 543 1047 528 1085 l 953 76 q 949 25 965 50 q 904 0 933 0 q 874 8 888 0 q 853 33 861 17 l 471 960 l 514 960 l 129 33 q 109 8 122 17 q 79 0 96 0 m 171 258 l 213 351 l 776 351 l 818 258 l 171 258 m 308 1236 q 270 1249 286 1236 q 254 1286 254 1263 q 270 1322 254 1308 q 308 1336 286 1336 l 668 1336 q 706 1322 690 1336 q 722 1286 722 1308 q 706 1249 722 1263 q 668 1236 690 1236 l 308 1236 z "},"Ą":{"ha":976,"x_min":19,"x_max":1063,"o":"m 79 0 q 33 26 47 0 q 31 78 19 53 l 439 1047 q 492 1085 454 1085 q 543 1047 528 1085 l 953 76 q 949 25 965 50 q 904 0 933 0 q 874 8 888 0 q 853 33 861 17 l 471 960 l 514 960 l 129 33 q 109 8 122 17 q 79 0 96 0 m 171 258 l 213 351 l 776 351 l 818 258 l 171 258 m 900 -331 q 819 -309 857 -331 q 760 -250 782 -287 q 738 -168 738 -212 q 806 -35 738 -92 q 836 -8 825 -21 q 853 19 847 6 q 900 47 869 47 q 938 33 924 47 q 954 -6 953 18 q 933 -63 954 -35 q 868 -124 911 -92 q 851 -144 857 -132 q 846 -168 846 -157 q 862 -206 846 -190 q 900 -222 878 -222 q 915 -220 907 -222 q 929 -214 924 -218 l 976 -179 q 1008 -168 992 -168 q 1047 -183 1032 -168 q 1063 -222 1063 -199 q 1044 -265 1063 -247 l 989 -301 q 900 -331 947 -331 z "},"Å":{"ha":976,"x_min":19,"x_max":965,"o":"m 79 0 q 33 26 47 0 q 31 78 19 53 l 439 1047 q 492 1085 454 1085 q 543 1047 528 1085 l 953 76 q 949 25 965 50 q 904 0 933 0 q 874 8 888 0 q 853 33 861 17 l 471 960 l 514 960 l 129 33 q 109 8 122 17 q 79 0 96 0 m 171 258 l 213 351 l 776 351 l 818 258 l 171 258 m 489 1149 q 392 1188 432 1149 q 353 1285 353 1226 q 393 1382 353 1343 q 489 1421 433 1421 q 586 1382 547 1421 q 625 1285 625 1343 q 587 1188 625 1228 q 489 1149 549 1149 m 489 1211 q 542 1233 521 1211 q 563 1285 563 1254 q 542 1338 563 1317 q 489 1358 521 1358 q 438 1338 458 1358 q 417 1285 417 1317 q 438 1233 417 1254 q 489 1211 458 1211 z "},"Ǻ":{"ha":976,"x_min":19,"x_max":965,"o":"m 79 0 q 33 26 47 0 q 31 78 19 53 l 439 1047 q 492 1085 454 1085 q 543 1047 528 1085 l 953 76 q 949 25 965 50 q 904 0 933 0 q 874 8 888 0 q 853 33 861 17 l 471 960 l 514 960 l 129 33 q 109 8 122 17 q 79 0 96 0 m 171 258 l 213 351 l 776 351 l 818 258 l 171 258 m 489 1149 q 392 1188 432 1149 q 353 1285 353 1226 q 393 1382 353 1343 q 489 1421 433 1421 q 586 1382 547 1421 q 625 1285 625 1343 q 587 1188 625 1228 q 489 1149 549 1149 m 489 1211 q 542 1233 521 1211 q 563 1285 563 1254 q 542 1338 563 1317 q 489 1358 521 1358 q 438 1338 458 1358 q 417 1285 417 1317 q 438 1233 417 1254 q 489 1211 458 1211 m 479 1475 q 441 1491 457 1475 q 425 1529 425 1507 q 438 1565 425 1551 l 594 1722 q 632 1738 610 1738 q 671 1722 656 1738 q 686 1682 686 1706 q 683 1663 686 1672 q 671 1646 679 1653 l 515 1489 q 479 1475 501 1475 z "},"Ã":{"ha":976,"x_min":19,"x_max":965,"o":"m 79 0 q 33 26 47 0 q 31 78 19 53 l 439 1047 q 492 1085 454 1085 q 543 1047 528 1085 l 953 76 q 949 25 965 50 q 904 0 933 0 q 874 8 888 0 q 853 33 861 17 l 471 960 l 514 960 l 129 33 q 109 8 122 17 q 79 0 96 0 m 171 258 l 213 351 l 776 351 l 818 258 l 171 258 m 578 1217 q 515 1233 543 1217 q 469 1268 488 1249 q 437 1297 450 1288 q 407 1306 424 1306 q 378 1292 390 1306 q 354 1254 367 1278 q 327 1229 344 1236 q 292 1229 310 1222 q 266 1254 272 1236 q 269 1292 260 1272 q 327 1370 294 1346 q 401 1394 360 1394 q 466 1377 442 1394 q 511 1342 490 1360 q 546 1315 533 1322 q 568 1308 558 1308 q 603 1342 588 1308 q 631 1369 613 1361 q 665 1372 649 1378 q 695 1346 688 1364 q 693 1308 703 1328 q 641 1238 669 1258 q 578 1217 613 1217 z "},"Æ":{"ha":1333,"x_min":24,"x_max":1271,"o":"m 82 0 q 46 13 60 0 q 28 43 32 25 q 33 78 24 61 l 615 1043 q 645 1074 628 1064 q 689 1085 663 1085 l 1218 1085 q 1256 1070 1240 1085 q 1271 1032 1271 1056 q 1256 996 1271 1011 q 1218 981 1240 981 l 725 981 l 725 597 l 1056 597 q 1093 582 1078 597 q 1108 544 1108 567 q 1093 507 1108 522 q 1056 492 1078 492 l 725 492 l 725 104 l 1218 104 q 1256 89 1240 104 q 1271 53 1271 74 q 1256 15 1271 29 q 1218 0 1240 0 l 671 0 q 632 15 647 0 q 617 54 617 31 l 617 258 l 265 258 l 132 33 q 82 0 115 0 m 322 351 l 617 351 l 617 906 l 649 903 l 322 351 z "},"Ǽ":{"ha":1333,"x_min":24,"x_max":1271,"o":"m 82 0 q 46 13 60 0 q 28 43 32 25 q 33 78 24 61 l 615 1043 q 645 1074 628 1064 q 689 1085 663 1085 l 1218 1085 q 1256 1070 1240 1085 q 1271 1032 1271 1056 q 1256 996 1271 1011 q 1218 981 1240 981 l 725 981 l 725 597 l 1056 597 q 1093 582 1078 597 q 1108 544 1108 567 q 1093 507 1108 522 q 1056 492 1078 492 l 725 492 l 725 104 l 1218 104 q 1256 89 1240 104 q 1271 53 1271 74 q 1256 15 1271 29 q 1218 0 1240 0 l 671 0 q 632 15 647 0 q 617 54 617 31 l 617 258 l 265 258 l 132 33 q 82 0 115 0 m 322 351 l 617 351 l 617 906 l 649 903 l 322 351 m 819 1200 q 781 1216 797 1200 q 765 1254 765 1232 q 778 1290 765 1276 l 935 1447 q 972 1463 950 1463 q 1011 1447 996 1463 q 1026 1407 1026 1431 q 1023 1388 1026 1397 q 1011 1371 1019 1378 l 856 1214 q 819 1200 842 1200 z "},"B":{"ha":965,"x_min":139,"x_max":889,"o":"m 200 0 q 156 15 174 0 q 139 54 139 29 l 139 1031 q 154 1069 139 1054 q 193 1085 169 1085 l 531 1085 q 681 1049 614 1085 q 788 953 749 1014 q 828 811 828 892 q 788 678 828 736 q 682 589 747 619 q 832 495 775 564 q 889 321 889 426 q 846 154 889 226 q 727 41 803 82 q 554 0 651 0 l 200 0 m 247 104 l 554 104 q 672 131 621 104 q 753 206 724 157 q 782 321 782 254 q 753 430 782 383 q 672 502 724 476 q 554 528 621 528 l 247 528 l 247 104 m 247 632 l 531 632 q 668 679 614 632 q 722 811 722 726 q 668 938 722 894 q 531 981 614 981 l 247 981 l 247 632 z "},"C":{"ha":1067,"x_min":86,"x_max":983,"o":"m 626 -14 q 416 29 514 -14 q 244 149 318 72 q 128 327 169 226 q 86 543 86 428 q 127 758 86 657 q 242 935 168 858 q 415 1055 317 1011 q 626 1099 513 1099 q 808 1069 726 1099 q 967 976 890 1040 q 981 953 979 967 q 978 928 983 940 q 961 911 972 917 q 947 894 958 900 q 922 890 936 889 q 893 903 907 892 q 775 973 839 950 q 626 996 711 996 q 458 960 536 996 q 319 861 379 924 q 226 717 260 799 q 192 543 192 635 q 226 367 192 449 q 319 222 260 285 q 458 124 379 160 q 626 89 536 89 q 771 114 703 89 q 900 186 839 139 q 935 197 917 200 q 968 181 954 194 q 982 144 982 167 q 978 124 982 133 q 967 106 975 115 q 808 13 896 40 q 626 -14 721 -14 z "},"Ć":{"ha":1067,"x_min":86,"x_max":983,"o":"m 626 -14 q 416 29 514 -14 q 244 149 318 72 q 128 327 169 226 q 86 543 86 428 q 127 758 86 657 q 242 935 168 858 q 415 1055 317 1011 q 626 1099 513 1099 q 808 1069 726 1099 q 967 976 890 1040 q 981 953 979 967 q 978 928 983 940 q 961 911 972 917 q 947 894 958 900 q 922 890 936 889 q 893 903 907 892 q 775 973 839 950 q 626 996 711 996 q 458 960 536 996 q 319 861 379 924 q 226 717 260 799 q 192 543 192 635 q 226 367 192 449 q 319 222 260 285 q 458 124 379 160 q 626 89 536 89 q 771 114 703 89 q 900 186 839 139 q 935 197 917 200 q 968 181 954 194 q 982 144 982 167 q 978 124 982 133 q 967 106 975 115 q 808 13 896 40 q 626 -14 721 -14 m 610 1200 q 572 1216 588 1200 q 556 1254 556 1232 q 568 1290 556 1276 l 725 1447 q 763 1463 740 1463 q 801 1447 786 1463 q 817 1407 817 1431 q 813 1388 817 1397 q 801 1371 810 1378 l 646 1214 q 610 1200 632 1200 z "},"Č":{"ha":1067,"x_min":86,"x_max":983,"o":"m 626 -14 q 416 29 514 -14 q 244 149 318 72 q 128 327 169 226 q 86 543 86 428 q 127 758 86 657 q 242 935 168 858 q 415 1055 317 1011 q 626 1099 513 1099 q 808 1069 726 1099 q 967 976 890 1040 q 981 953 979 967 q 978 928 983 940 q 961 911 972 917 q 947 894 958 900 q 922 890 936 889 q 893 903 907 892 q 775 973 839 950 q 626 996 711 996 q 458 960 536 996 q 319 861 379 924 q 226 717 260 799 q 192 543 192 635 q 226 367 192 449 q 319 222 260 285 q 458 124 379 160 q 626 89 536 89 q 771 114 703 89 q 900 186 839 139 q 935 197 917 200 q 968 181 954 194 q 982 144 982 167 q 978 124 982 133 q 967 106 975 115 q 808 13 896 40 q 626 -14 721 -14 m 619 1213 q 593 1219 601 1213 l 429 1328 q 403 1374 403 1346 q 429 1411 403 1400 q 490 1399 456 1422 l 619 1311 l 749 1397 q 812 1411 788 1424 q 836 1374 836 1399 q 810 1328 836 1346 l 647 1219 q 619 1213 638 1213 z "},"Ç":{"ha":1067,"x_min":86,"x_max":983,"o":"m 626 -14 q 416 29 514 -14 q 244 149 318 72 q 128 327 169 226 q 86 543 86 428 q 127 758 86 657 q 242 935 168 858 q 415 1055 317 1011 q 626 1099 513 1099 q 808 1069 726 1099 q 967 976 890 1040 q 981 953 979 967 q 978 928 983 940 q 961 911 972 917 q 947 894 958 900 q 922 890 936 889 q 893 903 907 892 q 775 973 839 950 q 626 996 711 996 q 458 960 536 996 q 319 861 379 924 q 226 717 260 799 q 192 543 192 635 q 226 367 192 449 q 319 222 260 285 q 458 124 379 160 q 626 89 536 89 q 771 114 703 89 q 900 186 839 139 q 935 197 917 200 q 968 181 954 194 q 982 144 982 167 q 978 124 982 133 q 967 106 975 115 q 808 13 896 40 q 626 -14 721 -14 m 608 -324 q 486 -292 533 -324 q 439 -221 439 -260 q 454 -185 439 -200 q 490 -169 469 -169 q 517 -177 506 -169 q 539 -199 529 -185 q 567 -223 550 -214 q 610 -232 583 -232 q 663 -218 642 -232 q 683 -179 683 -204 q 667 -137 683 -153 q 611 -112 651 -122 q 564 -90 578 -106 q 564 -36 550 -74 l 586 21 q 608 51 593 40 q 647 63 622 63 q 687 44 674 63 q 689 0 700 25 l 668 -50 q 769 -101 740 -68 q 797 -179 797 -133 q 772 -251 797 -218 q 705 -303 747 -283 q 608 -324 663 -324 z "},"Ĉ":{"ha":1067,"x_min":86,"x_max":983,"o":"m 626 -14 q 416 29 514 -14 q 244 149 318 72 q 128 327 169 226 q 86 543 86 428 q 127 758 86 657 q 242 935 168 858 q 415 1055 317 1011 q 626 1099 513 1099 q 808 1069 726 1099 q 967 976 890 1040 q 981 953 979 967 q 978 928 983 940 q 961 911 972 917 q 947 894 958 900 q 922 890 936 889 q 893 903 907 892 q 775 973 839 950 q 626 996 711 996 q 458 960 536 996 q 319 861 379 924 q 226 717 260 799 q 192 543 192 635 q 226 367 192 449 q 319 222 260 285 q 458 124 379 160 q 626 89 536 89 q 771 114 703 89 q 900 186 839 139 q 935 197 917 200 q 968 181 954 194 q 982 144 982 167 q 978 124 982 133 q 967 106 975 115 q 808 13 896 40 q 626 -14 721 -14 m 458 1206 q 419 1219 435 1206 q 403 1254 403 1232 q 429 1301 403 1283 l 593 1410 q 619 1417 604 1417 q 635 1415 628 1417 q 647 1410 642 1413 l 810 1301 q 836 1254 836 1283 q 821 1219 836 1233 q 782 1206 806 1206 q 765 1208 772 1206 q 749 1217 757 1211 l 619 1306 l 490 1217 q 458 1206 475 1206 z "},"Ċ":{"ha":1067,"x_min":86,"x_max":983,"o":"m 626 -14 q 416 29 514 -14 q 244 149 318 72 q 128 327 169 226 q 86 543 86 428 q 127 758 86 657 q 242 935 168 858 q 415 1055 317 1011 q 626 1099 513 1099 q 808 1069 726 1099 q 967 976 890 1040 q 981 953 979 967 q 978 928 983 940 q 961 911 972 917 q 947 894 958 900 q 922 890 936 889 q 893 903 907 892 q 775 973 839 950 q 626 996 711 996 q 458 960 536 996 q 319 861 379 924 q 226 717 260 799 q 192 543 192 635 q 226 367 192 449 q 319 222 260 285 q 458 124 379 160 q 626 89 536 89 q 771 114 703 89 q 900 186 839 139 q 935 197 917 200 q 968 181 954 194 q 982 144 982 167 q 978 124 982 133 q 967 106 975 115 q 808 13 896 40 q 626 -14 721 -14 m 618 1229 q 565 1251 588 1229 q 543 1306 543 1274 q 566 1360 543 1340 q 619 1381 589 1381 q 672 1360 649 1381 q 694 1306 694 1340 q 672 1251 694 1274 q 618 1229 650 1229 z "},"D":{"ha":1069,"x_min":139,"x_max":985,"o":"m 193 0 q 154 15 169 0 q 139 54 139 31 l 139 1031 q 154 1069 139 1054 q 193 1085 169 1085 l 443 1085 q 662 1045 563 1085 q 833 933 761 1006 q 945 761 906 860 q 985 543 985 663 q 945 324 985 424 q 833 152 906 225 q 662 40 761 79 q 443 0 563 0 l 193 0 m 247 97 l 443 97 q 669 155 571 97 q 822 313 767 213 q 878 543 878 414 q 822 773 878 672 q 669 931 767 874 q 443 988 571 988 l 247 988 l 247 97 z "},"Ð":{"ha":1069,"x_min":0,"x_max":985,"o":"m 50 496 q 14 508 28 496 q 0 543 0 521 q 14 578 0 565 q 50 590 28 590 l 456 590 q 492 578 478 590 q 507 543 507 565 q 492 508 507 521 q 456 496 478 496 l 50 496 m 193 0 q 154 15 169 0 q 139 54 139 31 l 139 1031 q 154 1069 139 1054 q 193 1085 169 1085 l 443 1085 q 662 1045 563 1085 q 833 933 761 1006 q 945 761 906 860 q 985 543 985 663 q 945 324 985 424 q 833 152 906 225 q 662 40 761 79 q 443 0 563 0 l 193 0 m 247 97 l 443 97 q 669 155 571 97 q 822 313 767 213 q 878 543 878 414 q 822 773 878 672 q 669 931 767 874 q 443 988 571 988 l 247 988 l 247 97 z "},"Ď":{"ha":1069,"x_min":139,"x_max":985,"o":"m 193 0 q 154 15 169 0 q 139 54 139 31 l 139 1031 q 154 1069 139 1054 q 193 1085 169 1085 l 443 1085 q 662 1045 563 1085 q 833 933 761 1006 q 945 761 906 860 q 985 543 985 663 q 945 324 985 424 q 833 152 906 225 q 662 40 761 79 q 443 0 563 0 l 193 0 m 247 97 l 443 97 q 669 155 571 97 q 822 313 767 213 q 878 543 878 414 q 822 773 878 672 q 669 931 767 874 q 443 988 571 988 l 247 988 l 247 97 m 536 1213 q 510 1219 518 1213 l 346 1328 q 319 1374 319 1346 q 346 1411 319 1400 q 407 1399 372 1422 l 536 1311 l 665 1397 q 728 1411 704 1424 q 753 1374 753 1399 q 726 1328 753 1346 l 564 1219 q 536 1213 554 1213 z "},"Đ":{"ha":1069,"x_min":0,"x_max":985,"o":"m 50 496 q 14 508 28 496 q 0 543 0 521 q 14 578 0 565 q 50 590 28 590 l 456 590 q 492 578 478 590 q 507 543 507 565 q 492 508 507 521 q 456 496 478 496 l 50 496 m 193 0 q 154 15 169 0 q 139 54 139 31 l 139 1031 q 154 1069 139 1054 q 193 1085 169 1085 l 443 1085 q 662 1045 563 1085 q 833 933 761 1006 q 945 761 906 860 q 985 543 985 663 q 945 324 985 424 q 833 152 906 225 q 662 40 761 79 q 443 0 563 0 l 193 0 m 247 97 l 443 97 q 669 155 571 97 q 822 313 767 213 q 878 543 878 414 q 822 773 878 672 q 669 931 767 874 q 443 988 571 988 l 247 988 l 247 97 z "},"E":{"ha":961,"x_min":139,"x_max":899,"o":"m 193 0 q 154 15 169 0 q 139 54 139 31 l 139 1031 q 154 1069 139 1054 q 193 1085 169 1085 l 844 1085 q 883 1070 867 1085 q 899 1032 899 1056 q 883 996 899 1011 q 844 981 867 981 l 247 981 l 247 597 l 682 597 q 721 582 706 597 q 736 544 736 567 q 721 507 736 522 q 682 492 706 492 l 247 492 l 247 104 l 844 104 q 883 89 867 104 q 899 53 899 74 q 883 15 899 29 q 844 0 867 0 l 193 0 z "},"É":{"ha":961,"x_min":139,"x_max":899,"o":"m 193 0 q 154 15 169 0 q 139 54 139 31 l 139 1031 q 154 1069 139 1054 q 193 1085 169 1085 l 844 1085 q 883 1070 867 1085 q 899 1032 899 1056 q 883 996 899 1011 q 844 981 867 981 l 247 981 l 247 597 l 682 597 q 721 582 706 597 q 736 544 736 567 q 721 507 736 522 q 682 492 706 492 l 247 492 l 247 104 l 844 104 q 883 89 867 104 q 899 53 899 74 q 883 15 899 29 q 844 0 867 0 l 193 0 m 518 1200 q 480 1216 496 1200 q 464 1254 464 1232 q 476 1290 464 1276 l 633 1447 q 671 1463 649 1463 q 710 1447 694 1463 q 725 1407 725 1431 q 722 1388 725 1397 q 710 1371 718 1378 l 554 1214 q 518 1200 540 1200 z "},"Ĕ":{"ha":961,"x_min":139,"x_max":899,"o":"m 193 0 q 154 15 169 0 q 139 54 139 31 l 139 1031 q 154 1069 139 1054 q 193 1085 169 1085 l 844 1085 q 883 1070 867 1085 q 899 1032 899 1056 q 883 996 899 1011 q 844 981 867 981 l 247 981 l 247 597 l 682 597 q 721 582 706 597 q 736 544 736 567 q 721 507 736 522 q 682 492 706 492 l 247 492 l 247 104 l 844 104 q 883 89 867 104 q 899 53 899 74 q 883 15 899 29 q 844 0 867 0 l 193 0 m 528 1201 q 420 1223 469 1201 q 341 1281 371 1244 q 311 1363 311 1317 q 326 1401 311 1385 q 364 1418 342 1418 q 400 1404 385 1418 q 415 1368 415 1390 q 447 1314 415 1336 q 528 1292 479 1292 q 611 1314 581 1292 q 642 1368 642 1336 q 657 1404 642 1390 q 694 1418 672 1418 q 731 1402 717 1418 q 746 1364 746 1386 q 714 1278 744 1315 q 635 1222 683 1242 q 528 1201 586 1201 z "},"Ě":{"ha":961,"x_min":139,"x_max":899,"o":"m 193 0 q 154 15 169 0 q 139 54 139 31 l 139 1031 q 154 1069 139 1054 q 193 1085 169 1085 l 844 1085 q 883 1070 867 1085 q 899 1032 899 1056 q 883 996 899 1011 q 844 981 867 981 l 247 981 l 247 597 l 682 597 q 721 582 706 597 q 736 544 736 567 q 721 507 736 522 q 682 492 706 492 l 247 492 l 247 104 l 844 104 q 883 89 867 104 q 899 53 899 74 q 883 15 899 29 q 844 0 867 0 l 193 0 m 529 1213 q 503 1219 511 1213 l 339 1328 q 313 1374 313 1346 q 339 1411 313 1400 q 400 1399 365 1422 l 529 1311 l 658 1397 q 722 1411 697 1424 q 746 1374 746 1399 q 719 1328 746 1346 l 557 1219 q 529 1213 547 1213 z "},"Ê":{"ha":961,"x_min":139,"x_max":899,"o":"m 193 0 q 154 15 169 0 q 139 54 139 31 l 139 1031 q 154 1069 139 1054 q 193 1085 169 1085 l 844 1085 q 883 1070 867 1085 q 899 1032 899 1056 q 883 996 899 1011 q 844 981 867 981 l 247 981 l 247 597 l 682 597 q 721 582 706 597 q 736 544 736 567 q 721 507 736 522 q 682 492 706 492 l 247 492 l 247 104 l 844 104 q 883 89 867 104 q 899 53 899 74 q 883 15 899 29 q 844 0 867 0 l 193 0 m 368 1206 q 328 1219 344 1206 q 313 1254 313 1232 q 339 1301 313 1283 l 503 1410 q 529 1417 514 1417 q 544 1415 538 1417 q 557 1410 551 1413 l 719 1301 q 746 1254 746 1283 q 731 1219 746 1233 q 692 1206 715 1206 q 674 1208 682 1206 q 658 1217 667 1211 l 529 1306 l 400 1217 q 368 1206 385 1206 z "},"Ế":{"ha":961,"x_min":139,"x_max":899,"o":"m 193 0 q 154 15 169 0 q 139 54 139 31 l 139 1031 q 154 1069 139 1054 q 193 1085 169 1085 l 844 1085 q 883 1070 867 1085 q 899 1032 899 1056 q 883 996 899 1011 q 844 981 867 981 l 247 981 l 247 597 l 682 597 q 721 582 706 597 q 736 544 736 567 q 721 507 736 522 q 682 492 706 492 l 247 492 l 247 104 l 844 104 q 883 89 867 104 q 899 53 899 74 q 883 15 899 29 q 844 0 867 0 l 193 0 m 367 1206 q 327 1219 343 1206 q 311 1254 311 1232 q 338 1301 311 1283 l 501 1410 q 528 1417 513 1417 q 543 1415 536 1417 q 556 1410 550 1413 l 718 1301 q 744 1254 744 1283 q 729 1219 744 1233 q 690 1206 714 1206 q 673 1208 681 1206 q 657 1217 665 1211 l 528 1306 l 399 1217 q 367 1206 383 1206 m 651 1435 q 613 1450 629 1435 q 597 1489 597 1465 q 610 1525 597 1510 l 767 1682 q 804 1697 782 1697 q 844 1681 829 1697 q 858 1642 858 1665 q 855 1622 858 1632 q 843 1606 851 1613 l 688 1449 q 651 1435 674 1435 z "},"Ệ":{"ha":961,"x_min":139,"x_max":899,"o":"m 193 0 q 154 15 169 0 q 139 54 139 31 l 139 1031 q 154 1069 139 1054 q 193 1085 169 1085 l 844 1085 q 883 1070 867 1085 q 899 1032 899 1056 q 883 996 899 1011 q 844 981 867 981 l 247 981 l 247 597 l 682 597 q 721 582 706 597 q 736 544 736 567 q 721 507 736 522 q 682 492 706 492 l 247 492 l 247 104 l 844 104 q 883 89 867 104 q 899 53 899 74 q 883 15 899 29 q 844 0 867 0 l 193 0 m 368 1206 q 328 1219 344 1206 q 313 1254 313 1232 q 339 1301 313 1283 l 503 1410 q 529 1417 514 1417 q 544 1415 538 1417 q 557 1410 551 1413 l 719 1301 q 746 1254 746 1283 q 731 1219 746 1233 q 692 1206 715 1206 q 674 1208 682 1206 q 658 1217 667 1211 l 529 1306 l 400 1217 q 368 1206 385 1206 m 500 -290 q 447 -268 469 -290 q 425 -214 425 -246 q 448 -159 425 -179 q 501 -139 471 -139 q 553 -159 531 -139 q 576 -214 576 -179 q 554 -268 576 -246 q 500 -290 532 -290 z "},"Ề":{"ha":961,"x_min":139,"x_max":899,"o":"m 193 0 q 154 15 169 0 q 139 54 139 31 l 139 1031 q 154 1069 139 1054 q 193 1085 169 1085 l 844 1085 q 883 1070 867 1085 q 899 1032 899 1056 q 883 996 899 1011 q 844 981 867 981 l 247 981 l 247 597 l 682 597 q 721 582 706 597 q 736 544 736 567 q 721 507 736 522 q 682 492 706 492 l 247 492 l 247 104 l 844 104 q 883 89 867 104 q 899 53 899 74 q 883 15 899 29 q 844 0 867 0 l 193 0 m 367 1206 q 327 1219 343 1206 q 311 1254 311 1232 q 338 1301 311 1283 l 501 1410 q 528 1417 513 1417 q 543 1415 536 1417 q 556 1410 550 1413 l 718 1301 q 744 1254 744 1283 q 729 1219 744 1233 q 690 1206 714 1206 q 673 1208 681 1206 q 657 1217 665 1211 l 528 1306 l 399 1217 q 367 1206 383 1206 m 661 1443 q 625 1458 640 1443 l 468 1614 q 454 1651 454 1629 q 469 1691 454 1675 q 507 1707 485 1707 q 546 1690 529 1707 l 701 1533 q 715 1499 715 1521 q 699 1459 715 1475 q 661 1443 683 1443 z "},"Ể":{"ha":961,"x_min":139,"x_max":899,"o":"m 193 0 q 154 15 169 0 q 139 54 139 31 l 139 1031 q 154 1069 139 1054 q 193 1085 169 1085 l 844 1085 q 883 1070 867 1085 q 899 1032 899 1056 q 883 996 899 1011 q 844 981 867 981 l 247 981 l 247 597 l 682 597 q 721 582 706 597 q 736 544 736 567 q 721 507 736 522 q 682 492 706 492 l 247 492 l 247 104 l 844 104 q 883 89 867 104 q 899 53 899 74 q 883 15 899 29 q 844 0 867 0 l 193 0 m 371 1206 q 331 1219 347 1206 q 315 1254 315 1232 q 342 1301 315 1283 l 506 1410 q 532 1417 517 1417 q 547 1415 540 1417 q 560 1410 554 1413 l 722 1301 q 749 1254 749 1283 q 733 1219 749 1233 q 694 1206 718 1206 q 677 1208 685 1206 q 661 1217 669 1211 l 532 1306 l 403 1217 q 371 1206 388 1206 m 665 1390 q 630 1405 644 1390 q 615 1440 615 1419 l 615 1479 q 660 1533 615 1524 l 694 1540 q 738 1563 724 1547 q 751 1601 751 1578 q 731 1649 751 1632 q 682 1665 711 1665 q 649 1659 664 1665 q 621 1643 633 1653 q 604 1633 614 1636 q 586 1631 594 1631 q 555 1642 568 1631 q 542 1675 542 1654 q 558 1713 542 1699 q 613 1744 583 1733 q 681 1756 643 1756 q 797 1715 750 1756 q 843 1608 843 1674 q 801 1510 843 1543 q 703 1469 760 1478 l 714 1451 q 699 1406 714 1422 q 665 1390 685 1390 z "},"Ễ":{"ha":961,"x_min":139,"x_max":899,"o":"m 193 0 q 154 15 169 0 q 139 54 139 31 l 139 1031 q 154 1069 139 1054 q 193 1085 169 1085 l 844 1085 q 883 1070 867 1085 q 899 1032 899 1056 q 883 996 899 1011 q 844 981 867 981 l 247 981 l 247 597 l 682 597 q 721 582 706 597 q 736 544 736 567 q 721 507 736 522 q 682 492 706 492 l 247 492 l 247 104 l 844 104 q 883 89 867 104 q 899 53 899 74 q 883 15 899 29 q 844 0 867 0 l 193 0 m 371 1206 q 331 1219 347 1206 q 315 1254 315 1232 q 342 1301 315 1283 l 506 1410 q 532 1417 517 1417 q 547 1415 540 1417 q 560 1410 554 1413 l 722 1301 q 749 1254 749 1283 q 733 1219 749 1233 q 694 1206 718 1206 q 677 1208 685 1206 q 661 1217 669 1211 l 532 1306 l 403 1217 q 371 1206 388 1206 m 614 1454 q 552 1470 579 1454 q 506 1506 525 1486 q 472 1533 486 1524 q 443 1543 458 1543 q 415 1529 426 1543 q 390 1492 403 1515 q 363 1467 381 1474 q 328 1467 346 1460 q 303 1492 310 1474 q 306 1529 296 1510 q 364 1608 332 1583 q 438 1632 396 1632 q 502 1615 478 1632 q 547 1579 526 1597 q 583 1553 571 1560 q 604 1546 594 1546 q 639 1579 624 1546 q 666 1606 649 1597 q 701 1610 683 1615 q 732 1583 724 1601 q 729 1546 740 1565 q 678 1476 706 1497 q 614 1454 650 1454 z "},"Ȅ":{"ha":961,"x_min":139,"x_max":899,"o":"m 193 0 q 154 15 169 0 q 139 54 139 31 l 139 1031 q 154 1069 139 1054 q 193 1085 169 1085 l 844 1085 q 883 1070 867 1085 q 899 1032 899 1056 q 883 996 899 1011 q 844 981 867 981 l 247 981 l 247 597 l 682 597 q 721 582 706 597 q 736 544 736 567 q 721 507 736 522 q 682 492 706 492 l 247 492 l 247 104 l 844 104 q 883 89 867 104 q 899 53 899 74 q 883 15 899 29 q 844 0 867 0 l 193 0 m 678 1192 q 639 1218 653 1192 l 554 1397 q 550 1418 550 1407 q 565 1454 550 1438 q 606 1471 581 1471 q 636 1462 622 1471 q 656 1438 650 1453 l 714 1249 q 717 1232 717 1242 q 704 1202 717 1213 q 678 1192 692 1192 m 468 1192 q 429 1218 442 1192 l 344 1397 q 341 1408 342 1403 q 340 1418 340 1413 q 356 1454 340 1438 q 394 1471 371 1471 q 425 1462 411 1471 q 443 1438 439 1453 l 504 1249 q 506 1240 506 1244 q 507 1232 507 1236 q 494 1202 507 1213 q 468 1192 482 1192 z "},"Ë":{"ha":961,"x_min":139,"x_max":899,"o":"m 193 0 q 154 15 169 0 q 139 54 139 31 l 139 1031 q 154 1069 139 1054 q 193 1085 169 1085 l 844 1085 q 883 1070 867 1085 q 899 1032 899 1056 q 883 996 899 1011 q 844 981 867 981 l 247 981 l 247 597 l 682 597 q 721 582 706 597 q 736 544 736 567 q 721 507 736 522 q 682 492 706 492 l 247 492 l 247 104 l 844 104 q 883 89 867 104 q 899 53 899 74 q 883 15 899 29 q 844 0 867 0 l 193 0 m 383 1224 q 328 1245 350 1224 q 307 1300 307 1267 q 328 1353 307 1331 q 383 1376 350 1376 q 438 1353 415 1376 q 460 1300 460 1331 q 438 1245 460 1267 q 383 1224 415 1224 m 674 1224 q 619 1245 640 1224 q 597 1300 597 1267 q 619 1353 597 1331 q 674 1376 640 1376 q 728 1353 706 1376 q 750 1300 750 1331 q 728 1245 750 1267 q 674 1224 706 1224 z "},"Ė":{"ha":961,"x_min":139,"x_max":899,"o":"m 193 0 q 154 15 169 0 q 139 54 139 31 l 139 1031 q 154 1069 139 1054 q 193 1085 169 1085 l 844 1085 q 883 1070 867 1085 q 899 1032 899 1056 q 883 996 899 1011 q 844 981 867 981 l 247 981 l 247 597 l 682 597 q 721 582 706 597 q 736 544 736 567 q 721 507 736 522 q 682 492 706 492 l 247 492 l 247 104 l 844 104 q 883 89 867 104 q 899 53 899 74 q 883 15 899 29 q 844 0 867 0 l 193 0 m 528 1229 q 475 1251 497 1229 q 453 1306 453 1274 q 476 1360 453 1340 q 529 1381 499 1381 q 581 1360 558 1381 q 604 1306 604 1340 q 582 1251 604 1274 q 528 1229 560 1229 z "},"Ẹ":{"ha":961,"x_min":139,"x_max":899,"o":"m 193 0 q 154 15 169 0 q 139 54 139 31 l 139 1031 q 154 1069 139 1054 q 193 1085 169 1085 l 844 1085 q 883 1070 867 1085 q 899 1032 899 1056 q 883 996 899 1011 q 844 981 867 981 l 247 981 l 247 597 l 682 597 q 721 582 706 597 q 736 544 736 567 q 721 507 736 522 q 682 492 706 492 l 247 492 l 247 104 l 844 104 q 883 89 867 104 q 899 53 899 74 q 883 15 899 29 q 844 0 867 0 l 193 0 m 500 -290 q 447 -268 469 -290 q 425 -214 425 -246 q 448 -159 425 -179 q 501 -139 471 -139 q 553 -159 531 -139 q 576 -214 576 -179 q 554 -268 576 -246 q 500 -290 532 -290 z "},"È":{"ha":961,"x_min":139,"x_max":899,"o":"m 193 0 q 154 15 169 0 q 139 54 139 31 l 139 1031 q 154 1069 139 1054 q 193 1085 169 1085 l 844 1085 q 883 1070 867 1085 q 899 1032 899 1056 q 883 996 899 1011 q 844 981 867 981 l 247 981 l 247 597 l 682 597 q 721 582 706 597 q 736 544 736 567 q 721 507 736 522 q 682 492 706 492 l 247 492 l 247 104 l 844 104 q 883 89 867 104 q 899 53 899 74 q 883 15 899 29 q 844 0 867 0 l 193 0 m 528 1208 q 492 1224 507 1208 l 335 1379 q 321 1417 321 1396 q 336 1456 321 1440 q 374 1472 351 1472 q 413 1456 396 1472 l 568 1299 q 582 1264 582 1288 q 567 1224 582 1240 q 528 1208 551 1208 z "},"Ẻ":{"ha":961,"x_min":139,"x_max":899,"o":"m 193 0 q 154 15 169 0 q 139 54 139 31 l 139 1031 q 154 1069 139 1054 q 193 1085 169 1085 l 844 1085 q 883 1070 867 1085 q 899 1032 899 1056 q 883 996 899 1011 q 844 981 867 981 l 247 981 l 247 597 l 682 597 q 721 582 706 597 q 736 544 736 567 q 721 507 736 522 q 682 492 706 492 l 247 492 l 247 104 l 844 104 q 883 89 867 104 q 899 53 899 74 q 883 15 899 29 q 844 0 867 0 l 193 0 m 528 1156 q 492 1170 507 1156 q 478 1206 478 1185 l 478 1244 q 522 1299 478 1289 l 557 1306 q 600 1327 586 1313 q 614 1367 614 1342 q 594 1414 614 1397 q 544 1431 574 1431 q 511 1424 526 1431 q 483 1408 496 1418 q 467 1399 476 1403 q 449 1396 458 1396 q 417 1408 431 1396 q 404 1440 404 1419 q 421 1478 404 1464 q 477 1510 447 1499 q 543 1521 507 1521 q 659 1480 613 1521 q 706 1374 706 1439 q 664 1276 706 1308 q 565 1235 622 1243 l 576 1217 q 562 1172 576 1188 q 528 1156 547 1156 z "},"Ȇ":{"ha":961,"x_min":139,"x_max":899,"o":"m 193 0 q 154 15 169 0 q 139 54 139 31 l 139 1031 q 154 1069 139 1054 q 193 1085 169 1085 l 844 1085 q 883 1070 867 1085 q 899 1032 899 1056 q 883 996 899 1011 q 844 981 867 981 l 247 981 l 247 597 l 682 597 q 721 582 706 597 q 736 544 736 567 q 721 507 736 522 q 682 492 706 492 l 247 492 l 247 104 l 844 104 q 883 89 867 104 q 899 53 899 74 q 883 15 899 29 q 844 0 867 0 l 193 0 m 363 1200 q 325 1216 340 1200 q 310 1256 310 1232 q 339 1337 310 1300 q 418 1395 368 1374 q 528 1417 468 1417 q 633 1397 585 1417 q 713 1340 682 1376 q 744 1254 743 1303 q 730 1216 744 1232 q 693 1200 715 1200 q 656 1214 671 1200 q 640 1250 640 1228 q 610 1304 640 1282 q 528 1326 579 1326 q 446 1303 478 1326 q 414 1250 414 1281 q 399 1214 414 1228 q 363 1200 383 1200 z "},"Ē":{"ha":961,"x_min":139,"x_max":899,"o":"m 193 0 q 154 15 169 0 q 139 54 139 31 l 139 1031 q 154 1069 139 1054 q 193 1085 169 1085 l 844 1085 q 883 1070 867 1085 q 899 1032 899 1056 q 883 996 899 1011 q 844 981 867 981 l 247 981 l 247 597 l 682 597 q 721 582 706 597 q 736 544 736 567 q 721 507 736 522 q 682 492 706 492 l 247 492 l 247 104 l 844 104 q 883 89 867 104 q 899 53 899 74 q 883 15 899 29 q 844 0 867 0 l 193 0 m 349 1236 q 310 1249 326 1236 q 294 1286 294 1263 q 310 1322 294 1308 q 349 1336 326 1336 l 708 1336 q 747 1322 731 1336 q 763 1286 763 1308 q 747 1249 763 1263 q 708 1236 731 1236 l 349 1236 z "},"Ę":{"ha":961,"x_min":139,"x_max":1032,"o":"m 193 0 q 154 15 169 0 q 139 54 139 31 l 139 1031 q 154 1069 139 1054 q 193 1085 169 1085 l 844 1085 q 883 1070 867 1085 q 899 1032 899 1056 q 883 996 899 1011 q 844 981 867 981 l 247 981 l 247 597 l 682 597 q 721 582 706 597 q 736 544 736 567 q 721 507 736 522 q 682 492 706 492 l 247 492 l 247 104 l 844 104 q 883 89 867 104 q 899 53 899 74 q 883 15 899 29 q 844 0 867 0 l 193 0 m 869 -364 q 789 -342 826 -364 q 729 -283 751 -321 q 707 -201 707 -246 q 775 -68 707 -125 q 806 -41 794 -54 q 822 -14 817 -28 q 869 14 839 14 q 908 -1 893 14 q 924 -39 922 -15 q 902 -97 924 -68 q 838 -157 881 -125 q 821 -178 826 -165 q 815 -201 815 -190 q 831 -240 815 -224 q 869 -256 847 -256 q 885 -253 876 -256 q 899 -247 893 -251 l 946 -212 q 978 -201 961 -201 q 1017 -217 1001 -201 q 1032 -256 1032 -232 q 1014 -299 1032 -281 l 958 -335 q 869 -364 917 -364 z "},"Ẽ":{"ha":961,"x_min":139,"x_max":899,"o":"m 193 0 q 154 15 169 0 q 139 54 139 31 l 139 1031 q 154 1069 139 1054 q 193 1085 169 1085 l 844 1085 q 883 1070 867 1085 q 899 1032 899 1056 q 883 996 899 1011 q 844 981 867 981 l 247 981 l 247 597 l 682 597 q 721 582 706 597 q 736 544 736 567 q 721 507 736 522 q 682 492 706 492 l 247 492 l 247 104 l 844 104 q 883 89 867 104 q 899 53 899 74 q 883 15 899 29 q 844 0 867 0 l 193 0 m 675 1196 q 597 1212 631 1196 q 540 1242 564 1228 q 493 1267 511 1260 q 457 1274 475 1274 q 409 1262 432 1274 q 365 1225 386 1250 q 333 1201 353 1207 q 296 1206 314 1196 q 274 1235 278 1215 q 283 1274 271 1256 q 364 1342 318 1318 q 460 1367 410 1367 q 535 1351 504 1367 q 589 1322 567 1336 q 634 1297 617 1306 q 674 1289 651 1289 q 713 1296 696 1289 q 742 1317 729 1303 q 773 1338 757 1332 q 807 1333 789 1344 q 831 1303 826 1324 q 821 1264 835 1282 q 675 1196 765 1196 z "},"F":{"ha":868,"x_min":53,"x_max":813,"o":"m 107 0 q 69 16 85 0 q 53 54 53 32 l 53 1031 q 68 1069 53 1054 q 107 1085 83 1085 l 758 1085 q 797 1070 782 1085 q 813 1032 813 1056 q 797 996 813 1011 q 758 981 782 981 l 161 981 l 161 597 l 596 597 q 635 582 619 597 q 650 544 650 567 q 635 507 650 522 q 596 492 619 492 l 161 492 l 161 54 q 146 16 161 32 q 107 0 131 0 z "},"G":{"ha":1067,"x_min":86,"x_max":983,"o":"m 626 -14 q 416 29 514 -14 q 244 149 318 72 q 128 327 169 226 q 86 543 86 428 q 127 758 86 657 q 242 935 168 858 q 415 1055 317 1011 q 626 1099 513 1099 q 808 1069 726 1099 q 967 976 890 1040 q 981 953 979 967 q 978 928 983 940 q 961 911 972 917 q 947 894 958 900 q 922 890 936 889 q 893 903 907 892 q 775 973 839 950 q 626 996 711 996 q 458 960 536 996 q 319 861 379 924 q 226 717 260 799 q 192 543 192 635 q 226 367 192 449 q 319 222 260 285 q 458 124 379 160 q 626 89 536 89 q 771 114 703 89 q 900 186 839 139 q 935 197 917 200 q 968 181 954 194 q 982 144 982 167 q 979 124 982 133 q 967 106 976 115 q 808 13 896 40 q 626 -14 721 -14 m 982 144 l 876 167 l 876 446 l 660 446 q 621 460 636 446 q 606 494 606 474 q 621 528 606 515 q 660 542 636 542 l 928 542 q 967 527 951 542 q 982 489 982 513 l 982 144 z "},"Ğ":{"ha":1067,"x_min":86,"x_max":983,"o":"m 626 -14 q 416 29 514 -14 q 244 149 318 72 q 128 327 169 226 q 86 543 86 428 q 127 758 86 657 q 242 935 168 858 q 415 1055 317 1011 q 626 1099 513 1099 q 808 1069 726 1099 q 967 976 890 1040 q 981 953 979 967 q 978 928 983 940 q 961 911 972 917 q 947 894 958 900 q 922 890 936 889 q 893 903 907 892 q 775 973 839 950 q 626 996 711 996 q 458 960 536 996 q 319 861 379 924 q 226 717 260 799 q 192 543 192 635 q 226 367 192 449 q 319 222 260 285 q 458 124 379 160 q 626 89 536 89 q 771 114 703 89 q 900 186 839 139 q 935 197 917 200 q 968 181 954 194 q 982 144 982 167 q 979 124 982 133 q 967 106 976 115 q 808 13 896 40 q 626 -14 721 -14 m 982 144 l 876 167 l 876 446 l 660 446 q 621 460 636 446 q 606 494 606 474 q 621 528 606 515 q 660 542 636 542 l 928 542 q 967 527 951 542 q 982 489 982 513 l 982 144 m 610 1201 q 502 1223 551 1201 q 423 1281 453 1244 q 393 1363 393 1317 q 408 1401 393 1385 q 446 1418 424 1418 q 482 1404 467 1418 q 497 1368 497 1390 q 529 1314 497 1336 q 610 1292 561 1292 q 693 1314 663 1292 q 724 1368 724 1336 q 739 1404 724 1390 q 776 1418 754 1418 q 813 1402 799 1418 q 828 1364 828 1386 q 796 1278 826 1315 q 717 1222 765 1242 q 610 1201 668 1201 z "},"Ǧ":{"ha":1067,"x_min":86,"x_max":983,"o":"m 626 -14 q 416 29 514 -14 q 244 149 318 72 q 128 327 169 226 q 86 543 86 428 q 127 758 86 657 q 242 935 168 858 q 415 1055 317 1011 q 626 1099 513 1099 q 808 1069 726 1099 q 967 976 890 1040 q 981 953 979 967 q 978 928 983 940 q 961 911 972 917 q 947 894 958 900 q 922 890 936 889 q 893 903 907 892 q 775 973 839 950 q 626 996 711 996 q 458 960 536 996 q 319 861 379 924 q 226 717 260 799 q 192 543 192 635 q 226 367 192 449 q 319 222 260 285 q 458 124 379 160 q 626 89 536 89 q 771 114 703 89 q 900 186 839 139 q 935 197 917 200 q 968 181 954 194 q 982 144 982 167 q 979 124 982 133 q 967 106 976 115 q 808 13 896 40 q 626 -14 721 -14 m 982 144 l 876 167 l 876 446 l 660 446 q 621 460 636 446 q 606 494 606 474 q 621 528 606 515 q 660 542 636 542 l 928 542 q 967 527 951 542 q 982 489 982 513 l 982 144 m 611 1213 q 585 1219 593 1213 l 421 1328 q 394 1374 394 1346 q 421 1411 394 1400 q 482 1399 447 1422 l 611 1311 l 740 1397 q 803 1411 779 1424 q 828 1374 828 1399 q 801 1328 828 1346 l 639 1219 q 611 1213 629 1213 z "},"Ĝ":{"ha":1067,"x_min":86,"x_max":983,"o":"m 626 -14 q 416 29 514 -14 q 244 149 318 72 q 128 327 169 226 q 86 543 86 428 q 127 758 86 657 q 242 935 168 858 q 415 1055 317 1011 q 626 1099 513 1099 q 808 1069 726 1099 q 967 976 890 1040 q 981 953 979 967 q 978 928 983 940 q 961 911 972 917 q 947 894 958 900 q 922 890 936 889 q 893 903 907 892 q 775 973 839 950 q 626 996 711 996 q 458 960 536 996 q 319 861 379 924 q 226 717 260 799 q 192 543 192 635 q 226 367 192 449 q 319 222 260 285 q 458 124 379 160 q 626 89 536 89 q 771 114 703 89 q 900 186 839 139 q 935 197 917 200 q 968 181 954 194 q 982 144 982 167 q 979 124 982 133 q 967 106 976 115 q 808 13 896 40 q 626 -14 721 -14 m 982 144 l 876 167 l 876 446 l 660 446 q 621 460 636 446 q 606 494 606 474 q 621 528 606 515 q 660 542 636 542 l 928 542 q 967 527 951 542 q 982 489 982 513 l 982 144 m 450 1206 q 410 1219 426 1206 q 394 1254 394 1232 q 421 1301 394 1283 l 585 1410 q 611 1417 596 1417 q 626 1415 619 1417 q 639 1410 633 1413 l 801 1301 q 828 1254 828 1283 q 813 1219 828 1233 q 774 1206 797 1206 q 756 1208 764 1206 q 740 1217 749 1211 l 611 1306 l 482 1217 q 450 1206 467 1206 z "},"Ģ":{"ha":1067,"x_min":86,"x_max":983,"o":"m 626 -14 q 416 29 514 -14 q 244 149 318 72 q 128 327 169 226 q 86 543 86 428 q 127 758 86 657 q 242 935 168 858 q 415 1055 317 1011 q 626 1099 513 1099 q 808 1069 726 1099 q 967 976 890 1040 q 981 953 979 967 q 978 928 983 940 q 961 911 972 917 q 947 894 958 900 q 922 890 936 889 q 893 903 907 892 q 775 973 839 950 q 626 996 711 996 q 458 960 536 996 q 319 861 379 924 q 226 717 260 799 q 192 543 192 635 q 226 367 192 449 q 319 222 260 285 q 458 124 379 160 q 626 89 536 89 q 771 114 703 89 q 900 186 839 139 q 935 197 917 200 q 968 181 954 194 q 982 144 982 167 q 979 124 982 133 q 967 106 976 115 q 808 13 896 40 q 626 -14 721 -14 m 982 144 l 876 167 l 876 446 l 660 446 q 621 460 636 446 q 606 494 606 474 q 621 528 606 515 q 660 542 636 542 l 928 542 q 967 527 951 542 q 982 489 982 513 l 982 144 m 608 -331 q 533 -319 572 -331 q 467 -285 494 -307 q 440 -232 440 -262 q 451 -203 440 -214 q 481 -193 463 -193 q 513 -201 500 -193 q 538 -222 526 -210 q 567 -242 550 -233 q 615 -250 585 -250 q 676 -235 656 -250 q 696 -190 696 -219 q 673 -149 696 -165 q 600 -133 650 -133 q 554 -124 571 -133 q 538 -94 538 -114 q 603 -54 538 -54 q 729 -92 681 -54 q 778 -190 778 -131 q 728 -292 778 -254 q 608 -331 679 -331 z "},"Ġ":{"ha":1067,"x_min":86,"x_max":983,"o":"m 626 -14 q 416 29 514 -14 q 244 149 318 72 q 128 327 169 226 q 86 543 86 428 q 127 758 86 657 q 242 935 168 858 q 415 1055 317 1011 q 626 1099 513 1099 q 808 1069 726 1099 q 967 976 890 1040 q 981 953 979 967 q 978 928 983 940 q 961 911 972 917 q 947 894 958 900 q 922 890 936 889 q 893 903 907 892 q 775 973 839 950 q 626 996 711 996 q 458 960 536 996 q 319 861 379 924 q 226 717 260 799 q 192 543 192 635 q 226 367 192 449 q 319 222 260 285 q 458 124 379 160 q 626 89 536 89 q 771 114 703 89 q 900 186 839 139 q 935 197 917 200 q 968 181 954 194 q 982 144 982 167 q 979 124 982 133 q 967 106 976 115 q 808 13 896 40 q 626 -14 721 -14 m 982 144 l 876 167 l 876 446 l 660 446 q 621 460 636 446 q 606 494 606 474 q 621 528 606 515 q 660 542 636 542 l 928 542 q 967 527 951 542 q 982 489 982 513 l 982 144 m 610 1229 q 557 1251 579 1229 q 535 1306 535 1274 q 558 1360 535 1340 q 611 1381 581 1381 q 663 1360 640 1381 q 686 1306 686 1340 q 664 1251 686 1274 q 610 1229 642 1229 z "},"H":{"ha":1172,"x_min":139,"x_max":1033,"o":"m 193 0 q 154 15 169 0 q 139 54 139 31 l 139 1031 q 154 1069 139 1054 q 193 1085 169 1085 q 232 1069 217 1085 q 247 1031 247 1054 l 247 597 l 925 597 l 925 1031 q 940 1069 925 1054 q 979 1085 956 1085 q 1018 1069 1003 1085 q 1033 1031 1033 1054 l 1033 54 q 1018 15 1033 31 q 979 0 1003 0 q 940 15 956 0 q 925 54 925 31 l 925 500 l 247 500 l 247 54 q 232 15 247 31 q 193 0 217 0 z "},"Ħ":{"ha":1172,"x_min":31,"x_max":1150,"o":"m 193 0 q 154 15 169 0 q 139 54 139 31 l 139 1031 q 154 1069 139 1054 q 193 1085 169 1085 q 232 1069 217 1085 q 247 1031 247 1054 l 247 597 l 925 597 l 925 1031 q 940 1069 925 1054 q 979 1085 956 1085 q 1018 1069 1003 1085 q 1033 1031 1033 1054 l 1033 54 q 1018 15 1033 31 q 979 0 1003 0 q 940 15 956 0 q 925 54 925 31 l 925 500 l 247 500 l 247 54 q 232 15 247 31 q 193 0 217 0 m 82 818 q 45 828 60 818 q 31 860 31 838 q 45 892 31 882 q 82 901 60 901 l 1097 901 q 1135 892 1121 901 q 1150 860 1150 882 q 1135 828 1150 838 q 1097 818 1121 818 l 82 818 z "},"Ĥ":{"ha":1172,"x_min":139,"x_max":1033,"o":"m 193 0 q 154 15 169 0 q 139 54 139 31 l 139 1031 q 154 1069 139 1054 q 193 1085 169 1085 q 232 1069 217 1085 q 247 1031 247 1054 l 247 597 l 925 597 l 925 1031 q 940 1069 925 1054 q 979 1085 956 1085 q 1018 1069 1003 1085 q 1033 1031 1033 1054 l 1033 54 q 1018 15 1033 31 q 979 0 1003 0 q 940 15 956 0 q 925 54 925 31 l 925 500 l 247 500 l 247 54 q 232 15 247 31 q 193 0 217 0 m 425 1206 q 385 1219 401 1206 q 369 1254 369 1232 q 396 1301 369 1283 l 560 1410 q 586 1417 571 1417 q 601 1415 594 1417 q 614 1410 608 1413 l 776 1301 q 803 1254 803 1283 q 788 1219 803 1233 q 749 1206 772 1206 q 731 1208 739 1206 q 715 1217 724 1211 l 586 1306 l 457 1217 q 425 1206 442 1206 z "},"I":{"ha":386,"x_min":139,"x_max":247,"o":"m 193 0 q 154 15 169 0 q 139 54 139 31 l 139 1031 q 154 1069 139 1054 q 193 1085 169 1085 q 232 1069 217 1085 q 247 1031 247 1054 l 247 54 q 232 15 247 31 q 193 0 217 0 z "},"Ĳ":{"ha":888,"x_min":139,"x_max":749,"o":"m 440 -14 q 286 17 354 -14 q 178 105 218 47 q 139 244 139 163 q 154 283 139 268 q 193 299 169 299 q 232 283 217 299 q 247 244 247 268 q 273 157 247 192 q 342 106 299 122 q 440 89 386 89 q 542 119 496 89 q 614 199 588 149 q 640 311 640 249 l 640 1031 q 656 1069 640 1054 q 694 1085 671 1085 q 733 1069 718 1085 q 749 1031 749 1054 l 749 311 q 708 146 749 219 q 597 29 667 72 q 440 -14 526 -14 m 193 403 q 154 418 169 403 q 139 457 139 433 l 139 1031 q 154 1069 139 1054 q 193 1085 169 1085 q 232 1069 217 1085 q 247 1031 247 1054 l 247 457 q 232 418 247 433 q 193 403 217 403 z "},"Í":{"ha":386,"x_min":129,"x_max":390,"o":"m 193 0 q 154 15 169 0 q 139 54 139 31 l 139 1031 q 154 1069 139 1054 q 193 1085 169 1085 q 232 1069 217 1085 q 247 1031 247 1054 l 247 54 q 232 15 247 31 q 193 0 217 0 m 183 1200 q 145 1216 161 1200 q 129 1254 129 1232 q 142 1290 129 1276 l 299 1447 q 336 1463 314 1463 q 375 1447 360 1463 q 390 1407 390 1431 q 387 1388 390 1397 q 375 1371 383 1378 l 219 1214 q 183 1200 206 1200 z "},"Ĭ":{"ha":386,"x_min":-25,"x_max":410,"o":"m 193 0 q 154 15 169 0 q 139 54 139 31 l 139 1031 q 154 1069 139 1054 q 193 1085 169 1085 q 232 1069 217 1085 q 247 1031 247 1054 l 247 54 q 232 15 247 31 q 193 0 217 0 m 192 1201 q 84 1223 133 1201 q 5 1281 35 1244 q -25 1363 -25 1317 q -10 1401 -25 1385 q 28 1418 6 1418 q 64 1404 49 1418 q 79 1368 79 1390 q 111 1314 79 1336 q 192 1292 143 1292 q 275 1314 244 1292 q 306 1368 306 1336 q 321 1404 306 1390 q 358 1418 336 1418 q 395 1402 381 1418 q 410 1364 410 1386 q 378 1278 408 1315 q 299 1222 347 1242 q 192 1201 250 1201 z "},"Î":{"ha":386,"x_min":-24,"x_max":410,"o":"m 193 0 q 154 15 169 0 q 139 54 139 31 l 139 1031 q 154 1069 139 1054 q 193 1085 169 1085 q 232 1069 217 1085 q 247 1031 247 1054 l 247 54 q 232 15 247 31 q 193 0 217 0 m 32 1206 q -8 1219 8 1206 q -24 1254 -24 1232 q 3 1301 -24 1283 l 167 1410 q 193 1417 178 1417 q 208 1415 201 1417 q 221 1410 215 1413 l 383 1301 q 410 1254 410 1283 q 394 1219 410 1233 q 356 1206 379 1206 q 338 1208 346 1206 q 322 1217 331 1211 l 193 1306 l 64 1217 q 32 1206 49 1206 z "},"Ȉ":{"ha":386,"x_min":4,"x_max":381,"o":"m 193 0 q 154 15 169 0 q 139 54 139 31 l 139 1031 q 154 1069 139 1054 q 193 1085 169 1085 q 232 1069 217 1085 q 247 1031 247 1054 l 247 54 q 232 15 247 31 q 193 0 217 0 m 342 1192 q 303 1218 317 1192 l 218 1397 q 214 1418 214 1407 q 229 1454 214 1438 q 269 1471 244 1471 q 300 1462 286 1471 q 319 1438 314 1453 l 378 1249 q 381 1232 381 1242 q 368 1202 381 1213 q 342 1192 356 1192 m 132 1192 q 93 1218 106 1192 l 8 1397 q 5 1408 6 1403 q 4 1418 4 1413 q 19 1454 4 1438 q 58 1471 35 1471 q 89 1462 75 1471 q 107 1438 103 1453 l 168 1249 q 170 1240 169 1244 q 171 1232 171 1236 q 158 1202 171 1213 q 132 1192 146 1192 z "},"Ï":{"ha":386,"x_min":-28,"x_max":415,"o":"m 193 0 q 154 15 169 0 q 139 54 139 31 l 139 1031 q 154 1069 139 1054 q 193 1085 169 1085 q 232 1069 217 1085 q 247 1031 247 1054 l 247 54 q 232 15 247 31 q 193 0 217 0 m 49 1224 q -6 1245 15 1224 q -28 1300 -28 1267 q -6 1353 -28 1331 q 49 1376 15 1376 q 103 1353 81 1376 q 125 1300 125 1331 q 103 1245 125 1267 q 49 1224 81 1224 m 339 1224 q 284 1245 306 1224 q 263 1300 263 1267 q 284 1353 263 1331 q 339 1376 306 1376 q 393 1353 371 1376 q 415 1300 415 1331 q 393 1245 415 1267 q 339 1224 371 1224 z "},"İ":{"ha":386,"x_min":117,"x_max":268,"o":"m 193 0 q 154 15 169 0 q 139 54 139 31 l 139 1031 q 154 1069 139 1054 q 193 1085 169 1085 q 232 1069 217 1085 q 247 1031 247 1054 l 247 54 q 232 15 247 31 q 193 0 217 0 m 192 1229 q 139 1251 161 1229 q 117 1306 117 1274 q 140 1360 117 1340 q 193 1381 163 1381 q 245 1360 222 1381 q 268 1306 268 1340 q 246 1251 268 1274 q 192 1229 224 1229 z "},"Ị":{"ha":386,"x_min":117,"x_max":268,"o":"m 193 0 q 154 15 169 0 q 139 54 139 31 l 139 1031 q 154 1069 139 1054 q 193 1085 169 1085 q 232 1069 217 1085 q 247 1031 247 1054 l 247 54 q 232 15 247 31 q 193 0 217 0 m 192 -290 q 139 -268 161 -290 q 117 -214 117 -246 q 140 -159 117 -179 q 193 -139 163 -139 q 245 -159 222 -139 q 268 -214 268 -179 q 246 -268 268 -246 q 192 -290 224 -290 z "},"Ì":{"ha":386,"x_min":-15,"x_max":247,"o":"m 193 0 q 154 15 169 0 q 139 54 139 31 l 139 1031 q 154 1069 139 1054 q 193 1085 169 1085 q 232 1069 217 1085 q 247 1031 247 1054 l 247 54 q 232 15 247 31 q 193 0 217 0 m 192 1208 q 156 1224 171 1208 l -1 1379 q -15 1417 -15 1396 q 0 1456 -15 1440 q 38 1472 15 1472 q 76 1456 60 1472 l 232 1299 q 246 1264 246 1288 q 231 1224 246 1240 q 192 1208 215 1208 z "},"Ỉ":{"ha":386,"x_min":68,"x_max":369,"o":"m 193 0 q 154 15 169 0 q 139 54 139 31 l 139 1031 q 154 1069 139 1054 q 193 1085 169 1085 q 232 1069 217 1085 q 247 1031 247 1054 l 247 54 q 232 15 247 31 q 193 0 217 0 m 192 1156 q 156 1170 171 1156 q 142 1206 142 1185 l 142 1244 q 186 1299 142 1289 l 221 1306 q 264 1327 250 1313 q 278 1367 278 1342 q 258 1414 278 1397 q 208 1431 238 1431 q 175 1424 190 1431 q 147 1408 160 1418 q 131 1399 140 1403 q 113 1396 122 1396 q 81 1408 94 1396 q 68 1440 68 1419 q 85 1478 68 1464 q 141 1510 111 1499 q 207 1521 171 1521 q 323 1480 276 1521 q 369 1374 369 1439 q 328 1276 369 1308 q 229 1235 286 1243 l 240 1217 q 226 1172 240 1188 q 192 1156 211 1156 z "},"Ȋ":{"ha":386,"x_min":-25,"x_max":410,"o":"m 193 0 q 154 15 169 0 q 139 54 139 31 l 139 1031 q 154 1069 139 1054 q 193 1085 169 1085 q 232 1069 217 1085 q 247 1031 247 1054 l 247 54 q 232 15 247 31 q 193 0 217 0 m 28 1200 q -10 1216 6 1200 q -25 1256 -25 1232 q 4 1337 -25 1300 q 83 1395 33 1374 q 193 1417 133 1417 q 299 1397 250 1417 q 378 1340 347 1376 q 410 1254 408 1303 q 395 1216 410 1232 q 358 1200 381 1200 q 321 1214 336 1200 q 306 1250 306 1228 q 275 1304 306 1282 q 193 1326 244 1326 q 111 1303 143 1326 q 79 1250 79 1281 q 64 1214 79 1228 q 28 1200 49 1200 z "},"Ī":{"ha":386,"x_min":-42,"x_max":426,"o":"m 193 0 q 154 15 169 0 q 139 54 139 31 l 139 1031 q 154 1069 139 1054 q 193 1085 169 1085 q 232 1069 217 1085 q 247 1031 247 1054 l 247 54 q 232 15 247 31 q 193 0 217 0 m 13 1236 q -26 1249 -10 1236 q -42 1286 -42 1263 q -26 1322 -42 1308 q 13 1336 -10 1336 l 372 1336 q 410 1322 394 1336 q 426 1286 426 1308 q 410 1249 426 1263 q 372 1236 394 1236 l 13 1236 z "},"Į":{"ha":386,"x_min":31,"x_max":356,"o":"m 193 0 q 154 15 169 0 q 139 54 139 31 l 139 1031 q 154 1069 139 1054 q 193 1085 169 1085 q 232 1069 217 1085 q 247 1031 247 1054 l 247 54 q 232 15 247 31 q 193 0 217 0 m 193 -364 q 113 -342 150 -364 q 53 -283 75 -321 q 31 -201 31 -246 q 99 -68 31 -125 q 129 -41 118 -54 q 146 -14 140 -28 q 193 14 163 14 q 231 -1 217 14 q 247 -39 246 -15 q 226 -97 247 -68 q 161 -157 204 -125 q 144 -178 150 -165 q 139 -201 139 -190 q 155 -240 139 -224 q 193 -256 171 -256 q 208 -253 200 -256 q 222 -247 217 -251 l 269 -212 q 301 -201 285 -201 q 340 -217 325 -201 q 356 -256 356 -232 q 338 -299 356 -281 l 282 -335 q 193 -364 240 -364 z "},"Ĩ":{"ha":386,"x_min":-36,"x_max":407,"o":"m 193 0 q 154 15 169 0 q 139 54 139 31 l 139 1031 q 154 1069 139 1054 q 193 1085 169 1085 q 232 1069 217 1085 q 247 1031 247 1054 l 247 54 q 232 15 247 31 q 193 0 217 0 m 282 1217 q 219 1233 247 1217 q 174 1268 192 1249 q 141 1297 154 1288 q 111 1306 128 1306 q 83 1292 94 1306 q 58 1254 71 1278 q 31 1229 49 1236 q -4 1229 14 1222 q -30 1254 -24 1236 q -26 1292 -36 1272 q 31 1370 -1 1346 q 106 1394 64 1394 q 170 1377 146 1394 q 215 1342 194 1360 q 250 1315 238 1322 q 272 1308 263 1308 q 307 1342 292 1308 q 335 1369 317 1361 q 369 1372 353 1378 q 399 1346 392 1364 q 397 1308 407 1328 q 345 1238 374 1258 q 282 1217 317 1217 z "},"J":{"ha":853,"x_min":63,"x_max":714,"o":"m 389 -14 q 222 29 296 -14 q 106 146 149 72 q 63 311 63 219 q 78 350 63 335 q 117 365 93 365 q 156 350 140 365 q 171 311 171 335 q 200 198 171 249 q 278 118 229 147 q 389 89 328 89 q 499 119 450 89 q 577 199 549 149 q 606 311 606 249 l 606 1031 q 621 1069 606 1054 q 660 1085 636 1085 q 699 1069 683 1085 q 714 1031 714 1054 l 714 311 q 671 146 714 219 q 554 29 628 72 q 389 -14 481 -14 z "},"Ĵ":{"ha":853,"x_min":63,"x_max":876,"o":"m 389 -14 q 222 29 296 -14 q 106 146 149 72 q 63 311 63 219 q 78 350 63 335 q 117 365 93 365 q 156 350 140 365 q 171 311 171 335 q 200 198 171 249 q 278 118 229 147 q 389 89 328 89 q 499 119 450 89 q 577 199 549 149 q 606 311 606 249 l 606 1031 q 621 1069 606 1054 q 660 1085 636 1085 q 699 1069 683 1085 q 714 1031 714 1054 l 714 311 q 671 146 714 219 q 554 29 628 72 q 389 -14 481 -14 m 499 1206 q 459 1219 475 1206 q 443 1254 443 1232 q 469 1301 443 1283 l 633 1410 q 660 1417 644 1417 q 675 1415 668 1417 q 688 1410 682 1413 l 850 1301 q 876 1254 876 1283 q 861 1219 876 1233 q 822 1206 846 1206 q 805 1208 813 1206 q 789 1217 797 1211 l 660 1306 l 531 1217 q 499 1206 515 1206 z "},"K":{"ha":910,"x_min":139,"x_max":847,"o":"m 193 0 q 155 16 171 0 q 139 54 139 32 l 139 1031 q 155 1069 139 1053 q 193 1085 171 1085 q 231 1069 215 1085 q 247 1031 247 1053 l 247 558 l 754 1065 q 775 1081 765 1076 q 797 1085 785 1085 q 835 1069 822 1085 q 847 1033 847 1054 q 829 992 846 1011 l 449 611 l 833 86 q 844 48 846 68 q 828 14 842 28 q 794 0 814 0 q 749 24 764 0 l 371 535 l 247 410 l 247 54 q 231 16 247 32 q 193 0 215 0 z "},"Ķ":{"ha":910,"x_min":139,"x_max":847,"o":"m 193 0 q 155 16 171 0 q 139 54 139 32 l 139 1031 q 155 1069 139 1053 q 193 1085 171 1085 q 231 1069 215 1085 q 247 1031 247 1053 l 247 558 l 754 1065 q 775 1081 765 1076 q 797 1085 785 1085 q 835 1069 822 1085 q 847 1033 847 1054 q 829 992 846 1011 l 449 611 l 833 86 q 844 48 846 68 q 828 14 842 28 q 794 0 814 0 q 749 24 764 0 l 371 535 l 247 410 l 247 54 q 231 16 247 32 q 193 0 215 0 m 464 -331 q 389 -319 428 -331 q 323 -285 350 -307 q 296 -232 296 -262 q 307 -203 296 -214 q 336 -193 318 -193 q 369 -201 356 -193 q 394 -222 382 -210 q 423 -242 406 -233 q 471 -250 440 -250 q 531 -235 511 -250 q 551 -190 551 -219 q 528 -149 551 -165 q 456 -133 506 -133 q 410 -124 426 -133 q 393 -94 393 -114 q 458 -54 393 -54 q 585 -92 536 -54 q 633 -190 633 -131 q 584 -292 633 -254 q 464 -331 535 -331 z "},"L":{"ha":879,"x_min":139,"x_max":844,"o":"m 193 0 q 155 15 171 0 q 139 54 139 31 l 139 1031 q 155 1069 139 1053 q 193 1085 171 1085 q 231 1069 215 1085 q 247 1031 247 1053 l 247 103 l 790 103 q 828 88 813 103 q 844 51 844 74 q 828 15 844 29 q 790 0 813 0 l 193 0 z "},"Ĺ":{"ha":879,"x_min":129,"x_max":844,"o":"m 193 0 q 155 15 171 0 q 139 54 139 31 l 139 1031 q 155 1069 139 1053 q 193 1085 171 1085 q 231 1069 215 1085 q 247 1031 247 1053 l 247 103 l 790 103 q 828 88 813 103 q 844 51 844 74 q 828 15 844 29 q 790 0 813 0 l 193 0 m 183 1200 q 145 1216 161 1200 q 129 1254 129 1232 q 142 1290 129 1276 l 299 1447 q 336 1463 314 1463 q 375 1447 360 1463 q 390 1407 390 1431 q 387 1388 390 1397 q 375 1371 383 1378 l 219 1214 q 183 1200 206 1200 z "},"Ľ":{"ha":879,"x_min":139,"x_max":844,"o":"m 193 0 q 155 15 171 0 q 139 54 139 31 l 139 1031 q 155 1069 139 1053 q 193 1085 171 1085 q 231 1069 215 1085 q 247 1031 247 1053 l 247 103 l 790 103 q 828 88 813 103 q 844 51 844 74 q 828 15 844 29 q 790 0 813 0 l 193 0 m 532 728 q 510 740 518 731 q 504 763 503 749 q 521 801 507 779 q 550 849 535 822 q 569 914 565 876 q 566 957 572 940 q 553 991 560 974 q 546 1035 546 1008 q 565 1077 546 1065 q 610 1089 583 1089 q 670 1048 651 1089 q 681 953 689 1007 q 658 875 675 915 q 617 800 640 835 q 570 745 593 765 q 532 728 547 725 z "},"Ļ":{"ha":879,"x_min":139,"x_max":844,"o":"m 193 0 q 155 15 171 0 q 139 54 139 31 l 139 1031 q 155 1069 139 1053 q 193 1085 171 1085 q 231 1069 215 1085 q 247 1031 247 1053 l 247 103 l 790 103 q 828 88 813 103 q 844 51 844 74 q 828 15 844 29 q 790 0 813 0 l 193 0 m 461 -331 q 386 -319 425 -331 q 320 -285 347 -307 q 293 -232 293 -262 q 304 -203 293 -214 q 333 -193 315 -193 q 366 -201 353 -193 q 391 -222 379 -210 q 420 -242 403 -233 q 468 -250 438 -250 q 528 -235 508 -250 q 549 -190 549 -219 q 526 -149 549 -165 q 453 -133 503 -133 q 407 -124 424 -133 q 390 -94 390 -114 q 456 -54 390 -54 q 582 -92 533 -54 q 631 -190 631 -131 q 581 -292 631 -254 q 461 -331 532 -331 z "},"Ŀ":{"ha":814,"x_min":139,"x_max":844,"o":"m 193 0 q 155 15 171 0 q 139 54 139 31 l 139 1031 q 155 1069 139 1053 q 193 1085 171 1085 q 231 1069 215 1085 q 247 1031 247 1053 l 247 103 l 790 103 q 828 88 813 103 q 844 51 844 74 q 828 15 844 29 q 790 0 813 0 l 193 0 m 611 435 q 553 458 578 435 q 529 515 529 481 q 553 574 529 550 q 611 597 576 597 q 667 573 644 597 q 690 515 690 549 q 667 458 690 482 q 611 435 644 435 z "},"Ł":{"ha":922,"x_min":17,"x_max":868,"o":"m 217 0 q 178 15 193 0 q 163 54 163 31 l 163 415 l 108 361 q 71 346 94 346 q 33 361 50 346 q 17 400 17 376 q 32 439 17 422 l 163 568 l 163 1031 q 178 1069 163 1054 q 217 1085 193 1085 q 255 1069 239 1085 q 271 1031 271 1054 l 271 674 l 431 831 q 448 842 439 838 q 469 847 457 847 q 508 831 492 847 q 524 792 524 814 q 507 754 524 771 l 271 522 l 271 108 l 814 108 q 852 92 836 108 q 868 54 868 76 q 852 15 868 31 q 814 0 836 0 l 217 0 z "},"M":{"ha":1363,"x_min":139,"x_max":1224,"o":"m 193 0 q 155 16 171 0 q 139 54 139 32 l 139 1031 q 155 1069 139 1054 q 193 1085 171 1085 q 242 1057 226 1085 l 710 126 l 663 126 l 1122 1057 q 1171 1085 1139 1085 q 1208 1069 1193 1085 q 1224 1031 1224 1054 l 1224 54 q 1208 16 1224 32 q 1171 0 1193 0 q 1131 16 1147 0 q 1115 54 1115 32 l 1115 890 l 1139 889 l 729 51 q 682 25 714 25 q 632 58 647 25 l 219 883 l 247 890 l 247 54 q 231 16 247 32 q 193 0 215 0 z "},"N":{"ha":1146,"x_min":139,"x_max":1007,"o":"m 193 0 q 154 15 169 0 q 139 54 139 31 l 139 1031 q 154 1069 139 1054 q 193 1085 169 1085 q 235 1065 218 1085 l 899 193 l 899 1031 q 914 1069 899 1054 q 953 1085 929 1085 q 991 1069 975 1085 q 1007 1031 1007 1054 l 1007 54 q 991 15 1007 31 q 953 0 975 0 q 931 4 942 0 q 913 18 919 8 l 247 890 l 247 54 q 231 15 247 31 q 193 0 215 0 z "},"Ń":{"ha":1146,"x_min":139,"x_max":1007,"o":"m 193 0 q 154 15 169 0 q 139 54 139 31 l 139 1031 q 154 1069 139 1054 q 193 1085 169 1085 q 235 1065 218 1085 l 899 193 l 899 1031 q 914 1069 899 1054 q 953 1085 929 1085 q 991 1069 975 1085 q 1007 1031 1007 1054 l 1007 54 q 991 15 1007 31 q 953 0 975 0 q 931 4 942 0 q 913 18 919 8 l 247 890 l 247 54 q 231 15 247 31 q 193 0 215 0 m 564 1200 q 526 1216 542 1200 q 510 1254 510 1232 q 522 1290 510 1276 l 679 1447 q 717 1463 694 1463 q 756 1447 740 1463 q 771 1407 771 1431 q 767 1388 771 1397 q 756 1371 764 1378 l 600 1214 q 564 1200 586 1200 z "},"Ň":{"ha":1146,"x_min":139,"x_max":1007,"o":"m 193 0 q 154 15 169 0 q 139 54 139 31 l 139 1031 q 154 1069 139 1054 q 193 1085 169 1085 q 235 1065 218 1085 l 899 193 l 899 1031 q 914 1069 899 1054 q 953 1085 929 1085 q 991 1069 975 1085 q 1007 1031 1007 1054 l 1007 54 q 991 15 1007 31 q 953 0 975 0 q 931 4 942 0 q 913 18 919 8 l 247 890 l 247 54 q 231 15 247 31 q 193 0 215 0 m 574 1213 q 547 1219 556 1213 l 383 1328 q 357 1374 357 1346 q 383 1411 357 1400 q 444 1399 410 1422 l 574 1311 l 703 1397 q 766 1411 742 1424 q 790 1374 790 1399 q 764 1328 790 1346 l 601 1219 q 574 1213 592 1213 z "},"Ņ":{"ha":1146,"x_min":139,"x_max":1007,"o":"m 193 0 q 154 15 169 0 q 139 54 139 31 l 139 1031 q 154 1069 139 1054 q 193 1085 169 1085 q 235 1065 218 1085 l 899 193 l 899 1031 q 914 1069 899 1054 q 953 1085 929 1085 q 991 1069 975 1085 q 1007 1031 1007 1054 l 1007 54 q 991 15 1007 31 q 953 0 975 0 q 931 4 942 0 q 913 18 919 8 l 247 890 l 247 54 q 231 15 247 31 q 193 0 215 0 m 581 -331 q 506 -319 544 -331 q 440 -285 467 -307 q 413 -232 413 -262 q 424 -203 413 -214 q 453 -193 435 -193 q 485 -201 472 -193 q 510 -222 499 -210 q 540 -242 522 -233 q 588 -250 557 -250 q 648 -235 628 -250 q 668 -190 668 -219 q 645 -149 668 -165 q 572 -133 622 -133 q 526 -124 543 -133 q 510 -94 510 -114 q 575 -54 510 -54 q 701 -92 653 -54 q 750 -190 750 -131 q 701 -292 750 -254 q 581 -331 651 -331 z "},"Ŋ":{"ha":994,"x_min":139,"x_max":897,"o":"m 588 -12 q 480 6 531 -12 q 392 58 429 24 q 342 139 356 92 q 345 176 336 161 q 375 196 354 192 q 409 190 393 200 q 435 158 425 179 q 494 107 450 125 q 585 89 538 89 q 740 185 692 89 q 789 475 789 281 l 789 658 q 758 828 789 756 q 665 940 726 900 q 515 981 604 981 q 374 953 435 981 q 281 876 314 925 q 247 761 247 826 l 247 949 q 362 1049 293 1013 q 519 1085 431 1085 q 715 1032 629 1085 q 849 885 800 979 q 897 667 897 792 l 897 475 q 817 111 897 235 q 588 -12 736 -12 m 193 0 q 154 15 169 0 q 139 54 139 31 l 139 1031 q 154 1069 139 1054 q 193 1085 169 1085 q 231 1069 215 1085 q 247 1031 247 1054 l 247 54 q 231 15 247 31 q 193 0 215 0 z "},"Ñ":{"ha":1146,"x_min":139,"x_max":1007,"o":"m 193 0 q 154 15 169 0 q 139 54 139 31 l 139 1031 q 154 1069 139 1054 q 193 1085 169 1085 q 235 1065 218 1085 l 899 193 l 899 1031 q 914 1069 899 1054 q 953 1085 929 1085 q 991 1069 975 1085 q 1007 1031 1007 1054 l 1007 54 q 991 15 1007 31 q 953 0 975 0 q 931 4 942 0 q 913 18 919 8 l 247 890 l 247 54 q 231 15 247 31 q 193 0 215 0 m 719 1196 q 642 1212 675 1196 q 585 1242 608 1228 q 538 1267 556 1260 q 501 1274 519 1274 q 453 1262 476 1274 q 410 1225 431 1250 q 378 1201 397 1207 q 340 1206 358 1196 q 319 1235 322 1215 q 328 1274 315 1256 q 408 1342 363 1318 q 504 1367 454 1367 q 580 1351 549 1367 q 633 1322 611 1336 q 678 1297 661 1306 q 718 1289 696 1289 q 757 1296 740 1289 q 786 1317 774 1303 q 817 1338 801 1332 q 851 1333 833 1344 q 875 1303 871 1324 q 865 1264 879 1282 q 719 1196 810 1196 z "},"O":{"ha":1279,"x_min":86,"x_max":1194,"o":"m 640 -14 q 418 28 519 -14 q 242 144 317 69 q 127 321 168 219 q 86 543 86 422 q 127 764 86 663 q 242 940 168 865 q 418 1057 317 1015 q 640 1099 519 1099 q 861 1057 760 1099 q 1038 940 963 1015 q 1153 764 1113 865 q 1194 543 1194 663 q 1153 321 1194 422 q 1038 144 1113 219 q 861 28 963 69 q 640 -14 760 -14 m 640 89 q 818 123 736 89 q 960 219 900 157 q 1054 363 1021 281 q 1088 543 1088 446 q 1054 722 1088 639 q 960 866 1021 804 q 818 962 900 928 q 640 996 736 996 q 461 962 543 996 q 319 866 379 928 q 225 722 258 804 q 192 543 192 639 q 225 363 192 446 q 319 219 258 281 q 461 123 379 157 q 640 89 543 89 z "},"Ó":{"ha":1279,"x_min":86,"x_max":1194,"o":"m 640 -14 q 418 28 519 -14 q 242 144 317 69 q 127 321 168 219 q 86 543 86 422 q 127 764 86 663 q 242 940 168 865 q 418 1057 317 1015 q 640 1099 519 1099 q 861 1057 760 1099 q 1038 940 963 1015 q 1153 764 1113 865 q 1194 543 1194 663 q 1153 321 1194 422 q 1038 144 1113 219 q 861 28 963 69 q 640 -14 760 -14 m 640 89 q 818 123 736 89 q 960 219 900 157 q 1054 363 1021 281 q 1088 543 1088 446 q 1054 722 1088 639 q 960 866 1021 804 q 818 962 900 928 q 640 996 736 996 q 461 962 543 996 q 319 866 379 928 q 225 722 258 804 q 192 543 192 639 q 225 363 192 446 q 319 219 258 281 q 461 123 379 157 q 640 89 543 89 m 631 1200 q 592 1216 608 1200 q 576 1254 576 1232 q 589 1290 576 1276 l 746 1447 q 783 1463 761 1463 q 822 1447 807 1463 q 838 1407 838 1431 q 834 1388 838 1397 q 822 1371 831 1378 l 667 1214 q 631 1200 653 1200 z "},"Ŏ":{"ha":1279,"x_min":86,"x_max":1194,"o":"m 640 -14 q 418 28 519 -14 q 242 144 317 69 q 127 321 168 219 q 86 543 86 422 q 127 764 86 663 q 242 940 168 865 q 418 1057 317 1015 q 640 1099 519 1099 q 861 1057 760 1099 q 1038 940 963 1015 q 1153 764 1113 865 q 1194 543 1194 663 q 1153 321 1194 422 q 1038 144 1113 219 q 861 28 963 69 q 640 -14 760 -14 m 640 89 q 818 123 736 89 q 960 219 900 157 q 1054 363 1021 281 q 1088 543 1088 446 q 1054 722 1088 639 q 960 866 1021 804 q 818 962 900 928 q 640 996 736 996 q 461 962 543 996 q 319 866 379 928 q 225 722 258 804 q 192 543 192 639 q 225 363 192 446 q 319 219 258 281 q 461 123 379 157 q 640 89 543 89 m 639 1201 q 531 1223 581 1201 q 452 1281 482 1244 q 422 1363 422 1317 q 438 1401 422 1385 q 475 1418 453 1418 q 511 1404 496 1418 q 526 1368 526 1390 q 558 1314 526 1336 q 639 1292 590 1292 q 722 1314 692 1292 q 753 1368 753 1336 q 768 1404 753 1390 q 806 1418 783 1418 q 842 1402 828 1418 q 857 1364 857 1386 q 825 1278 856 1315 q 746 1222 794 1242 q 639 1201 697 1201 z "},"Ô":{"ha":1279,"x_min":86,"x_max":1194,"o":"m 640 -14 q 418 28 519 -14 q 242 144 317 69 q 127 321 168 219 q 86 543 86 422 q 127 764 86 663 q 242 940 168 865 q 418 1057 317 1015 q 640 1099 519 1099 q 861 1057 760 1099 q 1038 940 963 1015 q 1153 764 1113 865 q 1194 543 1194 663 q 1153 321 1194 422 q 1038 144 1113 219 q 861 28 963 69 q 640 -14 760 -14 m 640 89 q 818 123 736 89 q 960 219 900 157 q 1054 363 1021 281 q 1088 543 1088 446 q 1054 722 1088 639 q 960 866 1021 804 q 818 962 900 928 q 640 996 736 996 q 461 962 543 996 q 319 866 379 928 q 225 722 258 804 q 192 543 192 639 q 225 363 192 446 q 319 219 258 281 q 461 123 379 157 q 640 89 543 89 m 479 1206 q 440 1219 456 1206 q 424 1254 424 1232 q 450 1301 424 1283 l 614 1410 q 640 1417 625 1417 q 656 1415 649 1417 q 668 1410 663 1413 l 831 1301 q 857 1254 857 1283 q 842 1219 857 1233 q 803 1206 826 1206 q 785 1208 793 1206 q 769 1217 778 1211 l 640 1306 l 511 1217 q 479 1206 496 1206 z "},"Ố":{"ha":1279,"x_min":86,"x_max":1194,"o":"m 640 -14 q 418 28 519 -14 q 242 144 317 69 q 127 321 168 219 q 86 543 86 422 q 127 764 86 663 q 242 940 168 865 q 418 1057 317 1015 q 640 1099 519 1099 q 861 1057 760 1099 q 1038 940 963 1015 q 1153 764 1113 865 q 1194 543 1194 663 q 1153 321 1194 422 q 1038 144 1113 219 q 861 28 963 69 q 640 -14 760 -14 m 640 89 q 818 123 736 89 q 960 219 900 157 q 1054 363 1021 281 q 1088 543 1088 446 q 1054 722 1088 639 q 960 866 1021 804 q 818 962 900 928 q 640 996 736 996 q 461 962 543 996 q 319 866 379 928 q 225 722 258 804 q 192 543 192 639 q 225 363 192 446 q 319 219 258 281 q 461 123 379 157 q 640 89 543 89 m 479 1206 q 440 1219 456 1206 q 424 1254 424 1232 q 450 1301 424 1283 l 614 1410 q 640 1417 625 1417 q 656 1415 649 1417 q 668 1410 663 1413 l 831 1301 q 857 1254 857 1283 q 842 1219 857 1233 q 803 1206 826 1206 q 785 1208 793 1206 q 769 1217 778 1211 l 640 1306 l 511 1217 q 479 1206 496 1206 m 764 1435 q 726 1450 742 1435 q 710 1489 710 1465 q 722 1525 710 1510 l 879 1682 q 917 1697 894 1697 q 956 1681 942 1697 q 971 1642 971 1665 q 967 1622 971 1632 q 956 1606 964 1613 l 800 1449 q 764 1435 786 1435 z "},"Ộ":{"ha":1279,"x_min":86,"x_max":1194,"o":"m 640 -14 q 418 28 519 -14 q 242 144 317 69 q 127 321 168 219 q 86 543 86 422 q 127 764 86 663 q 242 940 168 865 q 418 1057 317 1015 q 640 1099 519 1099 q 861 1057 760 1099 q 1038 940 963 1015 q 1153 764 1113 865 q 1194 543 1194 663 q 1153 321 1194 422 q 1038 144 1113 219 q 861 28 963 69 q 640 -14 760 -14 m 640 89 q 818 123 736 89 q 960 219 900 157 q 1054 363 1021 281 q 1088 543 1088 446 q 1054 722 1088 639 q 960 866 1021 804 q 818 962 900 928 q 640 996 736 996 q 461 962 543 996 q 319 866 379 928 q 225 722 258 804 q 192 543 192 639 q 225 363 192 446 q 319 219 258 281 q 461 123 379 157 q 640 89 543 89 m 479 1206 q 440 1219 456 1206 q 424 1254 424 1232 q 450 1301 424 1283 l 614 1410 q 640 1417 625 1417 q 656 1415 649 1417 q 668 1410 663 1413 l 831 1301 q 857 1254 857 1283 q 842 1219 857 1233 q 803 1206 826 1206 q 785 1208 793 1206 q 769 1217 778 1211 l 640 1306 l 511 1217 q 479 1206 496 1206 m 639 -290 q 586 -268 608 -290 q 564 -214 564 -246 q 587 -159 564 -179 q 640 -139 610 -139 q 692 -159 669 -139 q 715 -214 715 -179 q 693 -268 715 -246 q 639 -290 671 -290 z "},"Ồ":{"ha":1279,"x_min":86,"x_max":1194,"o":"m 640 -14 q 418 28 519 -14 q 242 144 317 69 q 127 321 168 219 q 86 543 86 422 q 127 764 86 663 q 242 940 168 865 q 418 1057 317 1015 q 640 1099 519 1099 q 861 1057 760 1099 q 1038 940 963 1015 q 1153 764 1113 865 q 1194 543 1194 663 q 1153 321 1194 422 q 1038 144 1113 219 q 861 28 963 69 q 640 -14 760 -14 m 640 89 q 818 123 736 89 q 960 219 900 157 q 1054 363 1021 281 q 1088 543 1088 446 q 1054 722 1088 639 q 960 866 1021 804 q 818 962 900 928 q 640 996 736 996 q 461 962 543 996 q 319 866 379 928 q 225 722 258 804 q 192 543 192 639 q 225 363 192 446 q 319 219 258 281 q 461 123 379 157 q 640 89 543 89 m 479 1206 q 440 1219 456 1206 q 424 1254 424 1232 q 450 1301 424 1283 l 614 1410 q 640 1417 625 1417 q 656 1415 649 1417 q 668 1410 663 1413 l 831 1301 q 857 1254 857 1283 q 842 1219 857 1233 q 803 1206 826 1206 q 785 1208 793 1206 q 769 1217 778 1211 l 640 1306 l 511 1217 q 479 1206 496 1206 m 774 1443 q 738 1458 753 1443 l 581 1614 q 567 1651 567 1629 q 582 1691 567 1675 q 619 1707 597 1707 q 658 1690 642 1707 l 814 1533 q 828 1499 828 1521 q 812 1459 828 1475 q 774 1443 796 1443 z "},"Ổ":{"ha":1279,"x_min":86,"x_max":1194,"o":"m 640 -14 q 418 28 519 -14 q 242 144 317 69 q 127 321 168 219 q 86 543 86 422 q 127 764 86 663 q 242 940 168 865 q 418 1057 317 1015 q 640 1099 519 1099 q 861 1057 760 1099 q 1038 940 963 1015 q 1153 764 1113 865 q 1194 543 1194 663 q 1153 321 1194 422 q 1038 144 1113 219 q 861 28 963 69 q 640 -14 760 -14 m 640 89 q 818 123 736 89 q 960 219 900 157 q 1054 363 1021 281 q 1088 543 1088 446 q 1054 722 1088 639 q 960 866 1021 804 q 818 962 900 928 q 640 996 736 996 q 461 962 543 996 q 319 866 379 928 q 225 722 258 804 q 192 543 192 639 q 225 363 192 446 q 319 219 258 281 q 461 123 379 157 q 640 89 543 89 m 483 1206 q 444 1219 460 1206 q 428 1254 428 1232 q 454 1301 428 1283 l 618 1410 q 644 1417 629 1417 q 660 1415 653 1417 q 672 1410 667 1413 l 835 1301 q 861 1254 861 1283 q 846 1219 861 1233 q 807 1206 831 1206 q 790 1208 797 1206 q 774 1217 782 1211 l 644 1306 l 515 1217 q 483 1206 500 1206 m 778 1390 q 742 1405 757 1390 q 728 1440 728 1419 l 728 1479 q 772 1533 728 1524 l 807 1540 q 850 1563 836 1547 q 864 1601 864 1578 q 844 1649 864 1632 q 794 1665 824 1665 q 761 1659 776 1665 q 733 1643 746 1653 q 717 1633 726 1636 q 699 1631 707 1631 q 667 1642 681 1631 q 654 1675 654 1654 q 671 1713 654 1699 q 726 1744 696 1733 q 793 1756 756 1756 q 909 1715 863 1756 q 956 1608 956 1674 q 914 1510 956 1543 q 815 1469 872 1478 l 826 1451 q 812 1406 826 1422 q 778 1390 797 1390 z "},"Ỗ":{"ha":1279,"x_min":86,"x_max":1194,"o":"m 640 -14 q 418 28 519 -14 q 242 144 317 69 q 127 321 168 219 q 86 543 86 422 q 127 764 86 663 q 242 940 168 865 q 418 1057 317 1015 q 640 1099 519 1099 q 861 1057 760 1099 q 1038 940 963 1015 q 1153 764 1113 865 q 1194 543 1194 663 q 1153 321 1194 422 q 1038 144 1113 219 q 861 28 963 69 q 640 -14 760 -14 m 640 89 q 818 123 736 89 q 960 219 900 157 q 1054 363 1021 281 q 1088 543 1088 446 q 1054 722 1088 639 q 960 866 1021 804 q 818 962 900 928 q 640 996 736 996 q 461 962 543 996 q 319 866 379 928 q 225 722 258 804 q 192 543 192 639 q 225 363 192 446 q 319 219 258 281 q 461 123 379 157 q 640 89 543 89 m 482 1206 q 442 1219 458 1206 q 426 1254 426 1232 q 453 1301 426 1283 l 617 1410 q 643 1417 628 1417 q 658 1415 651 1417 q 671 1410 665 1413 l 833 1301 q 860 1254 860 1283 q 844 1219 860 1233 q 806 1206 829 1206 q 788 1208 796 1206 q 772 1217 781 1211 l 643 1306 l 514 1217 q 482 1206 499 1206 m 725 1454 q 663 1470 690 1454 q 617 1506 636 1486 q 583 1533 597 1524 q 554 1543 569 1543 q 526 1529 538 1543 q 501 1492 514 1515 q 474 1467 492 1474 q 439 1467 457 1460 q 414 1492 421 1474 q 417 1529 407 1510 q 475 1608 443 1583 q 549 1632 507 1632 q 613 1615 589 1632 q 658 1579 638 1597 q 694 1553 682 1560 q 715 1546 706 1546 q 750 1579 735 1546 q 777 1606 760 1597 q 813 1610 794 1615 q 843 1583 835 1601 q 840 1546 851 1565 q 789 1476 817 1497 q 725 1454 761 1454 z "},"Ȍ":{"ha":1279,"x_min":86,"x_max":1194,"o":"m 640 -14 q 418 28 519 -14 q 242 144 317 69 q 127 321 168 219 q 86 543 86 422 q 127 764 86 663 q 242 940 168 865 q 418 1057 317 1015 q 640 1099 519 1099 q 861 1057 760 1099 q 1038 940 963 1015 q 1153 764 1113 865 q 1194 543 1194 663 q 1153 321 1194 422 q 1038 144 1113 219 q 861 28 963 69 q 640 -14 760 -14 m 640 89 q 818 123 736 89 q 960 219 900 157 q 1054 363 1021 281 q 1088 543 1088 446 q 1054 722 1088 639 q 960 866 1021 804 q 818 962 900 928 q 640 996 736 996 q 461 962 543 996 q 319 866 379 928 q 225 722 258 804 q 192 543 192 639 q 225 363 192 446 q 319 219 258 281 q 461 123 379 157 q 640 89 543 89 m 789 1192 q 750 1218 764 1192 l 665 1397 q 661 1418 661 1407 q 676 1454 661 1438 q 717 1471 692 1471 q 747 1462 733 1471 q 767 1438 761 1453 l 825 1249 q 828 1232 828 1242 q 815 1202 828 1213 q 789 1192 803 1192 m 579 1192 q 540 1218 553 1192 l 456 1397 q 452 1408 453 1403 q 451 1418 451 1413 q 467 1454 451 1438 q 506 1471 482 1471 q 536 1462 522 1471 q 554 1438 550 1453 l 615 1249 q 617 1240 617 1244 q 618 1232 618 1236 q 606 1202 618 1213 q 579 1192 593 1192 z "},"Ö":{"ha":1279,"x_min":86,"x_max":1194,"o":"m 640 -14 q 418 28 519 -14 q 242 144 317 69 q 127 321 168 219 q 86 543 86 422 q 127 764 86 663 q 242 940 168 865 q 418 1057 317 1015 q 640 1099 519 1099 q 861 1057 760 1099 q 1038 940 963 1015 q 1153 764 1113 865 q 1194 543 1194 663 q 1153 321 1194 422 q 1038 144 1113 219 q 861 28 963 69 q 640 -14 760 -14 m 640 89 q 818 123 736 89 q 960 219 900 157 q 1054 363 1021 281 q 1088 543 1088 446 q 1054 722 1088 639 q 960 866 1021 804 q 818 962 900 928 q 640 996 736 996 q 461 962 543 996 q 319 866 379 928 q 225 722 258 804 q 192 543 192 639 q 225 363 192 446 q 319 219 258 281 q 461 123 379 157 q 640 89 543 89 m 496 1224 q 441 1245 463 1224 q 419 1300 419 1267 q 441 1353 419 1331 q 496 1376 463 1376 q 550 1353 528 1376 q 572 1300 572 1331 q 550 1245 572 1267 q 496 1224 528 1224 m 786 1224 q 731 1245 753 1224 q 710 1300 710 1267 q 731 1353 710 1331 q 786 1376 753 1376 q 840 1353 818 1376 q 863 1300 863 1331 q 840 1245 863 1267 q 786 1224 818 1224 z "},"Ȫ":{"ha":1279,"x_min":86,"x_max":1194,"o":"m 640 -14 q 418 28 519 -14 q 242 144 317 69 q 127 321 168 219 q 86 543 86 422 q 127 764 86 663 q 242 940 168 865 q 418 1057 317 1015 q 640 1099 519 1099 q 861 1057 760 1099 q 1038 940 963 1015 q 1153 764 1113 865 q 1194 543 1194 663 q 1153 321 1194 422 q 1038 144 1113 219 q 861 28 963 69 q 640 -14 760 -14 m 640 89 q 818 123 736 89 q 960 219 900 157 q 1054 363 1021 281 q 1088 543 1088 446 q 1054 722 1088 639 q 960 866 1021 804 q 818 962 900 928 q 640 996 736 996 q 461 962 543 996 q 319 866 379 928 q 225 722 258 804 q 192 543 192 639 q 225 363 192 446 q 319 219 258 281 q 461 123 379 157 q 640 89 543 89 m 496 1224 q 441 1245 463 1224 q 419 1300 419 1267 q 441 1353 419 1331 q 496 1376 463 1376 q 550 1353 528 1376 q 572 1300 572 1331 q 550 1245 572 1267 q 496 1224 528 1224 m 786 1224 q 731 1245 753 1224 q 710 1300 710 1267 q 731 1353 710 1331 q 786 1376 753 1376 q 840 1353 818 1376 q 863 1300 863 1331 q 840 1245 863 1267 q 786 1224 818 1224 m 460 1503 q 422 1516 438 1503 q 406 1553 406 1529 q 422 1589 406 1575 q 460 1603 438 1603 l 819 1603 q 858 1589 842 1603 q 874 1553 874 1575 q 858 1516 874 1529 q 819 1503 842 1503 l 460 1503 z "},"Ȱ":{"ha":1279,"x_min":86,"x_max":1194,"o":"m 640 -14 q 418 28 519 -14 q 242 144 317 69 q 127 321 168 219 q 86 543 86 422 q 127 764 86 663 q 242 940 168 865 q 418 1057 317 1015 q 640 1099 519 1099 q 861 1057 760 1099 q 1038 940 963 1015 q 1153 764 1113 865 q 1194 543 1194 663 q 1153 321 1194 422 q 1038 144 1113 219 q 861 28 963 69 q 640 -14 760 -14 m 640 89 q 818 123 736 89 q 960 219 900 157 q 1054 363 1021 281 q 1088 543 1088 446 q 1054 722 1088 639 q 960 866 1021 804 q 818 962 900 928 q 640 996 736 996 q 461 962 543 996 q 319 866 379 928 q 225 722 258 804 q 192 543 192 639 q 225 363 192 446 q 319 219 258 281 q 461 123 379 157 q 640 89 543 89 m 639 1229 q 586 1251 608 1229 q 564 1306 564 1274 q 587 1360 564 1340 q 640 1381 610 1381 q 692 1360 669 1381 q 715 1306 715 1340 q 693 1251 715 1274 q 639 1229 671 1229 m 460 1469 q 422 1483 438 1469 q 406 1519 406 1496 q 422 1556 406 1542 q 460 1569 438 1569 l 819 1569 q 858 1556 842 1569 q 874 1519 874 1542 q 858 1483 874 1496 q 819 1469 842 1469 l 460 1469 z "},"Ọ":{"ha":1279,"x_min":86,"x_max":1194,"o":"m 640 -14 q 418 28 519 -14 q 242 144 317 69 q 127 321 168 219 q 86 543 86 422 q 127 764 86 663 q 242 940 168 865 q 418 1057 317 1015 q 640 1099 519 1099 q 861 1057 760 1099 q 1038 940 963 1015 q 1153 764 1113 865 q 1194 543 1194 663 q 1153 321 1194 422 q 1038 144 1113 219 q 861 28 963 69 q 640 -14 760 -14 m 640 89 q 818 123 736 89 q 960 219 900 157 q 1054 363 1021 281 q 1088 543 1088 446 q 1054 722 1088 639 q 960 866 1021 804 q 818 962 900 928 q 640 996 736 996 q 461 962 543 996 q 319 866 379 928 q 225 722 258 804 q 192 543 192 639 q 225 363 192 446 q 319 219 258 281 q 461 123 379 157 q 640 89 543 89 m 639 -290 q 586 -268 608 -290 q 564 -214 564 -246 q 587 -159 564 -179 q 640 -139 610 -139 q 692 -159 669 -139 q 715 -214 715 -179 q 693 -268 715 -246 q 639 -290 671 -290 z "},"Ò":{"ha":1279,"x_min":86,"x_max":1194,"o":"m 640 -14 q 418 28 519 -14 q 242 144 317 69 q 127 321 168 219 q 86 543 86 422 q 127 764 86 663 q 242 940 168 865 q 418 1057 317 1015 q 640 1099 519 1099 q 861 1057 760 1099 q 1038 940 963 1015 q 1153 764 1113 865 q 1194 543 1194 663 q 1153 321 1194 422 q 1038 144 1113 219 q 861 28 963 69 q 640 -14 760 -14 m 640 89 q 818 123 736 89 q 960 219 900 157 q 1054 363 1021 281 q 1088 543 1088 446 q 1054 722 1088 639 q 960 866 1021 804 q 818 962 900 928 q 640 996 736 996 q 461 962 543 996 q 319 866 379 928 q 225 722 258 804 q 192 543 192 639 q 225 363 192 446 q 319 219 258 281 q 461 123 379 157 q 640 89 543 89 m 639 1208 q 603 1224 618 1208 l 446 1379 q 432 1417 432 1396 q 447 1456 432 1440 q 485 1472 463 1472 q 524 1456 507 1472 l 679 1299 q 693 1264 693 1288 q 678 1224 693 1240 q 639 1208 663 1208 z "},"Ỏ":{"ha":1279,"x_min":86,"x_max":1194,"o":"m 640 -14 q 418 28 519 -14 q 242 144 317 69 q 127 321 168 219 q 86 543 86 422 q 127 764 86 663 q 242 940 168 865 q 418 1057 317 1015 q 640 1099 519 1099 q 861 1057 760 1099 q 1038 940 963 1015 q 1153 764 1113 865 q 1194 543 1194 663 q 1153 321 1194 422 q 1038 144 1113 219 q 861 28 963 69 q 640 -14 760 -14 m 640 89 q 818 123 736 89 q 960 219 900 157 q 1054 363 1021 281 q 1088 543 1088 446 q 1054 722 1088 639 q 960 866 1021 804 q 818 962 900 928 q 640 996 736 996 q 461 962 543 996 q 319 866 379 928 q 225 722 258 804 q 192 543 192 639 q 225 363 192 446 q 319 219 258 281 q 461 123 379 157 q 640 89 543 89 m 639 1156 q 603 1170 618 1156 q 589 1206 589 1185 l 589 1244 q 633 1299 589 1289 l 668 1306 q 711 1327 697 1313 q 725 1367 725 1342 q 705 1414 725 1397 q 656 1431 685 1431 q 622 1424 638 1431 q 594 1408 607 1418 q 578 1399 588 1403 q 560 1396 569 1396 q 528 1408 542 1396 q 515 1440 515 1419 q 532 1478 515 1464 q 588 1510 558 1499 q 654 1521 618 1521 q 770 1480 724 1521 q 817 1374 817 1439 q 775 1276 817 1308 q 676 1235 733 1243 l 688 1217 q 673 1172 688 1188 q 639 1156 658 1156 z "},"Ơ":{"ha":1279,"x_min":86,"x_max":1194,"o":"m 640 -14 q 418 28 519 -14 q 242 144 317 69 q 127 321 168 219 q 86 543 86 422 q 127 764 86 663 q 242 940 168 865 q 418 1057 317 1015 q 640 1099 519 1099 q 861 1057 760 1099 q 1038 940 963 1015 q 1153 764 1113 865 q 1194 543 1194 663 q 1153 321 1194 422 q 1038 144 1113 219 q 861 28 963 69 q 640 -14 760 -14 m 640 89 q 818 123 736 89 q 960 219 900 157 q 1054 363 1021 281 q 1088 543 1088 446 q 1054 722 1088 639 q 960 866 1021 804 q 818 962 900 928 q 640 996 736 996 q 461 962 543 996 q 319 866 379 928 q 225 722 258 804 q 192 543 192 639 q 225 363 192 446 q 319 219 258 281 q 461 123 379 157 q 640 89 543 89 m 901 938 l 901 1036 l 963 1036 q 1005 1057 988 1036 q 1022 1113 1022 1078 l 1022 1142 q 1035 1179 1022 1164 q 1071 1194 1049 1194 q 1108 1176 1096 1194 q 1121 1133 1121 1158 l 1121 1113 q 1100 1023 1121 1063 q 1044 960 1079 983 q 963 938 1008 938 l 901 938 z "},"Ớ":{"ha":1279,"x_min":86,"x_max":1194,"o":"m 640 -14 q 418 28 519 -14 q 242 144 317 69 q 127 321 168 219 q 86 543 86 422 q 127 764 86 663 q 242 940 168 865 q 418 1057 317 1015 q 640 1099 519 1099 q 861 1057 760 1099 q 1038 940 963 1015 q 1153 764 1113 865 q 1194 543 1194 663 q 1153 321 1194 422 q 1038 144 1113 219 q 861 28 963 69 q 640 -14 760 -14 m 640 89 q 818 123 736 89 q 960 219 900 157 q 1054 363 1021 281 q 1088 543 1088 446 q 1054 722 1088 639 q 960 866 1021 804 q 818 962 900 928 q 640 996 736 996 q 461 962 543 996 q 319 866 379 928 q 225 722 258 804 q 192 543 192 639 q 225 363 192 446 q 319 219 258 281 q 461 123 379 157 q 640 89 543 89 m 901 938 l 901 1036 l 963 1036 q 1005 1057 988 1036 q 1022 1113 1022 1078 l 1022 1142 q 1035 1179 1022 1164 q 1071 1194 1049 1194 q 1108 1176 1096 1194 q 1121 1133 1121 1158 l 1121 1113 q 1100 1023 1121 1063 q 1044 960 1079 983 q 963 938 1008 938 l 901 938 m 631 1200 q 592 1216 608 1200 q 576 1254 576 1232 q 589 1290 576 1276 l 746 1447 q 783 1463 761 1463 q 822 1447 807 1463 q 838 1407 838 1431 q 834 1388 838 1397 q 822 1371 831 1378 l 667 1214 q 631 1200 653 1200 z "},"Ợ":{"ha":1279,"x_min":86,"x_max":1194,"o":"m 640 -14 q 418 28 519 -14 q 242 144 317 69 q 127 321 168 219 q 86 543 86 422 q 127 764 86 663 q 242 940 168 865 q 418 1057 317 1015 q 640 1099 519 1099 q 861 1057 760 1099 q 1038 940 963 1015 q 1153 764 1113 865 q 1194 543 1194 663 q 1153 321 1194 422 q 1038 144 1113 219 q 861 28 963 69 q 640 -14 760 -14 m 640 89 q 818 123 736 89 q 960 219 900 157 q 1054 363 1021 281 q 1088 543 1088 446 q 1054 722 1088 639 q 960 866 1021 804 q 818 962 900 928 q 640 996 736 996 q 461 962 543 996 q 319 866 379 928 q 225 722 258 804 q 192 543 192 639 q 225 363 192 446 q 319 219 258 281 q 461 123 379 157 q 640 89 543 89 m 901 938 l 901 1036 l 963 1036 q 1005 1057 988 1036 q 1022 1113 1022 1078 l 1022 1142 q 1035 1179 1022 1164 q 1071 1194 1049 1194 q 1108 1176 1096 1194 q 1121 1133 1121 1158 l 1121 1113 q 1100 1023 1121 1063 q 1044 960 1079 983 q 963 938 1008 938 l 901 938 m 639 -290 q 586 -268 608 -290 q 564 -214 564 -246 q 587 -159 564 -179 q 640 -139 610 -139 q 692 -159 669 -139 q 715 -214 715 -179 q 693 -268 715 -246 q 639 -290 671 -290 z "},"Ờ":{"ha":1279,"x_min":86,"x_max":1194,"o":"m 640 -14 q 418 28 519 -14 q 242 144 317 69 q 127 321 168 219 q 86 543 86 422 q 127 764 86 663 q 242 940 168 865 q 418 1057 317 1015 q 640 1099 519 1099 q 861 1057 760 1099 q 1038 940 963 1015 q 1153 764 1113 865 q 1194 543 1194 663 q 1153 321 1194 422 q 1038 144 1113 219 q 861 28 963 69 q 640 -14 760 -14 m 640 89 q 818 123 736 89 q 960 219 900 157 q 1054 363 1021 281 q 1088 543 1088 446 q 1054 722 1088 639 q 960 866 1021 804 q 818 962 900 928 q 640 996 736 996 q 461 962 543 996 q 319 866 379 928 q 225 722 258 804 q 192 543 192 639 q 225 363 192 446 q 319 219 258 281 q 461 123 379 157 q 640 89 543 89 m 901 938 l 901 1036 l 963 1036 q 1005 1057 988 1036 q 1022 1113 1022 1078 l 1022 1142 q 1035 1179 1022 1164 q 1071 1194 1049 1194 q 1108 1176 1096 1194 q 1121 1133 1121 1158 l 1121 1113 q 1100 1023 1121 1063 q 1044 960 1079 983 q 963 938 1008 938 l 901 938 m 639 1208 q 603 1224 618 1208 l 446 1379 q 432 1417 432 1396 q 447 1456 432 1440 q 485 1472 463 1472 q 524 1456 507 1472 l 679 1299 q 693 1264 693 1288 q 678 1224 693 1240 q 639 1208 663 1208 z "},"Ở":{"ha":1279,"x_min":86,"x_max":1194,"o":"m 640 -14 q 418 28 519 -14 q 242 144 317 69 q 127 321 168 219 q 86 543 86 422 q 127 764 86 663 q 242 940 168 865 q 418 1057 317 1015 q 640 1099 519 1099 q 861 1057 760 1099 q 1038 940 963 1015 q 1153 764 1113 865 q 1194 543 1194 663 q 1153 321 1194 422 q 1038 144 1113 219 q 861 28 963 69 q 640 -14 760 -14 m 640 89 q 818 123 736 89 q 960 219 900 157 q 1054 363 1021 281 q 1088 543 1088 446 q 1054 722 1088 639 q 960 866 1021 804 q 818 962 900 928 q 640 996 736 996 q 461 962 543 996 q 319 866 379 928 q 225 722 258 804 q 192 543 192 639 q 225 363 192 446 q 319 219 258 281 q 461 123 379 157 q 640 89 543 89 m 901 938 l 901 1036 l 963 1036 q 1005 1057 988 1036 q 1022 1113 1022 1078 l 1022 1142 q 1035 1179 1022 1164 q 1071 1194 1049 1194 q 1108 1176 1096 1194 q 1121 1133 1121 1158 l 1121 1113 q 1100 1023 1121 1063 q 1044 960 1079 983 q 963 938 1008 938 l 901 938 m 639 1156 q 603 1170 618 1156 q 589 1206 589 1185 l 589 1244 q 633 1299 589 1289 l 668 1306 q 711 1327 697 1313 q 725 1367 725 1342 q 705 1414 725 1397 q 656 1431 685 1431 q 622 1424 638 1431 q 594 1408 607 1418 q 578 1399 588 1403 q 560 1396 569 1396 q 528 1408 542 1396 q 515 1440 515 1419 q 532 1478 515 1464 q 588 1510 558 1499 q 654 1521 618 1521 q 770 1480 724 1521 q 817 1374 817 1439 q 775 1276 817 1308 q 676 1235 733 1243 l 688 1217 q 673 1172 688 1188 q 639 1156 658 1156 z "},"Ỡ":{"ha":1279,"x_min":86,"x_max":1194,"o":"m 640 -14 q 418 28 519 -14 q 242 144 317 69 q 127 321 168 219 q 86 543 86 422 q 127 764 86 663 q 242 940 168 865 q 418 1057 317 1015 q 640 1099 519 1099 q 861 1057 760 1099 q 1038 940 963 1015 q 1153 764 1113 865 q 1194 543 1194 663 q 1153 321 1194 422 q 1038 144 1113 219 q 861 28 963 69 q 640 -14 760 -14 m 640 89 q 818 123 736 89 q 960 219 900 157 q 1054 363 1021 281 q 1088 543 1088 446 q 1054 722 1088 639 q 960 866 1021 804 q 818 962 900 928 q 640 996 736 996 q 461 962 543 996 q 319 866 379 928 q 225 722 258 804 q 192 543 192 639 q 225 363 192 446 q 319 219 258 281 q 461 123 379 157 q 640 89 543 89 m 901 938 l 901 1036 l 963 1036 q 1005 1057 988 1036 q 1022 1113 1022 1078 l 1022 1142 q 1035 1179 1022 1164 q 1071 1194 1049 1194 q 1108 1176 1096 1194 q 1121 1133 1121 1158 l 1121 1113 q 1100 1023 1121 1063 q 1044 960 1079 983 q 963 938 1008 938 l 901 938 m 786 1196 q 708 1212 742 1196 q 651 1242 675 1228 q 604 1267 622 1260 q 568 1274 586 1274 q 520 1262 543 1274 q 476 1225 497 1250 q 444 1201 464 1207 q 407 1206 425 1196 q 385 1235 389 1215 q 394 1274 382 1256 q 475 1342 429 1318 q 571 1367 521 1367 q 647 1351 615 1367 q 700 1322 678 1336 q 745 1297 728 1306 q 785 1289 763 1289 q 824 1296 807 1289 q 853 1317 840 1303 q 884 1338 868 1332 q 918 1333 900 1344 q 942 1303 938 1324 q 932 1264 946 1282 q 786 1196 876 1196 z "},"Ő":{"ha":1279,"x_min":86,"x_max":1194,"o":"m 640 -14 q 418 28 519 -14 q 242 144 317 69 q 127 321 168 219 q 86 543 86 422 q 127 764 86 663 q 242 940 168 865 q 418 1057 317 1015 q 640 1099 519 1099 q 861 1057 760 1099 q 1038 940 963 1015 q 1153 764 1113 865 q 1194 543 1194 663 q 1153 321 1194 422 q 1038 144 1113 219 q 861 28 963 69 q 640 -14 760 -14 m 640 89 q 818 123 736 89 q 960 219 900 157 q 1054 363 1021 281 q 1088 543 1088 446 q 1054 722 1088 639 q 960 866 1021 804 q 818 962 900 928 q 640 996 736 996 q 461 962 543 996 q 319 866 379 928 q 225 722 258 804 q 192 543 192 639 q 225 363 192 446 q 319 219 258 281 q 461 123 379 157 q 640 89 543 89 m 742 1192 q 715 1202 728 1192 q 703 1232 703 1213 q 703 1240 703 1236 q 706 1249 704 1244 l 767 1438 q 785 1462 771 1453 q 815 1471 799 1471 q 854 1454 839 1471 q 869 1417 869 1438 q 869 1408 869 1413 q 865 1397 868 1403 l 781 1218 q 742 1192 768 1192 m 532 1192 q 506 1202 518 1192 q 493 1232 493 1213 q 494 1240 493 1236 q 496 1249 494 1244 l 554 1438 q 574 1462 560 1453 q 604 1471 588 1471 q 644 1454 629 1471 q 660 1417 660 1438 q 656 1397 660 1408 l 571 1218 q 532 1192 558 1192 z "},"Ȏ":{"ha":1279,"x_min":86,"x_max":1194,"o":"m 640 -14 q 418 28 519 -14 q 242 144 317 69 q 127 321 168 219 q 86 543 86 422 q 127 764 86 663 q 242 940 168 865 q 418 1057 317 1015 q 640 1099 519 1099 q 861 1057 760 1099 q 1038 940 963 1015 q 1153 764 1113 865 q 1194 543 1194 663 q 1153 321 1194 422 q 1038 144 1113 219 q 861 28 963 69 q 640 -14 760 -14 m 640 89 q 818 123 736 89 q 960 219 900 157 q 1054 363 1021 281 q 1088 543 1088 446 q 1054 722 1088 639 q 960 866 1021 804 q 818 962 900 928 q 640 996 736 996 q 461 962 543 996 q 319 866 379 928 q 225 722 258 804 q 192 543 192 639 q 225 363 192 446 q 319 219 258 281 q 461 123 379 157 q 640 89 543 89 m 475 1200 q 438 1216 453 1200 q 422 1256 422 1232 q 451 1337 422 1300 q 531 1395 481 1374 q 640 1417 581 1417 q 746 1397 697 1417 q 825 1340 794 1376 q 857 1254 856 1303 q 842 1216 857 1232 q 806 1200 828 1200 q 768 1214 783 1200 q 753 1250 753 1228 q 722 1304 753 1282 q 640 1326 692 1326 q 558 1303 590 1326 q 526 1250 526 1281 q 511 1214 526 1228 q 475 1200 496 1200 z "},"Ō":{"ha":1279,"x_min":86,"x_max":1194,"o":"m 640 -14 q 418 28 519 -14 q 242 144 317 69 q 127 321 168 219 q 86 543 86 422 q 127 764 86 663 q 242 940 168 865 q 418 1057 317 1015 q 640 1099 519 1099 q 861 1057 760 1099 q 1038 940 963 1015 q 1153 764 1113 865 q 1194 543 1194 663 q 1153 321 1194 422 q 1038 144 1113 219 q 861 28 963 69 q 640 -14 760 -14 m 640 89 q 818 123 736 89 q 960 219 900 157 q 1054 363 1021 281 q 1088 543 1088 446 q 1054 722 1088 639 q 960 866 1021 804 q 818 962 900 928 q 640 996 736 996 q 461 962 543 996 q 319 866 379 928 q 225 722 258 804 q 192 543 192 639 q 225 363 192 446 q 319 219 258 281 q 461 123 379 157 q 640 89 543 89 m 460 1236 q 422 1249 438 1236 q 406 1286 406 1263 q 422 1322 406 1308 q 460 1336 438 1336 l 819 1336 q 858 1322 842 1336 q 874 1286 874 1308 q 858 1249 874 1263 q 819 1236 842 1236 l 460 1236 z "},"Ǫ":{"ha":1279,"x_min":86,"x_max":1194,"o":"m 640 -14 q 418 28 519 -14 q 242 144 317 69 q 127 321 168 219 q 86 543 86 422 q 127 764 86 663 q 242 940 168 865 q 418 1057 317 1015 q 640 1099 519 1099 q 861 1057 760 1099 q 1038 940 963 1015 q 1153 764 1113 865 q 1194 543 1194 663 q 1153 321 1194 422 q 1038 144 1113 219 q 861 28 963 69 q 640 -14 760 -14 m 640 89 q 818 123 736 89 q 960 219 900 157 q 1054 363 1021 281 q 1088 543 1088 446 q 1054 722 1088 639 q 960 866 1021 804 q 818 962 900 928 q 640 996 736 996 q 461 962 543 996 q 319 866 379 928 q 225 722 258 804 q 192 543 192 639 q 225 363 192 446 q 319 219 258 281 q 461 123 379 157 q 640 89 543 89 m 639 -364 q 558 -342 596 -364 q 499 -283 521 -321 q 476 -201 476 -246 q 544 -68 476 -125 q 575 -41 564 -54 q 592 -14 586 -28 q 639 14 608 14 q 677 -1 663 14 q 693 -39 692 -15 q 672 -97 693 -68 q 607 -157 650 -125 q 590 -178 596 -165 q 585 -201 585 -190 q 601 -240 585 -224 q 639 -256 617 -256 q 654 -253 646 -256 q 668 -247 663 -251 l 715 -212 q 747 -201 731 -201 q 786 -217 771 -201 q 801 -256 801 -232 q 783 -299 801 -281 l 728 -335 q 639 -364 686 -364 z "},"Ø":{"ha":1228,"x_min":74,"x_max":1200,"o":"m 124 0 q 83 26 93 0 q 92 71 74 53 l 221 200 l 265 233 l 965 933 l 1004 963 l 1117 1074 q 1146 1085 1128 1085 q 1186 1061 1172 1085 q 1178 1015 1200 1038 l 1065 903 l 1029 876 l 322 169 l 283 142 l 153 11 q 124 0 142 0 m 640 -14 q 418 28 519 -14 q 242 144 317 69 q 127 321 168 219 q 86 543 86 422 q 127 764 86 663 q 242 940 168 865 q 418 1057 317 1015 q 640 1099 519 1099 q 861 1057 760 1099 q 1038 940 963 1015 q 1153 764 1113 865 q 1194 543 1194 663 q 1153 321 1194 422 q 1038 144 1113 219 q 861 28 963 69 q 640 -14 760 -14 m 640 89 q 818 123 736 89 q 960 219 900 157 q 1054 363 1021 281 q 1088 543 1088 446 q 1054 722 1088 639 q 960 866 1021 804 q 818 962 900 928 q 640 996 736 996 q 461 962 543 996 q 319 866 379 928 q 225 722 258 804 q 192 543 192 639 q 225 363 192 446 q 319 219 258 281 q 461 123 379 157 q 640 89 543 89 z "},"Ǿ":{"ha":1228,"x_min":74,"x_max":1200,"o":"m 124 0 q 83 26 93 0 q 92 71 74 53 l 221 200 l 265 233 l 965 933 l 1004 963 l 1117 1074 q 1146 1085 1128 1085 q 1186 1061 1172 1085 q 1178 1015 1200 1038 l 1065 903 l 1029 876 l 322 169 l 283 142 l 153 11 q 124 0 142 0 m 640 -14 q 418 28 519 -14 q 242 144 317 69 q 127 321 168 219 q 86 543 86 422 q 127 764 86 663 q 242 940 168 865 q 418 1057 317 1015 q 640 1099 519 1099 q 861 1057 760 1099 q 1038 940 963 1015 q 1153 764 1113 865 q 1194 543 1194 663 q 1153 321 1194 422 q 1038 144 1113 219 q 861 28 963 69 q 640 -14 760 -14 m 640 89 q 818 123 736 89 q 960 219 900 157 q 1054 363 1021 281 q 1088 543 1088 446 q 1054 722 1088 639 q 960 866 1021 804 q 818 962 900 928 q 640 996 736 996 q 461 962 543 996 q 319 866 379 928 q 225 722 258 804 q 192 543 192 639 q 225 363 192 446 q 319 219 258 281 q 461 123 379 157 q 640 89 543 89 m 631 1200 q 592 1216 608 1200 q 576 1254 576 1232 q 589 1290 576 1276 l 746 1447 q 783 1463 761 1463 q 822 1447 807 1463 q 838 1407 838 1431 q 834 1388 838 1397 q 822 1371 831 1378 l 667 1214 q 631 1200 653 1200 z "},"Õ":{"ha":1279,"x_min":86,"x_max":1194,"o":"m 640 -14 q 418 28 519 -14 q 242 144 317 69 q 127 321 168 219 q 86 543 86 422 q 127 764 86 663 q 242 940 168 865 q 418 1057 317 1015 q 640 1099 519 1099 q 861 1057 760 1099 q 1038 940 963 1015 q 1153 764 1113 865 q 1194 543 1194 663 q 1153 321 1194 422 q 1038 144 1113 219 q 861 28 963 69 q 640 -14 760 -14 m 640 89 q 818 123 736 89 q 960 219 900 157 q 1054 363 1021 281 q 1088 543 1088 446 q 1054 722 1088 639 q 960 866 1021 804 q 818 962 900 928 q 640 996 736 996 q 461 962 543 996 q 319 866 379 928 q 225 722 258 804 q 192 543 192 639 q 225 363 192 446 q 319 219 258 281 q 461 123 379 157 q 640 89 543 89 m 786 1196 q 708 1212 742 1196 q 651 1242 675 1228 q 604 1267 622 1260 q 568 1274 586 1274 q 520 1262 543 1274 q 476 1225 497 1250 q 444 1201 464 1207 q 407 1206 425 1196 q 385 1235 389 1215 q 394 1274 382 1256 q 475 1342 429 1318 q 571 1367 521 1367 q 647 1351 615 1367 q 700 1322 678 1336 q 745 1297 728 1306 q 785 1289 763 1289 q 824 1296 807 1289 q 853 1317 840 1303 q 884 1338 868 1332 q 918 1333 900 1344 q 942 1303 938 1324 q 932 1264 946 1282 q 786 1196 876 1196 z "},"Ȭ":{"ha":1279,"x_min":86,"x_max":1194,"o":"m 640 -14 q 418 28 519 -14 q 242 144 317 69 q 127 321 168 219 q 86 543 86 422 q 127 764 86 663 q 242 940 168 865 q 418 1057 317 1015 q 640 1099 519 1099 q 861 1057 760 1099 q 1038 940 963 1015 q 1153 764 1113 865 q 1194 543 1194 663 q 1153 321 1194 422 q 1038 144 1113 219 q 861 28 963 69 q 640 -14 760 -14 m 640 89 q 818 123 736 89 q 960 219 900 157 q 1054 363 1021 281 q 1088 543 1088 446 q 1054 722 1088 639 q 960 866 1021 804 q 818 962 900 928 q 640 996 736 996 q 461 962 543 996 q 319 866 379 928 q 225 722 258 804 q 192 543 192 639 q 225 363 192 446 q 319 219 258 281 q 461 123 379 157 q 640 89 543 89 m 786 1196 q 708 1212 742 1196 q 651 1242 675 1228 q 604 1267 622 1260 q 568 1274 586 1274 q 520 1262 543 1274 q 476 1225 497 1250 q 444 1201 464 1207 q 407 1206 425 1196 q 385 1235 389 1215 q 394 1274 382 1256 q 475 1342 429 1318 q 571 1367 521 1367 q 647 1351 615 1367 q 700 1322 678 1336 q 745 1297 728 1306 q 785 1289 763 1289 q 824 1296 807 1289 q 853 1317 840 1303 q 884 1338 868 1332 q 918 1333 900 1344 q 942 1303 938 1324 q 932 1264 946 1282 q 786 1196 876 1196 m 474 1458 q 435 1472 451 1458 q 419 1508 419 1485 q 435 1544 419 1531 q 474 1558 451 1558 l 833 1558 q 872 1544 856 1558 q 888 1508 888 1531 q 872 1472 888 1485 q 833 1458 856 1458 l 474 1458 z "},"Œ":{"ha":1601,"x_min":86,"x_max":1539,"o":"m 640 -14 q 418 28 519 -14 q 242 144 317 69 q 127 321 168 219 q 86 543 86 422 q 127 764 86 663 q 242 940 168 865 q 418 1057 317 1015 q 640 1099 519 1099 q 782 1092 714 1099 q 908 1085 850 1085 l 908 963 q 786 988 854 979 q 640 996 718 996 q 461 962 543 996 q 319 866 379 928 q 225 722 258 804 q 192 543 192 639 q 225 363 192 446 q 319 219 258 281 q 461 123 379 157 q 640 89 543 89 q 908 122 799 89 l 908 1 q 782 -6 849 1 q 640 -14 715 -14 m 883 0 q 844 15 860 0 q 829 54 829 31 l 829 1031 q 844 1069 829 1054 q 883 1085 860 1085 l 1485 1085 q 1523 1070 1507 1085 q 1539 1032 1539 1056 q 1523 996 1539 1011 q 1485 981 1507 981 l 938 981 l 938 597 l 1322 597 q 1361 582 1346 597 q 1376 544 1376 567 q 1361 507 1376 522 q 1322 492 1346 492 l 938 492 l 938 104 l 1485 104 q 1523 89 1507 104 q 1539 53 1539 74 q 1523 15 1539 29 q 1485 0 1507 0 l 883 0 z "},"P":{"ha":850,"x_min":139,"x_max":821,"o":"m 193 0 q 154 15 169 0 q 139 54 139 31 l 139 1031 q 154 1069 139 1054 q 193 1085 169 1085 l 471 1085 q 653 1040 574 1085 q 776 915 732 994 q 821 732 821 836 q 776 552 821 631 q 653 428 732 474 q 471 383 574 383 l 247 383 l 247 54 q 232 15 247 31 q 193 0 217 0 m 247 488 l 471 488 q 597 519 542 488 q 684 606 653 550 q 715 732 715 661 q 684 861 715 806 q 597 949 653 917 q 471 981 542 981 l 247 981 l 247 488 z "},"Þ":{"ha":850,"x_min":139,"x_max":821,"o":"m 193 0 q 154 15 169 0 q 139 54 139 31 l 139 1031 q 154 1069 139 1054 q 193 1085 169 1085 q 232 1069 217 1085 q 247 1031 247 1054 l 247 894 l 471 894 q 653 854 574 894 q 776 741 732 814 q 821 574 821 668 q 776 409 821 481 q 653 297 732 338 q 471 257 574 257 l 247 257 l 247 54 q 232 15 247 31 q 193 0 217 0 m 247 351 l 471 351 q 597 381 542 351 q 684 460 653 410 q 715 574 715 511 q 684 689 715 638 q 597 770 653 740 q 471 800 542 800 l 247 800 l 247 351 z "},"Q":{"ha":1279,"x_min":86,"x_max":1194,"o":"m 1049 17 l 749 315 q 732 353 732 332 q 749 390 732 374 q 785 406 764 406 q 822 390 806 406 l 1124 90 q 1139 53 1139 74 q 1124 17 1139 33 q 1086 0 1107 0 q 1049 17 1065 0 m 640 -14 q 418 28 519 -14 q 242 144 317 69 q 127 321 168 219 q 86 543 86 422 q 127 764 86 663 q 242 940 168 865 q 418 1057 317 1015 q 640 1099 519 1099 q 861 1057 760 1099 q 1038 940 963 1015 q 1153 764 1113 865 q 1194 543 1194 663 q 1153 321 1194 422 q 1038 144 1113 219 q 861 28 963 69 q 640 -14 760 -14 m 640 89 q 818 123 736 89 q 960 219 900 157 q 1054 363 1021 281 q 1088 543 1088 446 q 1054 722 1088 639 q 960 866 1021 804 q 818 962 900 928 q 640 996 736 996 q 461 962 543 996 q 319 866 379 928 q 225 722 258 804 q 192 543 192 639 q 225 363 192 446 q 319 219 258 281 q 461 123 379 157 q 640 89 543 89 z "},"R":{"ha":858,"x_min":139,"x_max":838,"o":"m 193 0 q 154 15 169 0 q 139 54 139 31 l 139 1031 q 154 1069 139 1054 q 193 1085 169 1085 l 453 1085 q 633 1042 554 1085 q 758 924 713 1000 q 803 750 803 849 q 758 582 803 656 q 633 467 713 508 q 453 425 554 425 l 247 425 l 247 54 q 232 15 247 31 q 193 0 217 0 m 774 0 q 745 7 756 0 q 726 28 735 14 l 460 453 l 568 481 l 817 83 q 824 25 838 50 q 774 0 811 0 m 247 529 l 453 529 q 578 558 524 529 q 665 636 633 586 q 697 750 697 686 q 665 870 697 818 q 578 951 633 922 q 453 981 524 981 l 247 981 l 247 529 z "},"Ŕ":{"ha":858,"x_min":139,"x_max":838,"o":"m 193 0 q 154 15 169 0 q 139 54 139 31 l 139 1031 q 154 1069 139 1054 q 193 1085 169 1085 l 453 1085 q 633 1042 554 1085 q 758 924 713 1000 q 803 750 803 849 q 758 582 803 656 q 633 467 713 508 q 453 425 554 425 l 247 425 l 247 54 q 232 15 247 31 q 193 0 217 0 m 774 0 q 745 7 756 0 q 726 28 735 14 l 460 453 l 568 481 l 817 83 q 824 25 838 50 q 774 0 811 0 m 247 529 l 453 529 q 578 558 524 529 q 665 636 633 586 q 697 750 697 686 q 665 870 697 818 q 578 951 633 922 q 453 981 524 981 l 247 981 l 247 529 m 438 1200 q 399 1216 415 1200 q 383 1254 383 1232 q 396 1290 383 1276 l 553 1447 q 590 1463 568 1463 q 629 1447 614 1463 q 644 1407 644 1431 q 641 1388 644 1397 q 629 1371 638 1378 l 474 1214 q 438 1200 460 1200 z "},"Ř":{"ha":858,"x_min":139,"x_max":838,"o":"m 193 0 q 154 15 169 0 q 139 54 139 31 l 139 1031 q 154 1069 139 1054 q 193 1085 169 1085 l 453 1085 q 633 1042 554 1085 q 758 924 713 1000 q 803 750 803 849 q 758 582 803 656 q 633 467 713 508 q 453 425 554 425 l 247 425 l 247 54 q 232 15 247 31 q 193 0 217 0 m 774 0 q 745 7 756 0 q 726 28 735 14 l 460 453 l 568 481 l 817 83 q 824 25 838 50 q 774 0 811 0 m 247 529 l 453 529 q 578 558 524 529 q 665 636 633 586 q 697 750 697 686 q 665 870 697 818 q 578 951 633 922 q 453 981 524 981 l 247 981 l 247 529 m 447 1213 q 421 1219 429 1213 l 257 1328 q 231 1374 231 1346 q 257 1411 231 1400 q 318 1399 283 1422 l 447 1311 l 576 1397 q 640 1411 615 1424 q 664 1374 664 1399 q 638 1328 664 1346 l 475 1219 q 447 1213 465 1213 z "},"Ŗ":{"ha":858,"x_min":139,"x_max":838,"o":"m 193 0 q 154 15 169 0 q 139 54 139 31 l 139 1031 q 154 1069 139 1054 q 193 1085 169 1085 l 453 1085 q 633 1042 554 1085 q 758 924 713 1000 q 803 750 803 849 q 758 582 803 656 q 633 467 713 508 q 453 425 554 425 l 247 425 l 247 54 q 232 15 247 31 q 193 0 217 0 m 774 0 q 745 7 756 0 q 726 28 735 14 l 460 453 l 568 481 l 817 83 q 824 25 838 50 q 774 0 811 0 m 247 529 l 453 529 q 578 558 524 529 q 665 636 633 586 q 697 750 697 686 q 665 870 697 818 q 578 951 633 922 q 453 981 524 981 l 247 981 l 247 529 m 456 -331 q 381 -319 419 -331 q 315 -285 342 -307 q 288 -232 288 -262 q 299 -203 288 -214 q 328 -193 310 -193 q 360 -201 347 -193 q 385 -222 374 -210 q 415 -242 397 -233 q 463 -250 432 -250 q 523 -235 503 -250 q 543 -190 543 -219 q 520 -149 543 -165 q 447 -133 497 -133 q 401 -124 418 -133 q 385 -94 385 -114 q 450 -54 385 -54 q 576 -92 528 -54 q 625 -190 625 -131 q 576 -292 625 -254 q 456 -331 526 -331 z "},"Ȑ":{"ha":858,"x_min":139,"x_max":838,"o":"m 193 0 q 154 15 169 0 q 139 54 139 31 l 139 1031 q 154 1069 139 1054 q 193 1085 169 1085 l 453 1085 q 633 1042 554 1085 q 758 924 713 1000 q 803 750 803 849 q 758 582 803 656 q 633 467 713 508 q 453 425 554 425 l 247 425 l 247 54 q 232 15 247 31 q 193 0 217 0 m 774 0 q 745 7 756 0 q 726 28 735 14 l 460 453 l 568 481 l 817 83 q 824 25 838 50 q 774 0 811 0 m 247 529 l 453 529 q 578 558 524 529 q 665 636 633 586 q 697 750 697 686 q 665 870 697 818 q 578 951 633 922 q 453 981 524 981 l 247 981 l 247 529 m 596 1192 q 557 1218 571 1192 l 472 1397 q 468 1418 468 1407 q 483 1454 468 1438 q 524 1471 499 1471 q 554 1462 540 1471 q 574 1438 568 1453 l 632 1249 q 635 1232 635 1242 q 622 1202 635 1213 q 596 1192 610 1192 m 386 1192 q 347 1218 360 1192 l 263 1397 q 259 1408 260 1403 q 258 1418 258 1413 q 274 1454 258 1438 q 313 1471 289 1471 q 343 1462 329 1471 q 361 1438 357 1453 l 422 1249 q 424 1240 424 1244 q 425 1232 425 1236 q 413 1202 425 1213 q 386 1192 400 1192 z "},"Ȓ":{"ha":858,"x_min":139,"x_max":838,"o":"m 193 0 q 154 15 169 0 q 139 54 139 31 l 139 1031 q 154 1069 139 1054 q 193 1085 169 1085 l 453 1085 q 633 1042 554 1085 q 758 924 713 1000 q 803 750 803 849 q 758 582 803 656 q 633 467 713 508 q 453 425 554 425 l 247 425 l 247 54 q 232 15 247 31 q 193 0 217 0 m 774 0 q 745 7 756 0 q 726 28 735 14 l 460 453 l 568 481 l 817 83 q 824 25 838 50 q 774 0 811 0 m 247 529 l 453 529 q 578 558 524 529 q 665 636 633 586 q 697 750 697 686 q 665 870 697 818 q 578 951 633 922 q 453 981 524 981 l 247 981 l 247 529 m 282 1200 q 244 1216 260 1200 q 229 1256 229 1232 q 258 1337 229 1300 q 338 1395 288 1374 q 447 1417 388 1417 q 553 1397 504 1417 q 632 1340 601 1376 q 664 1254 663 1303 q 649 1216 664 1232 q 613 1200 635 1200 q 575 1214 590 1200 q 560 1250 560 1228 q 529 1304 560 1282 q 447 1326 499 1326 q 365 1303 397 1326 q 333 1250 333 1281 q 318 1214 333 1228 q 282 1200 303 1200 z "},"S":{"ha":919,"x_min":81,"x_max":832,"o":"m 472 -14 q 308 12 383 -14 q 176 85 232 38 q 92 194 121 132 q 91 235 81 217 q 126 261 101 254 q 165 257 146 267 q 193 228 183 247 q 254 156 214 188 q 350 106 294 124 q 472 89 406 89 q 603 113 546 89 q 692 184 660 138 q 725 297 725 231 q 663 443 725 382 q 467 521 600 504 q 213 622 304 540 q 121 821 121 703 q 166 968 121 906 q 290 1065 211 1031 q 472 1099 369 1099 q 611 1074 549 1099 q 720 1010 674 1050 q 796 924 767 971 q 805 881 810 901 q 781 849 800 860 q 738 846 760 839 q 706 872 717 853 q 653 933 685 904 q 578 978 622 961 q 471 996 533 994 q 294 949 361 996 q 228 814 228 903 q 253 727 228 767 q 335 659 278 688 q 490 617 393 631 q 748 510 664 592 q 832 299 832 429 q 805 165 832 224 q 728 67 778 107 q 613 7 679 28 q 472 -14 547 -14 z "},"Ś":{"ha":919,"x_min":81,"x_max":832,"o":"m 472 -14 q 308 12 383 -14 q 176 85 232 38 q 92 194 121 132 q 91 235 81 217 q 126 261 101 254 q 165 257 146 267 q 193 228 183 247 q 254 156 214 188 q 350 106 294 124 q 472 89 406 89 q 603 113 546 89 q 692 184 660 138 q 725 297 725 231 q 663 443 725 382 q 467 521 600 504 q 213 622 304 540 q 121 821 121 703 q 166 968 121 906 q 290 1065 211 1031 q 472 1099 369 1099 q 611 1074 549 1099 q 720 1010 674 1050 q 796 924 767 971 q 805 881 810 901 q 781 849 800 860 q 738 846 760 839 q 706 872 717 853 q 653 933 685 904 q 578 978 622 961 q 471 996 533 994 q 294 949 361 996 q 228 814 228 903 q 253 727 228 767 q 335 659 278 688 q 490 617 393 631 q 748 510 664 592 q 832 299 832 429 q 805 165 832 224 q 728 67 778 107 q 613 7 679 28 q 472 -14 547 -14 m 450 1200 q 412 1216 428 1200 q 396 1254 396 1232 q 408 1290 396 1276 l 565 1447 q 603 1463 581 1463 q 642 1447 626 1463 q 657 1407 657 1431 q 653 1388 657 1397 q 642 1371 650 1378 l 486 1214 q 450 1200 472 1200 z "},"Š":{"ha":919,"x_min":81,"x_max":832,"o":"m 472 -14 q 308 12 383 -14 q 176 85 232 38 q 92 194 121 132 q 91 235 81 217 q 126 261 101 254 q 165 257 146 267 q 193 228 183 247 q 254 156 214 188 q 350 106 294 124 q 472 89 406 89 q 603 113 546 89 q 692 184 660 138 q 725 297 725 231 q 663 443 725 382 q 467 521 600 504 q 213 622 304 540 q 121 821 121 703 q 166 968 121 906 q 290 1065 211 1031 q 472 1099 369 1099 q 611 1074 549 1099 q 720 1010 674 1050 q 796 924 767 971 q 805 881 810 901 q 781 849 800 860 q 738 846 760 839 q 706 872 717 853 q 653 933 685 904 q 578 978 622 961 q 471 996 533 994 q 294 949 361 996 q 228 814 228 903 q 253 727 228 767 q 335 659 278 688 q 490 617 393 631 q 748 510 664 592 q 832 299 832 429 q 805 165 832 224 q 728 67 778 107 q 613 7 679 28 q 472 -14 547 -14 m 460 1213 q 433 1219 442 1213 l 269 1328 q 243 1374 243 1346 q 269 1411 243 1400 q 331 1399 296 1422 l 460 1311 l 589 1397 q 652 1411 628 1424 q 676 1374 676 1399 q 650 1328 676 1346 l 488 1219 q 460 1213 478 1213 z "},"Ş":{"ha":919,"x_min":81,"x_max":832,"o":"m 472 -14 q 308 12 383 -14 q 176 85 232 38 q 92 194 121 132 q 91 235 81 217 q 126 261 101 254 q 165 257 146 267 q 193 228 183 247 q 254 156 214 188 q 350 106 294 124 q 472 89 406 89 q 603 113 546 89 q 692 184 660 138 q 725 297 725 231 q 663 443 725 382 q 467 521 600 504 q 213 622 304 540 q 121 821 121 703 q 166 968 121 906 q 290 1065 211 1031 q 472 1099 369 1099 q 611 1074 549 1099 q 720 1010 674 1050 q 796 924 767 971 q 805 881 810 901 q 781 849 800 860 q 738 846 760 839 q 706 872 717 853 q 653 933 685 904 q 578 978 622 961 q 471 996 533 994 q 294 949 361 996 q 228 814 228 903 q 253 727 228 767 q 335 659 278 688 q 490 617 393 631 q 748 510 664 592 q 832 299 832 429 q 805 165 832 224 q 728 67 778 107 q 613 7 679 28 q 472 -14 547 -14 m 456 -324 q 333 -292 381 -324 q 286 -221 286 -260 q 301 -185 286 -200 q 338 -169 317 -169 q 365 -177 353 -169 q 386 -199 376 -185 q 414 -223 397 -214 q 457 -232 431 -232 q 510 -218 489 -232 q 531 -179 531 -204 q 515 -137 531 -153 q 458 -112 499 -122 q 411 -90 425 -106 q 411 -36 397 -74 l 433 21 q 455 51 440 40 q 494 63 469 63 q 534 44 521 63 q 536 0 547 25 l 515 -50 q 616 -101 588 -68 q 644 -179 644 -133 q 619 -251 644 -218 q 552 -303 594 -283 q 456 -324 510 -324 z "},"Ŝ":{"ha":919,"x_min":81,"x_max":832,"o":"m 472 -14 q 308 12 383 -14 q 176 85 232 38 q 92 194 121 132 q 91 235 81 217 q 126 261 101 254 q 165 257 146 267 q 193 228 183 247 q 254 156 214 188 q 350 106 294 124 q 472 89 406 89 q 603 113 546 89 q 692 184 660 138 q 725 297 725 231 q 663 443 725 382 q 467 521 600 504 q 213 622 304 540 q 121 821 121 703 q 166 968 121 906 q 290 1065 211 1031 q 472 1099 369 1099 q 611 1074 549 1099 q 720 1010 674 1050 q 796 924 767 971 q 805 881 810 901 q 781 849 800 860 q 738 846 760 839 q 706 872 717 853 q 653 933 685 904 q 578 978 622 961 q 471 996 533 994 q 294 949 361 996 q 228 814 228 903 q 253 727 228 767 q 335 659 278 688 q 490 617 393 631 q 748 510 664 592 q 832 299 832 429 q 805 165 832 224 q 728 67 778 107 q 613 7 679 28 q 472 -14 547 -14 m 299 1206 q 259 1219 275 1206 q 243 1254 243 1232 q 269 1301 243 1283 l 433 1410 q 460 1417 444 1417 q 475 1415 468 1417 q 488 1410 482 1413 l 650 1301 q 676 1254 676 1283 q 661 1219 676 1233 q 622 1206 646 1206 q 605 1208 613 1206 q 589 1217 597 1211 l 460 1306 l 331 1217 q 299 1206 315 1206 z "},"Ș":{"ha":919,"x_min":81,"x_max":832,"o":"m 472 -14 q 308 12 383 -14 q 176 85 232 38 q 92 194 121 132 q 91 235 81 217 q 126 261 101 254 q 165 257 146 267 q 193 228 183 247 q 254 156 214 188 q 350 106 294 124 q 472 89 406 89 q 603 113 546 89 q 692 184 660 138 q 725 297 725 231 q 663 443 725 382 q 467 521 600 504 q 213 622 304 540 q 121 821 121 703 q 166 968 121 906 q 290 1065 211 1031 q 472 1099 369 1099 q 611 1074 549 1099 q 720 1010 674 1050 q 796 924 767 971 q 805 881 810 901 q 781 849 800 860 q 738 846 760 839 q 706 872 717 853 q 653 933 685 904 q 578 978 622 961 q 471 996 533 994 q 294 949 361 996 q 228 814 228 903 q 253 727 228 767 q 335 659 278 688 q 490 617 393 631 q 748 510 664 592 q 832 299 832 429 q 805 165 832 224 q 728 67 778 107 q 613 7 679 28 q 472 -14 547 -14 m 468 -331 q 393 -319 432 -331 q 327 -285 354 -307 q 300 -232 300 -262 q 311 -203 300 -214 q 340 -193 322 -193 q 373 -201 360 -193 q 398 -222 386 -210 q 427 -242 410 -233 q 475 -250 444 -250 q 535 -235 515 -250 q 556 -190 556 -219 q 533 -149 556 -165 q 460 -133 510 -133 q 414 -124 431 -133 q 397 -94 397 -114 q 463 -54 397 -54 q 589 -92 540 -54 q 638 -190 638 -131 q 588 -292 638 -254 q 468 -331 539 -331 z "},"ẞ":{"ha":965,"x_min":139,"x_max":889,"o":"m 192 0 q 151 15 164 0 q 139 49 139 29 l 139 758 q 184 937 139 864 q 307 1047 229 1010 q 482 1085 385 1085 q 618 1061 554 1085 q 726 1000 682 1038 q 782 921 769 963 q 780 871 789 892 q 756 832 771 850 l 507 567 l 460 640 l 689 896 q 601 960 657 936 q 481 985 544 985 q 359 957 411 985 q 277 875 307 929 q 247 740 247 821 l 247 49 q 232 14 247 28 q 192 0 217 0 m 554 -6 q 458 6 503 -6 q 383 35 414 18 q 363 53 369 43 q 356 86 356 64 q 376 124 356 111 q 426 128 397 138 q 466 113 447 119 q 505 102 485 106 q 554 99 525 99 q 672 128 619 99 q 753 209 724 157 q 782 329 782 261 q 754 446 782 396 q 675 524 726 496 q 554 553 624 553 l 496 553 q 460 567 475 553 q 446 604 446 582 q 460 641 446 626 q 496 656 475 656 l 563 656 q 731 615 657 656 q 847 500 804 574 q 889 329 889 426 q 845 158 889 233 q 726 39 801 83 q 554 -6 650 -6 z "},"Ə":{"ha":1164,"x_min":86,"x_max":1079,"o":"m 585 -14 q 381 26 472 -14 q 223 140 289 67 q 122 310 157 213 q 86 525 86 408 q 106 574 86 556 q 158 593 126 593 l 1011 593 l 1011 497 l 132 497 l 192 522 q 241 301 190 399 q 381 146 292 203 q 585 89 469 89 q 786 147 699 89 q 924 307 874 206 q 974 538 974 408 q 917 774 974 671 q 760 937 860 878 q 529 996 660 996 q 385 974 454 996 q 261 910 317 951 q 224 897 244 897 q 189 913 204 897 q 176 949 174 929 q 192 981 178 969 q 343 1067 257 1035 q 535 1099 429 1099 q 752 1057 653 1099 q 925 940 851 1015 q 1039 763 999 865 q 1079 538 1079 660 q 1042 317 1079 418 q 939 142 1006 215 q 782 27 872 68 q 585 -14 692 -14 z "},"T":{"ha":910,"x_min":21,"x_max":889,"o":"m 454 0 q 416 16 432 0 q 400 54 400 32 l 400 1085 l 508 1085 l 508 54 q 493 16 508 32 q 454 0 478 0 m 71 986 q 35 1000 49 986 q 21 1035 21 1014 q 35 1071 21 1057 q 71 1085 49 1085 l 839 1085 q 875 1071 861 1085 q 889 1035 889 1057 q 875 1000 889 1014 q 839 986 861 986 l 71 986 z "},"Ŧ":{"ha":910,"x_min":21,"x_max":889,"o":"m 454 0 q 416 16 432 0 q 400 54 400 32 l 400 1085 l 508 1085 l 508 54 q 493 16 508 32 q 454 0 478 0 m 71 986 q 35 1000 49 986 q 21 1035 21 1014 q 35 1071 21 1057 q 71 1085 49 1085 l 839 1085 q 875 1071 861 1085 q 889 1035 889 1057 q 875 1000 889 1014 q 839 986 861 986 l 71 986 m 236 496 q 199 508 214 496 q 185 543 185 521 q 199 578 185 565 q 236 590 214 590 l 681 590 q 717 578 703 590 q 732 543 732 565 q 717 508 732 521 q 681 496 703 496 l 236 496 z "},"Ť":{"ha":910,"x_min":21,"x_max":889,"o":"m 454 0 q 416 16 432 0 q 400 54 400 32 l 400 1085 l 508 1085 l 508 54 q 493 16 508 32 q 454 0 478 0 m 71 986 q 35 1000 49 986 q 21 1035 21 1014 q 35 1071 21 1057 q 71 1085 49 1085 l 839 1085 q 875 1071 861 1085 q 889 1035 889 1057 q 875 1000 889 1014 q 839 986 861 986 l 71 986 m 454 1213 q 428 1219 436 1213 l 264 1328 q 238 1374 238 1346 q 264 1411 238 1400 q 325 1399 290 1422 l 454 1311 l 583 1397 q 647 1411 622 1424 q 671 1374 671 1399 q 644 1328 671 1346 l 482 1219 q 454 1213 472 1213 z "},"Ţ":{"ha":910,"x_min":21,"x_max":889,"o":"m 454 0 q 416 16 432 0 q 400 54 400 32 l 400 1085 l 508 1085 l 508 54 q 493 16 508 32 q 454 0 478 0 m 71 986 q 35 1000 49 986 q 21 1035 21 1014 q 35 1071 21 1057 q 71 1085 49 1085 l 839 1085 q 875 1071 861 1085 q 889 1035 889 1057 q 875 1000 889 1014 q 839 986 861 986 l 71 986 m 450 -324 q 328 -292 375 -324 q 281 -221 281 -260 q 296 -185 281 -200 q 332 -169 311 -169 q 359 -177 347 -169 q 381 -199 371 -185 q 408 -223 392 -214 q 451 -232 425 -232 q 504 -218 483 -232 q 525 -179 525 -204 q 509 -137 525 -153 q 453 -112 493 -122 q 406 -90 419 -106 q 406 -36 392 -74 l 428 21 q 449 51 435 40 q 489 63 464 63 q 528 44 515 63 q 531 0 542 25 l 510 -50 q 610 -101 582 -68 q 639 -179 639 -133 q 614 -251 639 -218 q 547 -303 589 -283 q 450 -324 504 -324 z "},"Ț":{"ha":910,"x_min":21,"x_max":889,"o":"m 454 0 q 416 16 432 0 q 400 54 400 32 l 400 1085 l 508 1085 l 508 54 q 493 16 508 32 q 454 0 478 0 m 71 986 q 35 1000 49 986 q 21 1035 21 1014 q 35 1071 21 1057 q 71 1085 49 1085 l 839 1085 q 875 1071 861 1085 q 889 1035 889 1057 q 875 1000 889 1014 q 839 986 861 986 l 71 986 m 463 -331 q 388 -319 426 -331 q 322 -285 349 -307 q 294 -232 294 -262 q 306 -203 294 -214 q 335 -193 317 -193 q 367 -201 354 -193 q 392 -222 381 -210 q 422 -242 404 -233 q 469 -250 439 -250 q 530 -235 510 -250 q 550 -190 550 -219 q 527 -149 550 -165 q 454 -133 504 -133 q 408 -124 425 -133 q 392 -94 392 -114 q 457 -54 392 -54 q 583 -92 535 -54 q 632 -190 632 -131 q 583 -292 632 -254 q 463 -331 533 -331 z "},"U":{"ha":1138,"x_min":139,"x_max":999,"o":"m 571 -22 q 347 26 444 -22 q 194 161 249 75 q 139 358 139 247 l 139 1031 q 154 1069 139 1054 q 193 1085 169 1085 q 232 1069 217 1085 q 247 1031 247 1054 l 247 358 q 288 214 247 276 q 403 116 329 151 q 571 81 476 81 q 736 116 664 81 q 849 214 808 151 q 890 358 890 276 l 890 1031 q 906 1069 890 1054 q 944 1085 921 1085 q 984 1069 969 1085 q 999 1031 999 1054 l 999 358 q 944 161 999 247 q 792 26 889 75 q 571 -22 696 -22 z "},"Ú":{"ha":1138,"x_min":139,"x_max":999,"o":"m 571 -22 q 347 26 444 -22 q 194 161 249 75 q 139 358 139 247 l 139 1031 q 154 1069 139 1054 q 193 1085 169 1085 q 232 1069 217 1085 q 247 1031 247 1054 l 247 358 q 288 214 247 276 q 403 116 329 151 q 571 81 476 81 q 736 116 664 81 q 849 214 808 151 q 890 358 890 276 l 890 1031 q 906 1069 890 1054 q 944 1085 921 1085 q 984 1069 969 1085 q 999 1031 999 1054 l 999 358 q 944 161 999 247 q 792 26 889 75 q 571 -22 696 -22 m 560 1200 q 522 1216 538 1200 q 506 1254 506 1232 q 518 1290 506 1276 l 675 1447 q 713 1463 690 1463 q 751 1447 736 1463 q 767 1407 767 1431 q 763 1388 767 1397 q 751 1371 760 1378 l 596 1214 q 560 1200 582 1200 z "},"Ŭ":{"ha":1138,"x_min":139,"x_max":999,"o":"m 571 -22 q 347 26 444 -22 q 194 161 249 75 q 139 358 139 247 l 139 1031 q 154 1069 139 1054 q 193 1085 169 1085 q 232 1069 217 1085 q 247 1031 247 1054 l 247 358 q 288 214 247 276 q 403 116 329 151 q 571 81 476 81 q 736 116 664 81 q 849 214 808 151 q 890 358 890 276 l 890 1031 q 906 1069 890 1054 q 944 1085 921 1085 q 984 1069 969 1085 q 999 1031 999 1054 l 999 358 q 944 161 999 247 q 792 26 889 75 q 571 -22 696 -22 m 568 1201 q 460 1223 510 1201 q 381 1281 411 1244 q 351 1363 351 1317 q 367 1401 351 1385 q 404 1418 382 1418 q 440 1404 425 1418 q 456 1368 456 1390 q 488 1314 456 1336 q 568 1292 519 1292 q 651 1314 621 1292 q 682 1368 682 1336 q 697 1404 682 1390 q 735 1418 713 1418 q 772 1402 757 1418 q 786 1364 786 1386 q 754 1278 785 1315 q 675 1222 724 1242 q 568 1201 626 1201 z "},"Û":{"ha":1138,"x_min":139,"x_max":999,"o":"m 571 -22 q 347 26 444 -22 q 194 161 249 75 q 139 358 139 247 l 139 1031 q 154 1069 139 1054 q 193 1085 169 1085 q 232 1069 217 1085 q 247 1031 247 1054 l 247 358 q 288 214 247 276 q 403 116 329 151 q 571 81 476 81 q 736 116 664 81 q 849 214 808 151 q 890 358 890 276 l 890 1031 q 906 1069 890 1054 q 944 1085 921 1085 q 984 1069 969 1085 q 999 1031 999 1054 l 999 358 q 944 161 999 247 q 792 26 889 75 q 571 -22 696 -22 m 408 1206 q 369 1219 385 1206 q 353 1254 353 1232 q 379 1301 353 1283 l 543 1410 q 569 1417 554 1417 q 585 1415 578 1417 q 597 1410 592 1413 l 760 1301 q 786 1254 786 1283 q 771 1219 786 1233 q 732 1206 756 1206 q 715 1208 722 1206 q 699 1217 707 1211 l 569 1306 l 440 1217 q 408 1206 425 1206 z "},"Ȕ":{"ha":1138,"x_min":139,"x_max":999,"o":"m 571 -22 q 347 26 444 -22 q 194 161 249 75 q 139 358 139 247 l 139 1031 q 154 1069 139 1054 q 193 1085 169 1085 q 232 1069 217 1085 q 247 1031 247 1054 l 247 358 q 288 214 247 276 q 403 116 329 151 q 571 81 476 81 q 736 116 664 81 q 849 214 808 151 q 890 358 890 276 l 890 1031 q 906 1069 890 1054 q 944 1085 921 1085 q 984 1069 969 1085 q 999 1031 999 1054 l 999 358 q 944 161 999 247 q 792 26 889 75 q 571 -22 696 -22 m 718 1192 q 679 1218 693 1192 l 594 1397 q 590 1418 590 1407 q 606 1454 590 1438 q 646 1471 621 1471 q 676 1462 663 1471 q 696 1438 690 1453 l 754 1249 q 757 1232 757 1242 q 744 1202 757 1213 q 718 1192 732 1192 m 508 1192 q 469 1218 482 1192 l 385 1397 q 381 1408 382 1403 q 381 1418 381 1413 q 396 1454 381 1438 q 435 1471 411 1471 q 465 1462 451 1471 q 483 1438 479 1453 l 544 1249 q 547 1240 546 1244 q 547 1232 547 1236 q 535 1202 547 1213 q 508 1192 522 1192 z "},"Ü":{"ha":1138,"x_min":139,"x_max":999,"o":"m 571 -22 q 347 26 444 -22 q 194 161 249 75 q 139 358 139 247 l 139 1031 q 154 1069 139 1054 q 193 1085 169 1085 q 232 1069 217 1085 q 247 1031 247 1054 l 247 358 q 288 214 247 276 q 403 116 329 151 q 571 81 476 81 q 736 116 664 81 q 849 214 808 151 q 890 358 890 276 l 890 1031 q 906 1069 890 1054 q 944 1085 921 1085 q 984 1069 969 1085 q 999 1031 999 1054 l 999 358 q 944 161 999 247 q 792 26 889 75 q 571 -22 696 -22 m 425 1224 q 370 1245 392 1224 q 349 1300 349 1267 q 370 1353 349 1331 q 425 1376 392 1376 q 479 1353 457 1376 q 501 1300 501 1331 q 479 1245 501 1267 q 425 1224 457 1224 m 715 1224 q 660 1245 682 1224 q 639 1300 639 1267 q 660 1353 639 1331 q 715 1376 682 1376 q 769 1353 747 1376 q 792 1300 792 1331 q 769 1245 792 1267 q 715 1224 747 1224 z "},"Ụ":{"ha":1138,"x_min":139,"x_max":999,"o":"m 571 -22 q 347 26 444 -22 q 194 161 249 75 q 139 358 139 247 l 139 1031 q 154 1069 139 1054 q 193 1085 169 1085 q 232 1069 217 1085 q 247 1031 247 1054 l 247 358 q 288 214 247 276 q 403 116 329 151 q 571 81 476 81 q 736 116 664 81 q 849 214 808 151 q 890 358 890 276 l 890 1031 q 906 1069 890 1054 q 944 1085 921 1085 q 984 1069 969 1085 q 999 1031 999 1054 l 999 358 q 944 161 999 247 q 792 26 889 75 q 571 -22 696 -22 m 568 -290 q 515 -268 538 -290 q 493 -214 493 -246 q 516 -159 493 -179 q 569 -139 539 -139 q 622 -159 599 -139 q 644 -214 644 -179 q 622 -268 644 -246 q 568 -290 600 -290 z "},"Ù":{"ha":1138,"x_min":139,"x_max":999,"o":"m 571 -22 q 347 26 444 -22 q 194 161 249 75 q 139 358 139 247 l 139 1031 q 154 1069 139 1054 q 193 1085 169 1085 q 232 1069 217 1085 q 247 1031 247 1054 l 247 358 q 288 214 247 276 q 403 116 329 151 q 571 81 476 81 q 736 116 664 81 q 849 214 808 151 q 890 358 890 276 l 890 1031 q 906 1069 890 1054 q 944 1085 921 1085 q 984 1069 969 1085 q 999 1031 999 1054 l 999 358 q 944 161 999 247 q 792 26 889 75 q 571 -22 696 -22 m 568 1208 q 532 1224 547 1208 l 375 1379 q 361 1417 361 1396 q 376 1456 361 1440 q 414 1472 392 1472 q 453 1456 436 1472 l 608 1299 q 622 1264 622 1288 q 607 1224 622 1240 q 568 1208 592 1208 z "},"Ủ":{"ha":1138,"x_min":139,"x_max":999,"o":"m 571 -22 q 347 26 444 -22 q 194 161 249 75 q 139 358 139 247 l 139 1031 q 154 1069 139 1054 q 193 1085 169 1085 q 232 1069 217 1085 q 247 1031 247 1054 l 247 358 q 288 214 247 276 q 403 116 329 151 q 571 81 476 81 q 736 116 664 81 q 849 214 808 151 q 890 358 890 276 l 890 1031 q 906 1069 890 1054 q 944 1085 921 1085 q 984 1069 969 1085 q 999 1031 999 1054 l 999 358 q 944 161 999 247 q 792 26 889 75 q 571 -22 696 -22 m 568 1156 q 533 1170 547 1156 q 518 1206 518 1185 l 518 1244 q 563 1299 518 1289 l 597 1306 q 640 1327 626 1313 q 654 1367 654 1342 q 634 1414 654 1397 q 585 1431 614 1431 q 551 1424 567 1431 q 524 1408 536 1418 q 508 1399 517 1403 q 489 1396 499 1396 q 458 1408 471 1396 q 444 1440 444 1419 q 461 1478 444 1464 q 517 1510 488 1499 q 583 1521 547 1521 q 699 1480 653 1521 q 746 1374 746 1439 q 704 1276 746 1308 q 606 1235 663 1243 l 617 1217 q 602 1172 617 1188 q 568 1156 588 1156 z "},"Ư":{"ha":1138,"x_min":139,"x_max":1164,"o":"m 571 -22 q 347 26 444 -22 q 194 161 249 75 q 139 358 139 247 l 139 1031 q 154 1069 139 1054 q 193 1085 169 1085 q 232 1069 217 1085 q 247 1031 247 1054 l 247 358 q 288 214 247 276 q 403 116 329 151 q 571 81 476 81 q 736 116 664 81 q 849 214 808 151 q 890 358 890 276 l 890 1031 q 906 1069 890 1054 q 944 1085 921 1085 q 984 1069 969 1085 q 999 1031 999 1054 l 999 358 q 944 161 999 247 q 792 26 889 75 q 571 -22 696 -22 m 944 986 l 944 1085 l 1006 1085 q 1048 1106 1031 1085 q 1065 1161 1065 1126 l 1065 1190 q 1078 1228 1065 1213 q 1114 1243 1092 1243 q 1151 1225 1139 1243 q 1164 1182 1164 1207 l 1164 1161 q 1143 1072 1164 1111 q 1087 1009 1122 1032 q 1006 986 1051 986 l 944 986 z "},"Ứ":{"ha":1138,"x_min":139,"x_max":1164,"o":"m 571 -22 q 347 26 444 -22 q 194 161 249 75 q 139 358 139 247 l 139 1031 q 154 1069 139 1054 q 193 1085 169 1085 q 232 1069 217 1085 q 247 1031 247 1054 l 247 358 q 288 214 247 276 q 403 116 329 151 q 571 81 476 81 q 736 116 664 81 q 849 214 808 151 q 890 358 890 276 l 890 1031 q 906 1069 890 1054 q 944 1085 921 1085 q 984 1069 969 1085 q 999 1031 999 1054 l 999 358 q 944 161 999 247 q 792 26 889 75 q 571 -22 696 -22 m 944 986 l 944 1085 l 1006 1085 q 1048 1106 1031 1085 q 1065 1161 1065 1126 l 1065 1190 q 1078 1228 1065 1213 q 1114 1243 1092 1243 q 1151 1225 1139 1243 q 1164 1182 1164 1207 l 1164 1161 q 1143 1072 1164 1111 q 1087 1009 1122 1032 q 1006 986 1051 986 l 944 986 m 560 1200 q 522 1216 538 1200 q 506 1254 506 1232 q 518 1290 506 1276 l 675 1447 q 713 1463 690 1463 q 751 1447 736 1463 q 767 1407 767 1431 q 763 1388 767 1397 q 751 1371 760 1378 l 596 1214 q 560 1200 582 1200 z "},"Ự":{"ha":1138,"x_min":139,"x_max":1164,"o":"m 571 -22 q 347 26 444 -22 q 194 161 249 75 q 139 358 139 247 l 139 1031 q 154 1069 139 1054 q 193 1085 169 1085 q 232 1069 217 1085 q 247 1031 247 1054 l 247 358 q 288 214 247 276 q 403 116 329 151 q 571 81 476 81 q 736 116 664 81 q 849 214 808 151 q 890 358 890 276 l 890 1031 q 906 1069 890 1054 q 944 1085 921 1085 q 984 1069 969 1085 q 999 1031 999 1054 l 999 358 q 944 161 999 247 q 792 26 889 75 q 571 -22 696 -22 m 944 986 l 944 1085 l 1006 1085 q 1048 1106 1031 1085 q 1065 1161 1065 1126 l 1065 1190 q 1078 1228 1065 1213 q 1114 1243 1092 1243 q 1151 1225 1139 1243 q 1164 1182 1164 1207 l 1164 1161 q 1143 1072 1164 1111 q 1087 1009 1122 1032 q 1006 986 1051 986 l 944 986 m 568 -290 q 515 -268 538 -290 q 493 -214 493 -246 q 516 -159 493 -179 q 569 -139 539 -139 q 622 -159 599 -139 q 644 -214 644 -179 q 622 -268 644 -246 q 568 -290 600 -290 z "},"Ừ":{"ha":1138,"x_min":139,"x_max":1164,"o":"m 571 -22 q 347 26 444 -22 q 194 161 249 75 q 139 358 139 247 l 139 1031 q 154 1069 139 1054 q 193 1085 169 1085 q 232 1069 217 1085 q 247 1031 247 1054 l 247 358 q 288 214 247 276 q 403 116 329 151 q 571 81 476 81 q 736 116 664 81 q 849 214 808 151 q 890 358 890 276 l 890 1031 q 906 1069 890 1054 q 944 1085 921 1085 q 984 1069 969 1085 q 999 1031 999 1054 l 999 358 q 944 161 999 247 q 792 26 889 75 q 571 -22 696 -22 m 944 986 l 944 1085 l 1006 1085 q 1048 1106 1031 1085 q 1065 1161 1065 1126 l 1065 1190 q 1078 1228 1065 1213 q 1114 1243 1092 1243 q 1151 1225 1139 1243 q 1164 1182 1164 1207 l 1164 1161 q 1143 1072 1164 1111 q 1087 1009 1122 1032 q 1006 986 1051 986 l 944 986 m 568 1208 q 532 1224 547 1208 l 375 1379 q 361 1417 361 1396 q 376 1456 361 1440 q 414 1472 392 1472 q 453 1456 436 1472 l 608 1299 q 622 1264 622 1288 q 607 1224 622 1240 q 568 1208 592 1208 z "},"Ử":{"ha":1138,"x_min":139,"x_max":1164,"o":"m 571 -22 q 347 26 444 -22 q 194 161 249 75 q 139 358 139 247 l 139 1031 q 154 1069 139 1054 q 193 1085 169 1085 q 232 1069 217 1085 q 247 1031 247 1054 l 247 358 q 288 214 247 276 q 403 116 329 151 q 571 81 476 81 q 736 116 664 81 q 849 214 808 151 q 890 358 890 276 l 890 1031 q 906 1069 890 1054 q 944 1085 921 1085 q 984 1069 969 1085 q 999 1031 999 1054 l 999 358 q 944 161 999 247 q 792 26 889 75 q 571 -22 696 -22 m 944 986 l 944 1085 l 1006 1085 q 1048 1106 1031 1085 q 1065 1161 1065 1126 l 1065 1190 q 1078 1228 1065 1213 q 1114 1243 1092 1243 q 1151 1225 1139 1243 q 1164 1182 1164 1207 l 1164 1161 q 1143 1072 1164 1111 q 1087 1009 1122 1032 q 1006 986 1051 986 l 944 986 m 568 1156 q 533 1170 547 1156 q 518 1206 518 1185 l 518 1244 q 563 1299 518 1289 l 597 1306 q 640 1327 626 1313 q 654 1367 654 1342 q 634 1414 654 1397 q 585 1431 614 1431 q 551 1424 567 1431 q 524 1408 536 1418 q 508 1399 517 1403 q 489 1396 499 1396 q 458 1408 471 1396 q 444 1440 444 1419 q 461 1478 444 1464 q 517 1510 488 1499 q 583 1521 547 1521 q 699 1480 653 1521 q 746 1374 746 1439 q 704 1276 746 1308 q 606 1235 663 1243 l 617 1217 q 602 1172 617 1188 q 568 1156 588 1156 z "},"Ữ":{"ha":1138,"x_min":139,"x_max":1164,"o":"m 571 -22 q 347 26 444 -22 q 194 161 249 75 q 139 358 139 247 l 139 1031 q 154 1069 139 1054 q 193 1085 169 1085 q 232 1069 217 1085 q 247 1031 247 1054 l 247 358 q 288 214 247 276 q 403 116 329 151 q 571 81 476 81 q 736 116 664 81 q 849 214 808 151 q 890 358 890 276 l 890 1031 q 906 1069 890 1054 q 944 1085 921 1085 q 984 1069 969 1085 q 999 1031 999 1054 l 999 358 q 944 161 999 247 q 792 26 889 75 q 571 -22 696 -22 m 944 986 l 944 1085 l 1006 1085 q 1048 1106 1031 1085 q 1065 1161 1065 1126 l 1065 1190 q 1078 1228 1065 1213 q 1114 1243 1092 1243 q 1151 1225 1139 1243 q 1164 1182 1164 1207 l 1164 1161 q 1143 1072 1164 1111 q 1087 1009 1122 1032 q 1006 986 1051 986 l 944 986 m 715 1196 q 638 1212 671 1196 q 581 1242 604 1228 q 533 1267 551 1260 q 497 1274 515 1274 q 449 1262 472 1274 q 406 1225 426 1250 q 374 1201 393 1207 q 336 1206 354 1196 q 315 1235 318 1215 q 324 1274 311 1256 q 404 1342 358 1318 q 500 1367 450 1367 q 576 1351 544 1367 q 629 1322 607 1336 q 674 1297 657 1306 q 714 1289 692 1289 q 753 1296 736 1289 q 782 1317 769 1303 q 813 1338 797 1332 q 847 1333 829 1344 q 871 1303 867 1324 q 861 1264 875 1282 q 715 1196 806 1196 z "},"Ű":{"ha":1138,"x_min":139,"x_max":999,"o":"m 571 -22 q 347 26 444 -22 q 194 161 249 75 q 139 358 139 247 l 139 1031 q 154 1069 139 1054 q 193 1085 169 1085 q 232 1069 217 1085 q 247 1031 247 1054 l 247 358 q 288 214 247 276 q 403 116 329 151 q 571 81 476 81 q 736 116 664 81 q 849 214 808 151 q 890 358 890 276 l 890 1031 q 906 1069 890 1054 q 944 1085 921 1085 q 984 1069 969 1085 q 999 1031 999 1054 l 999 358 q 944 161 999 247 q 792 26 889 75 q 571 -22 696 -22 m 671 1192 q 644 1202 657 1192 q 632 1232 632 1213 q 633 1240 632 1236 q 635 1249 633 1244 l 696 1438 q 714 1462 700 1453 q 744 1471 728 1471 q 783 1454 768 1471 q 799 1417 799 1438 q 798 1408 799 1413 q 794 1397 797 1403 l 710 1218 q 671 1192 697 1192 m 461 1192 q 435 1202 447 1192 q 422 1232 422 1213 q 423 1240 422 1236 q 425 1249 424 1244 l 483 1438 q 503 1462 489 1453 q 533 1471 517 1471 q 574 1454 558 1471 q 589 1417 589 1438 q 585 1397 589 1408 l 500 1218 q 461 1192 488 1192 z "},"Ȗ":{"ha":1138,"x_min":139,"x_max":999,"o":"m 571 -22 q 347 26 444 -22 q 194 161 249 75 q 139 358 139 247 l 139 1031 q 154 1069 139 1054 q 193 1085 169 1085 q 232 1069 217 1085 q 247 1031 247 1054 l 247 358 q 288 214 247 276 q 403 116 329 151 q 571 81 476 81 q 736 116 664 81 q 849 214 808 151 q 890 358 890 276 l 890 1031 q 906 1069 890 1054 q 944 1085 921 1085 q 984 1069 969 1085 q 999 1031 999 1054 l 999 358 q 944 161 999 247 q 792 26 889 75 q 571 -22 696 -22 m 404 1200 q 367 1216 382 1200 q 351 1256 351 1232 q 381 1337 351 1300 q 460 1395 410 1374 q 569 1417 510 1417 q 675 1397 626 1417 q 754 1340 724 1376 q 786 1254 785 1303 q 772 1216 786 1232 q 735 1200 757 1200 q 697 1214 713 1200 q 682 1250 682 1228 q 651 1304 682 1282 q 569 1326 621 1326 q 488 1303 519 1326 q 456 1250 456 1281 q 440 1214 456 1228 q 404 1200 425 1200 z "},"Ū":{"ha":1138,"x_min":139,"x_max":999,"o":"m 571 -22 q 347 26 444 -22 q 194 161 249 75 q 139 358 139 247 l 139 1031 q 154 1069 139 1054 q 193 1085 169 1085 q 232 1069 217 1085 q 247 1031 247 1054 l 247 358 q 288 214 247 276 q 403 116 329 151 q 571 81 476 81 q 736 116 664 81 q 849 214 808 151 q 890 358 890 276 l 890 1031 q 906 1069 890 1054 q 944 1085 921 1085 q 984 1069 969 1085 q 999 1031 999 1054 l 999 358 q 944 161 999 247 q 792 26 889 75 q 571 -22 696 -22 m 389 1236 q 351 1249 367 1236 q 335 1286 335 1263 q 351 1322 335 1308 q 389 1336 367 1336 l 749 1336 q 787 1322 771 1336 q 803 1286 803 1308 q 787 1249 803 1263 q 749 1236 771 1236 l 389 1236 z "},"Ų":{"ha":1138,"x_min":139,"x_max":999,"o":"m 571 -22 q 347 26 444 -22 q 194 161 249 75 q 139 358 139 247 l 139 1031 q 154 1069 139 1054 q 193 1085 169 1085 q 232 1069 217 1085 q 247 1031 247 1054 l 247 358 q 288 214 247 276 q 403 116 329 151 q 571 81 476 81 q 736 116 664 81 q 849 214 808 151 q 890 358 890 276 l 890 1031 q 906 1069 890 1054 q 944 1085 921 1085 q 984 1069 969 1085 q 999 1031 999 1054 l 999 358 q 944 161 999 247 q 792 26 889 75 q 571 -22 696 -22 m 708 -296 q 628 -274 665 -296 q 568 -215 590 -253 q 546 -133 546 -178 q 614 0 546 -57 q 644 27 633 14 q 661 54 656 40 q 708 82 678 82 q 747 67 732 82 q 763 29 761 53 q 741 -28 763 0 q 676 -89 719 -57 q 660 -110 665 -97 q 654 -133 654 -122 q 670 -172 654 -156 q 708 -187 686 -187 q 724 -185 715 -187 q 738 -179 732 -183 l 785 -144 q 817 -133 800 -133 q 856 -149 840 -133 q 871 -187 871 -164 q 853 -231 871 -212 l 797 -267 q 708 -296 756 -296 z "},"Ů":{"ha":1138,"x_min":139,"x_max":999,"o":"m 571 -22 q 347 26 444 -22 q 194 161 249 75 q 139 358 139 247 l 139 1031 q 154 1069 139 1054 q 193 1085 169 1085 q 232 1069 217 1085 q 247 1031 247 1054 l 247 358 q 288 214 247 276 q 403 116 329 151 q 571 81 476 81 q 736 116 664 81 q 849 214 808 151 q 890 358 890 276 l 890 1031 q 906 1069 890 1054 q 944 1085 921 1085 q 984 1069 969 1085 q 999 1031 999 1054 l 999 358 q 944 161 999 247 q 792 26 889 75 q 571 -22 696 -22 m 569 1149 q 473 1188 513 1149 q 433 1285 433 1226 q 474 1382 433 1343 q 569 1421 514 1421 q 667 1382 628 1421 q 706 1285 706 1343 q 667 1188 706 1228 q 569 1149 629 1149 m 569 1211 q 622 1233 601 1211 q 643 1285 643 1254 q 622 1338 643 1317 q 569 1358 601 1358 q 518 1338 539 1358 q 497 1285 497 1317 q 518 1233 497 1254 q 569 1211 539 1211 z "},"Ũ":{"ha":1138,"x_min":139,"x_max":999,"o":"m 571 -22 q 347 26 444 -22 q 194 161 249 75 q 139 358 139 247 l 139 1031 q 154 1069 139 1054 q 193 1085 169 1085 q 232 1069 217 1085 q 247 1031 247 1054 l 247 358 q 288 214 247 276 q 403 116 329 151 q 571 81 476 81 q 736 116 664 81 q 849 214 808 151 q 890 358 890 276 l 890 1031 q 906 1069 890 1054 q 944 1085 921 1085 q 984 1069 969 1085 q 999 1031 999 1054 l 999 358 q 944 161 999 247 q 792 26 889 75 q 571 -22 696 -22 m 715 1196 q 638 1212 671 1196 q 581 1242 604 1228 q 533 1267 551 1260 q 497 1274 515 1274 q 449 1262 472 1274 q 406 1225 426 1250 q 374 1201 393 1207 q 336 1206 354 1196 q 315 1235 318 1215 q 324 1274 311 1256 q 404 1342 358 1318 q 500 1367 450 1367 q 576 1351 544 1367 q 629 1322 607 1336 q 674 1297 657 1306 q 714 1289 692 1289 q 753 1296 736 1289 q 782 1317 769 1303 q 813 1338 797 1332 q 847 1333 829 1344 q 871 1303 867 1324 q 861 1264 875 1282 q 715 1196 806 1196 z "},"V":{"ha":994,"x_min":21,"x_max":974,"o":"m 499 0 q 449 35 464 0 l 36 1000 q 34 1062 21 1039 q 81 1085 47 1085 q 131 1050 115 1085 l 514 133 l 483 133 l 865 1047 q 886 1076 874 1068 q 919 1085 899 1085 q 963 1060 951 1085 q 961 1006 974 1036 l 547 35 q 526 8 539 15 q 499 0 514 0 z "},"W":{"ha":1303,"x_min":22,"x_max":1276,"o":"m 371 0 q 337 13 351 0 q 317 44 322 25 l 32 1007 q 35 1063 22 1040 q 78 1085 49 1085 q 109 1076 94 1085 q 131 1043 124 1067 l 388 149 l 356 149 l 599 1019 q 617 1044 603 1035 q 650 1054 632 1054 q 682 1045 667 1054 q 701 1018 697 1036 l 946 149 l 914 149 l 1172 1049 q 1225 1085 1182 1085 q 1265 1062 1254 1085 q 1268 1007 1276 1039 l 985 46 q 963 12 978 24 q 929 0 949 0 q 895 13 910 0 q 875 44 881 25 l 633 926 l 667 926 l 426 46 q 405 13 419 25 q 371 0 390 0 z "},"Ẃ":{"ha":1303,"x_min":22,"x_max":1276,"o":"m 371 0 q 337 13 351 0 q 317 44 322 25 l 32 1007 q 35 1063 22 1040 q 78 1085 49 1085 q 109 1076 94 1085 q 131 1043 124 1067 l 388 149 l 356 149 l 599 1019 q 617 1044 603 1035 q 650 1054 632 1054 q 682 1045 667 1054 q 701 1018 697 1036 l 946 149 l 914 149 l 1172 1049 q 1225 1085 1182 1085 q 1265 1062 1254 1085 q 1268 1007 1276 1039 l 985 46 q 963 12 978 24 q 929 0 949 0 q 895 13 910 0 q 875 44 881 25 l 633 926 l 667 926 l 426 46 q 405 13 419 25 q 371 0 390 0 m 642 1200 q 603 1216 619 1200 q 588 1254 588 1232 q 600 1290 588 1276 l 757 1447 q 794 1463 772 1463 q 833 1447 818 1463 q 849 1407 849 1431 q 845 1388 849 1397 q 833 1371 842 1378 l 678 1214 q 642 1200 664 1200 z "},"Ŵ":{"ha":1303,"x_min":22,"x_max":1276,"o":"m 371 0 q 337 13 351 0 q 317 44 322 25 l 32 1007 q 35 1063 22 1040 q 78 1085 49 1085 q 109 1076 94 1085 q 131 1043 124 1067 l 388 149 l 356 149 l 599 1019 q 617 1044 603 1035 q 650 1054 632 1054 q 682 1045 667 1054 q 701 1018 697 1036 l 946 149 l 914 149 l 1172 1049 q 1225 1085 1182 1085 q 1265 1062 1254 1085 q 1268 1007 1276 1039 l 985 46 q 963 12 978 24 q 929 0 949 0 q 895 13 910 0 q 875 44 881 25 l 633 926 l 667 926 l 426 46 q 405 13 419 25 q 371 0 390 0 m 490 1206 q 451 1219 467 1206 q 435 1254 435 1232 q 461 1301 435 1283 l 625 1410 q 651 1417 636 1417 q 667 1415 660 1417 q 679 1410 674 1413 l 842 1301 q 868 1254 868 1283 q 853 1219 868 1233 q 814 1206 838 1206 q 797 1208 804 1206 q 781 1217 789 1211 l 651 1306 l 522 1217 q 490 1206 507 1206 z "},"Ẅ":{"ha":1303,"x_min":22,"x_max":1276,"o":"m 371 0 q 337 13 351 0 q 317 44 322 25 l 32 1007 q 35 1063 22 1040 q 78 1085 49 1085 q 109 1076 94 1085 q 131 1043 124 1067 l 388 149 l 356 149 l 599 1019 q 617 1044 603 1035 q 650 1054 632 1054 q 682 1045 667 1054 q 701 1018 697 1036 l 946 149 l 914 149 l 1172 1049 q 1225 1085 1182 1085 q 1265 1062 1254 1085 q 1268 1007 1276 1039 l 985 46 q 963 12 978 24 q 929 0 949 0 q 895 13 910 0 q 875 44 881 25 l 633 926 l 667 926 l 426 46 q 405 13 419 25 q 371 0 390 0 m 507 1224 q 452 1245 474 1224 q 431 1300 431 1267 q 452 1353 431 1331 q 507 1376 474 1376 q 561 1353 539 1376 q 583 1300 583 1331 q 561 1245 583 1267 q 507 1224 539 1224 m 797 1224 q 742 1245 764 1224 q 721 1300 721 1267 q 742 1353 721 1331 q 797 1376 764 1376 q 851 1353 829 1376 q 874 1300 874 1331 q 851 1245 874 1267 q 797 1224 829 1224 z "},"Ẁ":{"ha":1303,"x_min":22,"x_max":1276,"o":"m 371 0 q 337 13 351 0 q 317 44 322 25 l 32 1007 q 35 1063 22 1040 q 78 1085 49 1085 q 109 1076 94 1085 q 131 1043 124 1067 l 388 149 l 356 149 l 599 1019 q 617 1044 603 1035 q 650 1054 632 1054 q 682 1045 667 1054 q 701 1018 697 1036 l 946 149 l 914 149 l 1172 1049 q 1225 1085 1182 1085 q 1265 1062 1254 1085 q 1268 1007 1276 1039 l 985 46 q 963 12 978 24 q 929 0 949 0 q 895 13 910 0 q 875 44 881 25 l 633 926 l 667 926 l 426 46 q 405 13 419 25 q 371 0 390 0 m 650 1208 q 614 1224 629 1208 l 457 1379 q 443 1417 443 1396 q 458 1456 443 1440 q 496 1472 474 1472 q 535 1456 518 1472 l 690 1299 q 704 1264 704 1288 q 689 1224 704 1240 q 650 1208 674 1208 z "},"X":{"ha":982,"x_min":64,"x_max":919,"o":"m 117 0 q 80 14 93 0 q 65 49 67 28 q 78 88 64 69 l 440 582 l 490 622 l 815 1065 q 857 1085 831 1085 q 892 1070 879 1085 q 907 1035 906 1056 q 897 1000 908 1015 l 556 536 l 508 497 l 156 17 q 117 0 140 0 m 868 0 q 846 5 857 0 q 826 19 835 10 l 481 499 l 438 531 l 100 1000 q 89 1037 88 1017 q 103 1071 90 1057 q 139 1085 117 1085 q 181 1065 165 1085 l 507 614 l 546 588 l 907 88 q 919 50 919 71 q 905 15 918 29 q 868 0 892 0 z "},"Y":{"ha":900,"x_min":4,"x_max":896,"o":"m 450 0 q 412 16 428 0 q 396 54 396 32 l 396 401 l 18 1000 q 8 1040 4 1021 q 25 1072 11 1060 q 60 1085 39 1085 q 87 1078 76 1085 q 106 1058 97 1071 l 481 454 l 422 454 l 796 1056 q 817 1078 806 1071 q 846 1085 829 1085 q 878 1072 865 1085 q 894 1039 892 1058 q 883 1000 896 1019 l 504 401 l 504 54 q 488 16 504 32 q 450 0 472 0 z "},"Ý":{"ha":900,"x_min":4,"x_max":896,"o":"m 450 0 q 412 16 428 0 q 396 54 396 32 l 396 401 l 18 1000 q 8 1040 4 1021 q 25 1072 11 1060 q 60 1085 39 1085 q 87 1078 76 1085 q 106 1058 97 1071 l 481 454 l 422 454 l 796 1056 q 817 1078 806 1071 q 846 1085 829 1085 q 878 1072 865 1085 q 894 1039 892 1058 q 883 1000 896 1019 l 504 401 l 504 54 q 488 16 504 32 q 450 0 472 0 m 440 1200 q 402 1216 418 1200 q 386 1254 386 1232 q 399 1290 386 1276 l 556 1447 q 593 1463 571 1463 q 632 1447 617 1463 q 647 1407 647 1431 q 644 1388 647 1397 q 632 1371 640 1378 l 476 1214 q 440 1200 463 1200 z "},"Ŷ":{"ha":900,"x_min":4,"x_max":896,"o":"m 450 0 q 412 16 428 0 q 396 54 396 32 l 396 401 l 18 1000 q 8 1040 4 1021 q 25 1072 11 1060 q 60 1085 39 1085 q 87 1078 76 1085 q 106 1058 97 1071 l 481 454 l 422 454 l 796 1056 q 817 1078 806 1071 q 846 1085 829 1085 q 878 1072 865 1085 q 894 1039 892 1058 q 883 1000 896 1019 l 504 401 l 504 54 q 488 16 504 32 q 450 0 472 0 m 289 1206 q 249 1219 265 1206 q 233 1254 233 1232 q 260 1301 233 1283 l 424 1410 q 450 1417 435 1417 q 465 1415 458 1417 q 478 1410 472 1413 l 640 1301 q 667 1254 667 1283 q 651 1219 667 1233 q 613 1206 636 1206 q 595 1208 603 1206 q 579 1217 588 1211 l 450 1306 l 321 1217 q 289 1206 306 1206 z "},"Ÿ":{"ha":900,"x_min":4,"x_max":896,"o":"m 450 0 q 412 16 428 0 q 396 54 396 32 l 396 401 l 18 1000 q 8 1040 4 1021 q 25 1072 11 1060 q 60 1085 39 1085 q 87 1078 76 1085 q 106 1058 97 1071 l 481 454 l 422 454 l 796 1056 q 817 1078 806 1071 q 846 1085 829 1085 q 878 1072 865 1085 q 894 1039 892 1058 q 883 1000 896 1019 l 504 401 l 504 54 q 488 16 504 32 q 450 0 472 0 m 306 1224 q 251 1245 272 1224 q 229 1300 229 1267 q 251 1353 229 1331 q 306 1376 272 1376 q 360 1353 338 1376 q 382 1300 382 1331 q 360 1245 382 1267 q 306 1224 338 1224 m 596 1224 q 541 1245 563 1224 q 519 1300 519 1267 q 541 1353 519 1331 q 596 1376 563 1376 q 650 1353 628 1376 q 672 1300 672 1331 q 650 1245 672 1267 q 596 1224 628 1224 z "},"Ỵ":{"ha":900,"x_min":4,"x_max":896,"o":"m 450 0 q 412 16 428 0 q 396 54 396 32 l 396 401 l 18 1000 q 8 1040 4 1021 q 25 1072 11 1060 q 60 1085 39 1085 q 87 1078 76 1085 q 106 1058 97 1071 l 481 454 l 422 454 l 796 1056 q 817 1078 806 1071 q 846 1085 829 1085 q 878 1072 865 1085 q 894 1039 892 1058 q 883 1000 896 1019 l 504 401 l 504 54 q 488 16 504 32 q 450 0 472 0 m 450 -290 q 397 -268 419 -290 q 375 -214 375 -246 q 398 -159 375 -179 q 451 -139 421 -139 q 503 -159 481 -139 q 526 -214 526 -179 q 504 -268 526 -246 q 450 -290 482 -290 z "},"Ỳ":{"ha":900,"x_min":4,"x_max":896,"o":"m 450 0 q 412 16 428 0 q 396 54 396 32 l 396 401 l 18 1000 q 8 1040 4 1021 q 25 1072 11 1060 q 60 1085 39 1085 q 87 1078 76 1085 q 106 1058 97 1071 l 481 454 l 422 454 l 796 1056 q 817 1078 806 1071 q 846 1085 829 1085 q 878 1072 865 1085 q 894 1039 892 1058 q 883 1000 896 1019 l 504 401 l 504 54 q 488 16 504 32 q 450 0 472 0 m 449 1208 q 413 1224 428 1208 l 256 1379 q 242 1417 242 1396 q 257 1456 242 1440 q 294 1472 272 1472 q 333 1456 317 1472 l 489 1299 q 503 1264 503 1288 q 488 1224 503 1240 q 449 1208 472 1208 z "},"Ỷ":{"ha":900,"x_min":4,"x_max":896,"o":"m 450 0 q 412 16 428 0 q 396 54 396 32 l 396 401 l 18 1000 q 8 1040 4 1021 q 25 1072 11 1060 q 60 1085 39 1085 q 87 1078 76 1085 q 106 1058 97 1071 l 481 454 l 422 454 l 796 1056 q 817 1078 806 1071 q 846 1085 829 1085 q 878 1072 865 1085 q 894 1039 892 1058 q 883 1000 896 1019 l 504 401 l 504 54 q 488 16 504 32 q 450 0 472 0 m 450 1156 q 415 1170 429 1156 q 400 1206 400 1185 l 400 1244 q 444 1299 400 1289 l 479 1306 q 522 1327 508 1313 q 536 1367 536 1342 q 516 1414 536 1397 q 467 1431 496 1431 q 433 1424 449 1431 q 406 1408 418 1418 q 390 1399 399 1403 q 371 1396 381 1396 q 340 1408 353 1396 q 326 1440 326 1419 q 343 1478 326 1464 q 399 1510 369 1499 q 465 1521 429 1521 q 581 1480 535 1521 q 628 1374 628 1439 q 586 1276 628 1308 q 488 1235 544 1243 l 499 1217 q 484 1172 499 1188 q 450 1156 469 1156 z "},"Ȳ":{"ha":900,"x_min":4,"x_max":896,"o":"m 450 0 q 412 16 428 0 q 396 54 396 32 l 396 401 l 18 1000 q 8 1040 4 1021 q 25 1072 11 1060 q 60 1085 39 1085 q 87 1078 76 1085 q 106 1058 97 1071 l 481 454 l 422 454 l 796 1056 q 817 1078 806 1071 q 846 1085 829 1085 q 878 1072 865 1085 q 894 1039 892 1058 q 883 1000 896 1019 l 504 401 l 504 54 q 488 16 504 32 q 450 0 472 0 m 271 1236 q 233 1249 249 1236 q 217 1286 217 1263 q 233 1322 217 1308 q 271 1336 249 1336 l 631 1336 q 669 1322 653 1336 q 685 1286 685 1308 q 669 1249 685 1263 q 631 1236 653 1236 l 271 1236 z "},"Ỹ":{"ha":900,"x_min":4,"x_max":896,"o":"m 450 0 q 412 16 428 0 q 396 54 396 32 l 396 401 l 18 1000 q 8 1040 4 1021 q 25 1072 11 1060 q 60 1085 39 1085 q 87 1078 76 1085 q 106 1058 97 1071 l 481 454 l 422 454 l 796 1056 q 817 1078 806 1071 q 846 1085 829 1085 q 878 1072 865 1085 q 894 1039 892 1058 q 883 1000 896 1019 l 504 401 l 504 54 q 488 16 504 32 q 450 0 472 0 m 597 1196 q 519 1212 553 1196 q 463 1242 486 1228 q 415 1267 433 1260 q 379 1274 397 1274 q 331 1262 354 1274 q 288 1225 308 1250 q 256 1201 275 1207 q 218 1206 236 1196 q 197 1235 200 1215 q 206 1274 193 1256 q 286 1342 240 1318 q 382 1367 332 1367 q 458 1351 426 1367 q 511 1322 489 1336 q 556 1297 539 1306 q 596 1289 574 1289 q 635 1296 618 1289 q 664 1317 651 1303 q 695 1338 679 1332 q 729 1333 711 1344 q 753 1303 749 1324 q 743 1264 757 1282 q 597 1196 688 1196 z "},"Z":{"ha":1006,"x_min":67,"x_max":939,"o":"m 122 0 q 84 15 99 0 q 68 51 69 31 q 79 88 67 71 l 797 988 l 128 988 q 89 1000 103 988 q 75 1035 75 1013 q 90 1070 75 1056 q 129 1085 106 1085 l 882 1085 q 921 1069 907 1085 q 937 1034 935 1054 q 926 1000 939 1014 l 206 97 l 882 97 q 920 84 904 97 q 936 49 936 71 q 920 14 936 28 q 882 0 904 0 l 122 0 z "},"Ź":{"ha":1006,"x_min":67,"x_max":939,"o":"m 122 0 q 84 15 99 0 q 68 51 69 31 q 79 88 67 71 l 797 988 l 128 988 q 89 1000 103 988 q 75 1035 75 1013 q 90 1070 75 1056 q 129 1085 106 1085 l 882 1085 q 921 1069 907 1085 q 937 1034 935 1054 q 926 1000 939 1014 l 206 97 l 882 97 q 920 84 904 97 q 936 49 936 71 q 920 14 936 28 q 882 0 904 0 l 122 0 m 493 1200 q 455 1216 471 1200 q 439 1254 439 1232 q 451 1290 439 1276 l 608 1447 q 646 1463 624 1463 q 685 1447 669 1463 q 700 1407 700 1431 q 697 1388 700 1397 q 685 1371 693 1378 l 529 1214 q 493 1200 515 1200 z "},"Ž":{"ha":1006,"x_min":67,"x_max":939,"o":"m 122 0 q 84 15 99 0 q 68 51 69 31 q 79 88 67 71 l 797 988 l 128 988 q 89 1000 103 988 q 75 1035 75 1013 q 90 1070 75 1056 q 129 1085 106 1085 l 882 1085 q 921 1069 907 1085 q 937 1034 935 1054 q 926 1000 939 1014 l 206 97 l 882 97 q 920 84 904 97 q 936 49 936 71 q 920 14 936 28 q 882 0 904 0 l 122 0 m 503 1213 q 476 1219 485 1213 l 313 1328 q 286 1374 286 1346 q 313 1411 286 1400 q 374 1399 339 1422 l 503 1311 l 632 1397 q 695 1411 671 1424 q 719 1374 719 1399 q 693 1328 719 1346 l 531 1219 q 503 1213 521 1213 z "},"Ż":{"ha":1006,"x_min":67,"x_max":939,"o":"m 122 0 q 84 15 99 0 q 68 51 69 31 q 79 88 67 71 l 797 988 l 128 988 q 89 1000 103 988 q 75 1035 75 1013 q 90 1070 75 1056 q 129 1085 106 1085 l 882 1085 q 921 1069 907 1085 q 937 1034 935 1054 q 926 1000 939 1014 l 206 97 l 882 97 q 920 84 904 97 q 936 49 936 71 q 920 14 936 28 q 882 0 904 0 l 122 0 m 501 1229 q 449 1251 471 1229 q 426 1306 426 1274 q 449 1360 426 1340 q 503 1381 472 1381 q 555 1360 532 1381 q 578 1306 578 1340 q 556 1251 578 1274 q 501 1229 533 1229 z "},"a":{"ha":940,"x_min":85,"x_max":857,"o":"m 460 -7 q 268 44 353 -7 q 134 182 183 94 q 85 379 85 269 q 135 578 85 490 q 274 716 186 665 q 471 767 361 767 q 667 716 581 767 q 805 578 754 665 q 857 379 856 490 l 814 346 q 767 166 814 246 q 641 40 721 86 q 460 -7 561 -7 m 471 90 q 615 128 551 90 q 715 231 678 165 q 751 379 751 297 q 715 528 751 463 q 615 631 678 593 q 471 669 551 669 q 328 631 392 669 q 226 528 264 593 q 189 379 189 463 q 226 231 189 297 q 328 128 264 165 q 471 90 392 90 m 803 0 q 764 15 779 0 q 749 53 749 29 l 749 290 l 775 400 l 857 379 l 857 53 q 842 15 857 29 q 803 0 826 0 z "},"á":{"ha":940,"x_min":85,"x_max":857,"o":"m 460 -7 q 268 44 353 -7 q 134 182 183 94 q 85 379 85 269 q 135 578 85 490 q 274 716 186 665 q 471 767 361 767 q 667 716 581 767 q 805 578 754 665 q 857 379 856 490 l 814 346 q 767 166 814 246 q 641 40 721 86 q 460 -7 561 -7 m 471 90 q 615 128 551 90 q 715 231 678 165 q 751 379 751 297 q 715 528 751 463 q 615 631 678 593 q 471 669 551 669 q 328 631 392 669 q 226 528 264 593 q 189 379 189 463 q 226 231 189 297 q 328 128 264 165 q 471 90 392 90 m 803 0 q 764 15 779 0 q 749 53 749 29 l 749 290 l 775 400 l 857 379 l 857 53 q 842 15 857 29 q 803 0 826 0 m 461 875 q 423 891 439 875 q 407 929 407 907 q 419 965 407 951 l 576 1122 q 614 1138 592 1138 q 653 1122 638 1138 q 668 1082 668 1106 q 665 1063 668 1072 q 653 1046 661 1053 l 497 889 q 461 875 483 875 z "},"ă":{"ha":940,"x_min":85,"x_max":857,"o":"m 460 -7 q 268 44 353 -7 q 134 182 183 94 q 85 379 85 269 q 135 578 85 490 q 274 716 186 665 q 471 767 361 767 q 667 716 581 767 q 805 578 754 665 q 857 379 856 490 l 814 346 q 767 166 814 246 q 641 40 721 86 q 460 -7 561 -7 m 471 90 q 615 128 551 90 q 715 231 678 165 q 751 379 751 297 q 715 528 751 463 q 615 631 678 593 q 471 669 551 669 q 328 631 392 669 q 226 528 264 593 q 189 379 189 463 q 226 231 189 297 q 328 128 264 165 q 471 90 392 90 m 803 0 q 764 15 779 0 q 749 53 749 29 l 749 290 l 775 400 l 857 379 l 857 53 q 842 15 857 29 q 803 0 826 0 m 469 876 q 362 898 411 876 q 283 956 313 919 q 253 1038 253 992 q 268 1076 253 1060 q 306 1093 283 1093 q 342 1079 326 1093 q 357 1043 357 1065 q 389 989 357 1011 q 469 967 421 967 q 553 989 522 967 q 583 1043 583 1011 q 599 1079 583 1065 q 636 1093 614 1093 q 673 1077 658 1093 q 688 1039 688 1061 q 656 953 686 990 q 576 897 625 917 q 469 876 528 876 z "},"ắ":{"ha":940,"x_min":85,"x_max":857,"o":"m 460 -7 q 268 44 353 -7 q 134 182 183 94 q 85 379 85 269 q 135 578 85 490 q 274 716 186 665 q 471 767 361 767 q 667 716 581 767 q 805 578 754 665 q 857 379 856 490 l 814 346 q 767 166 814 246 q 641 40 721 86 q 460 -7 561 -7 m 471 90 q 615 128 551 90 q 715 231 678 165 q 751 379 751 297 q 715 528 751 463 q 615 631 678 593 q 471 669 551 669 q 328 631 392 669 q 226 528 264 593 q 189 379 189 463 q 226 231 189 297 q 328 128 264 165 q 471 90 392 90 m 803 0 q 764 15 779 0 q 749 53 749 29 l 749 290 l 775 400 l 857 379 l 857 53 q 842 15 857 29 q 803 0 826 0 m 469 876 q 362 898 411 876 q 283 956 313 919 q 253 1038 253 993 q 268 1077 253 1061 q 306 1093 283 1093 q 342 1079 326 1093 q 357 1043 357 1065 q 389 990 357 1013 q 469 967 421 967 q 553 989 522 967 q 583 1043 583 1011 q 599 1079 583 1065 q 636 1093 614 1093 q 673 1077 658 1093 q 688 1039 688 1061 q 656 953 686 990 q 576 897 625 917 q 469 876 528 876 m 461 1108 q 423 1124 439 1108 q 407 1163 407 1139 q 419 1199 407 1183 l 576 1356 q 614 1371 592 1371 q 653 1355 638 1371 q 668 1315 668 1339 q 665 1296 668 1306 q 653 1279 661 1286 l 497 1122 q 461 1108 483 1108 z "},"ặ":{"ha":940,"x_min":85,"x_max":857,"o":"m 460 -7 q 268 44 353 -7 q 134 182 183 94 q 85 379 85 269 q 135 578 85 490 q 274 716 186 665 q 471 767 361 767 q 667 716 581 767 q 805 578 754 665 q 857 379 856 490 l 814 346 q 767 166 814 246 q 641 40 721 86 q 460 -7 561 -7 m 471 90 q 615 128 551 90 q 715 231 678 165 q 751 379 751 297 q 715 528 751 463 q 615 631 678 593 q 471 669 551 669 q 328 631 392 669 q 226 528 264 593 q 189 379 189 463 q 226 231 189 297 q 328 128 264 165 q 471 90 392 90 m 803 0 q 764 15 779 0 q 749 53 749 29 l 749 290 l 775 400 l 857 379 l 857 53 q 842 15 857 29 q 803 0 826 0 m 469 876 q 362 898 411 876 q 283 956 313 919 q 253 1038 253 992 q 268 1076 253 1060 q 306 1093 283 1093 q 342 1079 326 1093 q 357 1043 357 1065 q 389 989 357 1011 q 469 967 421 967 q 553 989 522 967 q 583 1043 583 1011 q 599 1079 583 1065 q 636 1093 614 1093 q 673 1077 658 1093 q 688 1039 688 1061 q 656 953 686 990 q 576 897 625 917 q 469 876 528 876 m 469 -290 q 417 -268 439 -290 q 394 -214 394 -246 q 417 -159 394 -179 q 471 -139 440 -139 q 523 -159 500 -139 q 546 -214 546 -179 q 524 -268 546 -246 q 469 -290 501 -290 z "},"ằ":{"ha":940,"x_min":85,"x_max":857,"o":"m 460 -7 q 268 44 353 -7 q 134 182 183 94 q 85 379 85 269 q 135 578 85 490 q 274 716 186 665 q 471 767 361 767 q 667 716 581 767 q 805 578 754 665 q 857 379 856 490 l 814 346 q 767 166 814 246 q 641 40 721 86 q 460 -7 561 -7 m 471 90 q 615 128 551 90 q 715 231 678 165 q 751 379 751 297 q 715 528 751 463 q 615 631 678 593 q 471 669 551 669 q 328 631 392 669 q 226 528 264 593 q 189 379 189 463 q 226 231 189 297 q 328 128 264 165 q 471 90 392 90 m 803 0 q 764 15 779 0 q 749 53 749 29 l 749 290 l 775 400 l 857 379 l 857 53 q 842 15 857 29 q 803 0 826 0 m 469 876 q 362 898 411 876 q 283 956 313 919 q 253 1038 253 993 q 268 1077 253 1061 q 306 1093 283 1093 q 342 1079 326 1093 q 357 1043 357 1065 q 389 990 357 1013 q 469 967 421 967 q 553 989 522 967 q 583 1043 583 1011 q 599 1079 583 1065 q 636 1093 614 1093 q 673 1077 658 1093 q 688 1039 688 1061 q 656 953 686 990 q 576 897 625 917 q 469 876 528 876 m 469 1117 q 433 1132 449 1117 l 276 1288 q 263 1325 263 1303 q 278 1365 263 1349 q 315 1381 293 1381 q 354 1364 338 1381 l 510 1207 q 524 1172 524 1194 q 508 1132 524 1147 q 469 1117 493 1117 z "},"ẳ":{"ha":940,"x_min":85,"x_max":857,"o":"m 460 -7 q 268 44 353 -7 q 134 182 183 94 q 85 379 85 269 q 135 578 85 490 q 274 716 186 665 q 471 767 361 767 q 667 716 581 767 q 805 578 754 665 q 857 379 856 490 l 814 346 q 767 166 814 246 q 641 40 721 86 q 460 -7 561 -7 m 471 90 q 615 128 551 90 q 715 231 678 165 q 751 379 751 297 q 715 528 751 463 q 615 631 678 593 q 471 669 551 669 q 328 631 392 669 q 226 528 264 593 q 189 379 189 463 q 226 231 189 297 q 328 128 264 165 q 471 90 392 90 m 803 0 q 764 15 779 0 q 749 53 749 29 l 749 290 l 775 400 l 857 379 l 857 53 q 842 15 857 29 q 803 0 826 0 m 469 876 q 362 898 411 876 q 283 956 313 919 q 253 1038 253 993 q 268 1077 253 1061 q 306 1093 283 1093 q 342 1079 326 1093 q 357 1043 357 1065 q 389 990 357 1013 q 469 967 421 967 q 553 989 522 967 q 583 1043 583 1011 q 599 1079 583 1065 q 636 1093 614 1093 q 673 1077 658 1093 q 688 1039 688 1061 q 656 953 686 990 q 576 897 625 917 q 469 876 528 876 m 469 1064 q 434 1078 449 1064 q 419 1114 419 1093 l 419 1153 q 464 1207 419 1196 l 499 1214 q 542 1235 528 1221 q 556 1275 556 1250 q 536 1322 556 1306 q 486 1339 517 1339 q 453 1332 469 1339 q 425 1317 438 1325 q 410 1307 419 1310 q 390 1304 400 1304 q 360 1316 374 1304 q 346 1349 346 1328 q 363 1386 346 1371 q 419 1418 389 1407 q 485 1429 449 1429 q 601 1388 556 1429 q 647 1282 647 1347 q 606 1184 647 1217 q 507 1143 565 1151 l 518 1125 q 504 1080 518 1096 q 469 1064 490 1064 z "},"ẵ":{"ha":940,"x_min":85,"x_max":857,"o":"m 460 -7 q 268 44 353 -7 q 134 182 183 94 q 85 379 85 269 q 135 578 85 490 q 274 716 186 665 q 471 767 361 767 q 667 716 581 767 q 805 578 754 665 q 857 379 856 490 l 814 346 q 767 166 814 246 q 641 40 721 86 q 460 -7 561 -7 m 471 90 q 615 128 551 90 q 715 231 678 165 q 751 379 751 297 q 715 528 751 463 q 615 631 678 593 q 471 669 551 669 q 328 631 392 669 q 226 528 264 593 q 189 379 189 463 q 226 231 189 297 q 328 128 264 165 q 471 90 392 90 m 803 0 q 764 15 779 0 q 749 53 749 29 l 749 290 l 775 400 l 857 379 l 857 53 q 842 15 857 29 q 803 0 826 0 m 471 876 q 363 898 411 876 q 284 956 314 919 q 254 1038 254 993 q 269 1077 254 1061 q 307 1093 283 1093 q 343 1079 328 1093 q 358 1043 358 1065 q 390 990 358 1013 q 471 967 422 967 q 554 989 524 967 q 585 1043 585 1011 q 600 1079 585 1065 q 638 1093 615 1093 q 674 1077 660 1093 q 689 1039 689 1061 q 656 953 686 990 q 577 897 626 917 q 471 876 528 876 m 561 1125 q 500 1141 528 1125 q 453 1176 472 1157 q 420 1204 433 1194 q 390 1214 407 1214 q 362 1200 374 1214 q 338 1163 350 1186 q 310 1137 328 1144 q 275 1138 293 1129 q 250 1162 257 1144 q 253 1200 243 1179 q 311 1278 279 1254 q 385 1303 343 1303 q 450 1285 426 1303 q 494 1250 474 1268 q 530 1223 518 1229 q 551 1217 542 1217 q 586 1250 571 1217 q 614 1277 596 1268 q 649 1281 632 1286 q 679 1254 671 1272 q 676 1217 688 1236 q 625 1146 653 1167 q 561 1125 597 1125 z "},"ǎ":{"ha":940,"x_min":85,"x_max":857,"o":"m 460 -7 q 268 44 353 -7 q 134 182 183 94 q 85 379 85 269 q 135 578 85 490 q 274 716 186 665 q 471 767 361 767 q 667 716 581 767 q 805 578 754 665 q 857 379 856 490 l 814 346 q 767 166 814 246 q 641 40 721 86 q 460 -7 561 -7 m 471 90 q 615 128 551 90 q 715 231 678 165 q 751 379 751 297 q 715 528 751 463 q 615 631 678 593 q 471 669 551 669 q 328 631 392 669 q 226 528 264 593 q 189 379 189 463 q 226 231 189 297 q 328 128 264 165 q 471 90 392 90 m 803 0 q 764 15 779 0 q 749 53 749 29 l 749 290 l 775 400 l 857 379 l 857 53 q 842 15 857 29 q 803 0 826 0 m 471 888 q 444 894 453 888 l 281 1003 q 254 1049 254 1021 q 281 1086 254 1075 q 342 1074 307 1097 l 471 986 l 600 1072 q 663 1086 639 1099 q 688 1049 688 1074 q 661 1003 688 1021 l 499 894 q 471 888 489 888 z "},"â":{"ha":940,"x_min":85,"x_max":857,"o":"m 460 -7 q 268 44 353 -7 q 134 182 183 94 q 85 379 85 269 q 135 578 85 490 q 274 716 186 665 q 471 767 361 767 q 667 716 581 767 q 805 578 754 665 q 857 379 856 490 l 814 346 q 767 166 814 246 q 641 40 721 86 q 460 -7 561 -7 m 471 90 q 615 128 551 90 q 715 231 678 165 q 751 379 751 297 q 715 528 751 463 q 615 631 678 593 q 471 669 551 669 q 328 631 392 669 q 226 528 264 593 q 189 379 189 463 q 226 231 189 297 q 328 128 264 165 q 471 90 392 90 m 803 0 q 764 15 779 0 q 749 53 749 29 l 749 290 l 775 400 l 857 379 l 857 53 q 842 15 857 29 q 803 0 826 0 m 310 881 q 270 894 286 881 q 254 929 254 907 q 281 976 254 958 l 444 1085 q 471 1092 456 1092 q 486 1090 479 1092 q 499 1085 493 1088 l 661 976 q 688 929 688 958 q 672 894 688 908 q 633 881 657 881 q 616 883 624 881 q 600 892 608 886 l 471 981 l 342 892 q 310 881 326 881 z "},"ấ":{"ha":940,"x_min":85,"x_max":857,"o":"m 460 -7 q 268 44 353 -7 q 134 182 183 94 q 85 379 85 269 q 135 578 85 490 q 274 716 186 665 q 471 767 361 767 q 667 716 581 767 q 805 578 754 665 q 857 379 856 490 l 814 346 q 767 166 814 246 q 641 40 721 86 q 460 -7 561 -7 m 471 90 q 615 128 551 90 q 715 231 678 165 q 751 379 751 297 q 715 528 751 463 q 615 631 678 593 q 471 669 551 669 q 328 631 392 669 q 226 528 264 593 q 189 379 189 463 q 226 231 189 297 q 328 128 264 165 q 471 90 392 90 m 803 0 q 764 15 779 0 q 749 53 749 29 l 749 290 l 775 400 l 857 379 l 857 53 q 842 15 857 29 q 803 0 826 0 m 310 881 q 270 894 286 881 q 254 929 254 907 q 281 976 254 958 l 444 1085 q 471 1092 456 1092 q 486 1090 479 1092 q 499 1085 493 1088 l 661 976 q 688 929 688 958 q 672 894 688 908 q 633 881 657 881 q 616 883 624 881 q 600 892 608 886 l 471 981 l 342 892 q 310 881 326 881 m 594 1110 q 556 1125 572 1110 q 540 1164 540 1140 q 553 1200 540 1185 l 710 1357 q 747 1372 725 1372 q 787 1356 772 1372 q 801 1317 801 1340 q 798 1297 801 1307 q 786 1281 794 1288 l 631 1124 q 594 1110 617 1110 z "},"ậ":{"ha":940,"x_min":85,"x_max":857,"o":"m 460 -7 q 268 44 353 -7 q 134 182 183 94 q 85 379 85 269 q 135 578 85 490 q 274 716 186 665 q 471 767 361 767 q 667 716 581 767 q 805 578 754 665 q 857 379 856 490 l 814 346 q 767 166 814 246 q 641 40 721 86 q 460 -7 561 -7 m 471 90 q 615 128 551 90 q 715 231 678 165 q 751 379 751 297 q 715 528 751 463 q 615 631 678 593 q 471 669 551 669 q 328 631 392 669 q 226 528 264 593 q 189 379 189 463 q 226 231 189 297 q 328 128 264 165 q 471 90 392 90 m 803 0 q 764 15 779 0 q 749 53 749 29 l 749 290 l 775 400 l 857 379 l 857 53 q 842 15 857 29 q 803 0 826 0 m 310 881 q 270 894 286 881 q 254 929 254 907 q 281 976 254 958 l 444 1085 q 471 1092 456 1092 q 486 1090 479 1092 q 499 1085 493 1088 l 661 976 q 688 929 688 958 q 672 894 688 908 q 633 881 657 881 q 616 883 624 881 q 600 892 608 886 l 471 981 l 342 892 q 310 881 326 881 m 469 -290 q 417 -268 439 -290 q 394 -214 394 -246 q 417 -159 394 -179 q 471 -139 440 -139 q 523 -159 500 -139 q 546 -214 546 -179 q 524 -268 546 -246 q 469 -290 501 -290 z "},"ầ":{"ha":940,"x_min":85,"x_max":857,"o":"m 460 -7 q 268 44 353 -7 q 134 182 183 94 q 85 379 85 269 q 135 578 85 490 q 274 716 186 665 q 471 767 361 767 q 667 716 581 767 q 805 578 754 665 q 857 379 856 490 l 814 346 q 767 166 814 246 q 641 40 721 86 q 460 -7 561 -7 m 471 90 q 615 128 551 90 q 715 231 678 165 q 751 379 751 297 q 715 528 751 463 q 615 631 678 593 q 471 669 551 669 q 328 631 392 669 q 226 528 264 593 q 189 379 189 463 q 226 231 189 297 q 328 128 264 165 q 471 90 392 90 m 803 0 q 764 15 779 0 q 749 53 749 29 l 749 290 l 775 400 l 857 379 l 857 53 q 842 15 857 29 q 803 0 826 0 m 310 881 q 270 894 286 881 q 254 929 254 907 q 281 976 254 958 l 444 1085 q 471 1092 456 1092 q 486 1090 479 1092 q 499 1085 493 1088 l 661 976 q 688 929 688 958 q 672 894 688 908 q 633 881 657 881 q 616 883 624 881 q 600 892 608 886 l 471 981 l 342 892 q 310 881 326 881 m 604 1118 q 568 1133 583 1118 l 411 1289 q 397 1326 397 1304 q 413 1366 397 1350 q 450 1382 428 1382 q 489 1365 472 1382 l 644 1208 q 658 1174 658 1196 q 642 1134 658 1150 q 604 1118 626 1118 z "},"ẩ":{"ha":940,"x_min":85,"x_max":857,"o":"m 460 -7 q 268 44 353 -7 q 134 182 183 94 q 85 379 85 269 q 135 578 85 490 q 274 716 186 665 q 471 767 361 767 q 667 716 581 767 q 805 578 754 665 q 857 379 856 490 l 814 346 q 767 166 814 246 q 641 40 721 86 q 460 -7 561 -7 m 471 90 q 615 128 551 90 q 715 231 678 165 q 751 379 751 297 q 715 528 751 463 q 615 631 678 593 q 471 669 551 669 q 328 631 392 669 q 226 528 264 593 q 189 379 189 463 q 226 231 189 297 q 328 128 264 165 q 471 90 392 90 m 803 0 q 764 15 779 0 q 749 53 749 29 l 749 290 l 775 400 l 857 379 l 857 53 q 842 15 857 29 q 803 0 826 0 m 314 881 q 274 894 290 881 q 258 929 258 907 q 285 976 258 958 l 449 1085 q 475 1092 460 1092 q 490 1090 483 1092 q 503 1085 497 1088 l 665 976 q 692 929 692 958 q 676 894 692 908 q 638 881 661 881 q 620 883 628 881 q 604 892 613 886 l 475 981 l 346 892 q 314 881 331 881 m 608 1065 q 573 1080 588 1065 q 558 1115 558 1094 l 558 1154 q 603 1208 558 1199 l 638 1215 q 681 1238 667 1222 q 694 1276 694 1253 q 674 1324 694 1307 q 625 1340 654 1340 q 592 1334 607 1340 q 564 1318 576 1328 q 547 1308 557 1311 q 529 1306 538 1306 q 498 1317 511 1306 q 485 1350 485 1329 q 501 1388 485 1374 q 556 1419 526 1408 q 624 1431 586 1431 q 740 1390 693 1431 q 786 1283 786 1349 q 744 1185 786 1218 q 646 1144 703 1153 l 657 1126 q 642 1081 657 1097 q 608 1065 628 1065 z "},"ẫ":{"ha":940,"x_min":85,"x_max":857,"o":"m 460 -7 q 268 44 353 -7 q 134 182 183 94 q 85 379 85 269 q 135 578 85 490 q 274 716 186 665 q 471 767 361 767 q 667 716 581 767 q 805 578 754 665 q 857 379 856 490 l 814 346 q 767 166 814 246 q 641 40 721 86 q 460 -7 561 -7 m 471 90 q 615 128 551 90 q 715 231 678 165 q 751 379 751 297 q 715 528 751 463 q 615 631 678 593 q 471 669 551 669 q 328 631 392 669 q 226 528 264 593 q 189 379 189 463 q 226 231 189 297 q 328 128 264 165 q 471 90 392 90 m 803 0 q 764 15 779 0 q 749 53 749 29 l 749 290 l 775 400 l 857 379 l 857 53 q 842 15 857 29 q 803 0 826 0 m 313 881 q 273 894 289 881 q 257 929 257 907 q 283 976 257 958 l 447 1085 q 474 1092 458 1092 q 489 1090 482 1092 q 501 1085 496 1088 l 664 976 q 690 929 690 958 q 675 894 690 908 q 636 881 660 881 q 619 883 626 881 q 603 892 611 886 l 474 981 l 344 892 q 313 881 329 881 m 556 1129 q 494 1145 521 1129 q 447 1181 467 1161 q 414 1208 428 1199 q 385 1218 400 1218 q 356 1204 368 1218 q 332 1167 344 1190 q 305 1142 322 1149 q 269 1142 288 1135 q 244 1167 251 1149 q 247 1204 238 1185 q 306 1283 274 1258 q 379 1307 338 1307 q 444 1290 419 1307 q 489 1254 468 1272 q 524 1228 513 1235 q 546 1221 536 1221 q 581 1254 565 1221 q 608 1281 590 1272 q 643 1285 625 1290 q 674 1258 665 1276 q 671 1221 682 1240 q 619 1151 647 1172 q 556 1129 592 1129 z "},"ȁ":{"ha":940,"x_min":85,"x_max":857,"o":"m 460 -7 q 268 44 353 -7 q 134 182 183 94 q 85 379 85 269 q 135 578 85 490 q 274 716 186 665 q 471 767 361 767 q 667 716 581 767 q 805 578 754 665 q 857 379 856 490 l 814 346 q 767 166 814 246 q 641 40 721 86 q 460 -7 561 -7 m 471 90 q 615 128 551 90 q 715 231 678 165 q 751 379 751 297 q 715 528 751 463 q 615 631 678 593 q 471 669 551 669 q 328 631 392 669 q 226 528 264 593 q 189 379 189 463 q 226 231 189 297 q 328 128 264 165 q 471 90 392 90 m 803 0 q 764 15 779 0 q 749 53 749 29 l 749 290 l 775 400 l 857 379 l 857 53 q 842 15 857 29 q 803 0 826 0 m 619 867 q 581 893 594 867 l 496 1072 q 492 1093 492 1082 q 507 1129 492 1113 q 547 1146 522 1146 q 578 1137 564 1146 q 597 1113 592 1128 l 656 924 q 658 907 658 917 q 646 877 658 888 q 619 867 633 867 m 410 867 q 371 893 383 867 l 286 1072 q 283 1083 283 1078 q 282 1093 282 1088 q 297 1129 282 1113 q 336 1146 313 1146 q 367 1137 353 1146 q 385 1113 381 1128 l 446 924 q 448 915 447 919 q 449 907 449 911 q 436 877 449 888 q 410 867 424 867 z "},"ä":{"ha":940,"x_min":85,"x_max":857,"o":"m 460 -7 q 268 44 353 -7 q 134 182 183 94 q 85 379 85 269 q 135 578 85 490 q 274 716 186 665 q 471 767 361 767 q 667 716 581 767 q 805 578 754 665 q 857 379 856 490 l 814 346 q 767 166 814 246 q 641 40 721 86 q 460 -7 561 -7 m 471 90 q 615 128 551 90 q 715 231 678 165 q 751 379 751 297 q 715 528 751 463 q 615 631 678 593 q 471 669 551 669 q 328 631 392 669 q 226 528 264 593 q 189 379 189 463 q 226 231 189 297 q 328 128 264 165 q 471 90 392 90 m 803 0 q 764 15 779 0 q 749 53 749 29 l 749 290 l 775 400 l 857 379 l 857 53 q 842 15 857 29 q 803 0 826 0 m 326 899 q 272 920 293 899 q 250 975 250 942 q 272 1028 250 1006 q 326 1051 293 1051 q 381 1028 358 1051 q 403 975 403 1006 q 381 920 403 942 q 326 899 358 899 m 617 899 q 562 920 583 899 q 540 975 540 942 q 562 1028 540 1006 q 617 1051 583 1051 q 671 1028 649 1051 q 693 975 693 1006 q 671 920 693 942 q 617 899 649 899 z "},"ạ":{"ha":940,"x_min":85,"x_max":857,"o":"m 460 -7 q 268 44 353 -7 q 134 182 183 94 q 85 379 85 269 q 135 578 85 490 q 274 716 186 665 q 471 767 361 767 q 667 716 581 767 q 805 578 754 665 q 857 379 856 490 l 814 346 q 767 166 814 246 q 641 40 721 86 q 460 -7 561 -7 m 471 90 q 615 128 551 90 q 715 231 678 165 q 751 379 751 297 q 715 528 751 463 q 615 631 678 593 q 471 669 551 669 q 328 631 392 669 q 226 528 264 593 q 189 379 189 463 q 226 231 189 297 q 328 128 264 165 q 471 90 392 90 m 803 0 q 764 15 779 0 q 749 53 749 29 l 749 290 l 775 400 l 857 379 l 857 53 q 842 15 857 29 q 803 0 826 0 m 469 -290 q 417 -268 439 -290 q 394 -214 394 -246 q 417 -159 394 -179 q 471 -139 440 -139 q 523 -159 500 -139 q 546 -214 546 -179 q 524 -268 546 -246 q 469 -290 501 -290 z "},"à":{"ha":940,"x_min":85,"x_max":857,"o":"m 460 -7 q 268 44 353 -7 q 134 182 183 94 q 85 379 85 269 q 135 578 85 490 q 274 716 186 665 q 471 767 361 767 q 667 716 581 767 q 805 578 754 665 q 857 379 856 490 l 814 346 q 767 166 814 246 q 641 40 721 86 q 460 -7 561 -7 m 471 90 q 615 128 551 90 q 715 231 678 165 q 751 379 751 297 q 715 528 751 463 q 615 631 678 593 q 471 669 551 669 q 328 631 392 669 q 226 528 264 593 q 189 379 189 463 q 226 231 189 297 q 328 128 264 165 q 471 90 392 90 m 803 0 q 764 15 779 0 q 749 53 749 29 l 749 290 l 775 400 l 857 379 l 857 53 q 842 15 857 29 q 803 0 826 0 m 469 883 q 433 899 449 883 l 276 1054 q 263 1092 263 1071 q 278 1131 263 1115 q 315 1147 293 1147 q 354 1131 338 1147 l 510 974 q 524 939 524 963 q 508 899 524 915 q 469 883 493 883 z "},"ả":{"ha":940,"x_min":85,"x_max":857,"o":"m 460 -7 q 268 44 353 -7 q 134 182 183 94 q 85 379 85 269 q 135 578 85 490 q 274 716 186 665 q 471 767 361 767 q 667 716 581 767 q 805 578 754 665 q 857 379 856 490 l 814 346 q 767 166 814 246 q 641 40 721 86 q 460 -7 561 -7 m 471 90 q 615 128 551 90 q 715 231 678 165 q 751 379 751 297 q 715 528 751 463 q 615 631 678 593 q 471 669 551 669 q 328 631 392 669 q 226 528 264 593 q 189 379 189 463 q 226 231 189 297 q 328 128 264 165 q 471 90 392 90 m 803 0 q 764 15 779 0 q 749 53 749 29 l 749 290 l 775 400 l 857 379 l 857 53 q 842 15 857 29 q 803 0 826 0 m 469 831 q 434 845 449 831 q 419 881 419 860 l 419 919 q 464 974 419 964 l 499 981 q 542 1002 528 988 q 556 1042 556 1017 q 535 1089 556 1072 q 486 1106 515 1106 q 453 1099 468 1106 q 425 1083 438 1093 q 409 1074 418 1078 q 390 1071 400 1071 q 359 1083 372 1071 q 346 1115 346 1094 q 363 1153 346 1139 q 419 1185 389 1174 q 485 1196 449 1196 q 601 1155 554 1196 q 647 1049 647 1114 q 606 951 647 983 q 507 910 564 918 l 518 892 q 503 847 518 863 q 469 831 489 831 z "},"ȃ":{"ha":940,"x_min":85,"x_max":857,"o":"m 460 -7 q 268 44 353 -7 q 134 182 183 94 q 85 379 85 269 q 135 578 85 490 q 274 716 186 665 q 471 767 361 767 q 667 716 581 767 q 805 578 754 665 q 857 379 856 490 l 814 346 q 767 166 814 246 q 641 40 721 86 q 460 -7 561 -7 m 471 90 q 615 128 551 90 q 715 231 678 165 q 751 379 751 297 q 715 528 751 463 q 615 631 678 593 q 471 669 551 669 q 328 631 392 669 q 226 528 264 593 q 189 379 189 463 q 226 231 189 297 q 328 128 264 165 q 471 90 392 90 m 803 0 q 764 15 779 0 q 749 53 749 29 l 749 290 l 775 400 l 857 379 l 857 53 q 842 15 857 29 q 803 0 826 0 m 306 875 q 268 891 283 875 q 253 931 253 907 q 282 1012 253 975 q 361 1070 311 1049 q 471 1092 411 1092 q 576 1072 528 1092 q 656 1015 625 1051 q 688 929 686 978 q 673 891 688 907 q 636 875 658 875 q 599 889 614 875 q 583 925 583 903 q 553 979 583 957 q 471 1001 522 1001 q 389 978 421 1001 q 357 925 357 956 q 342 889 357 903 q 306 875 326 875 z "},"ā":{"ha":940,"x_min":85,"x_max":857,"o":"m 460 -7 q 268 44 353 -7 q 134 182 183 94 q 85 379 85 269 q 135 578 85 490 q 274 716 186 665 q 471 767 361 767 q 667 716 581 767 q 805 578 754 665 q 857 379 856 490 l 814 346 q 767 166 814 246 q 641 40 721 86 q 460 -7 561 -7 m 471 90 q 615 128 551 90 q 715 231 678 165 q 751 379 751 297 q 715 528 751 463 q 615 631 678 593 q 471 669 551 669 q 328 631 392 669 q 226 528 264 593 q 189 379 189 463 q 226 231 189 297 q 328 128 264 165 q 471 90 392 90 m 803 0 q 764 15 779 0 q 749 53 749 29 l 749 290 l 775 400 l 857 379 l 857 53 q 842 15 857 29 q 803 0 826 0 m 290 911 q 252 924 268 911 q 236 961 236 938 q 252 997 236 983 q 290 1011 268 1011 l 650 1011 q 688 997 672 1011 q 704 961 704 983 q 688 924 704 938 q 650 911 672 911 l 290 911 z "},"ą":{"ha":940,"x_min":85,"x_max":1010,"o":"m 460 -7 q 268 44 353 -7 q 134 182 183 94 q 85 379 85 269 q 135 578 85 490 q 274 716 186 665 q 471 767 361 767 q 667 716 581 767 q 805 578 754 665 q 857 379 856 490 l 814 346 q 767 166 814 246 q 641 40 721 86 q 460 -7 561 -7 m 471 90 q 615 128 551 90 q 715 231 678 165 q 751 379 751 297 q 715 528 751 463 q 615 631 678 593 q 471 669 551 669 q 328 631 392 669 q 226 528 264 593 q 189 379 189 463 q 226 231 189 297 q 328 128 264 165 q 471 90 392 90 m 803 0 q 764 15 779 0 q 749 53 749 29 l 749 290 l 775 400 l 857 379 l 857 53 q 842 15 857 29 q 803 0 826 0 m 847 -364 q 767 -342 804 -364 q 707 -283 729 -321 q 685 -201 685 -246 q 753 -68 685 -125 q 783 -41 772 -54 q 800 -14 794 -28 q 847 14 817 14 q 885 -1 871 14 q 901 -39 900 -15 q 880 -97 901 -68 q 815 -157 858 -125 q 799 -178 804 -165 q 793 -201 793 -190 q 809 -240 793 -224 q 847 -256 825 -256 q 863 -253 854 -256 q 876 -247 871 -251 l 924 -212 q 956 -201 939 -201 q 994 -217 979 -201 q 1010 -256 1010 -232 q 992 -299 1010 -281 l 936 -335 q 847 -364 894 -364 z "},"å":{"ha":940,"x_min":85,"x_max":857,"o":"m 460 -7 q 268 44 353 -7 q 134 182 183 94 q 85 379 85 269 q 135 578 85 490 q 274 716 186 665 q 471 767 361 767 q 667 716 581 767 q 805 578 754 665 q 857 379 856 490 l 814 346 q 767 166 814 246 q 641 40 721 86 q 460 -7 561 -7 m 471 90 q 615 128 551 90 q 715 231 678 165 q 751 379 751 297 q 715 528 751 463 q 615 631 678 593 q 471 669 551 669 q 328 631 392 669 q 226 528 264 593 q 189 379 189 463 q 226 231 189 297 q 328 128 264 165 q 471 90 392 90 m 803 0 q 764 15 779 0 q 749 53 749 29 l 749 290 l 775 400 l 857 379 l 857 53 q 842 15 857 29 q 803 0 826 0 m 471 824 q 374 863 414 824 q 335 960 335 901 q 375 1057 335 1018 q 471 1096 415 1096 q 568 1057 529 1096 q 607 960 607 1018 q 569 863 607 903 q 471 824 531 824 m 471 886 q 524 908 503 886 q 544 960 544 929 q 524 1013 544 992 q 471 1033 503 1033 q 419 1013 440 1033 q 399 960 399 992 q 419 908 399 929 q 471 886 440 886 z "},"ǻ":{"ha":940,"x_min":85,"x_max":857,"o":"m 460 -7 q 268 44 353 -7 q 134 182 183 94 q 85 379 85 269 q 135 578 85 490 q 274 716 186 665 q 471 767 361 767 q 667 716 581 767 q 805 578 754 665 q 857 379 856 490 l 814 346 q 767 166 814 246 q 641 40 721 86 q 460 -7 561 -7 m 471 90 q 615 128 551 90 q 715 231 678 165 q 751 379 751 297 q 715 528 751 463 q 615 631 678 593 q 471 669 551 669 q 328 631 392 669 q 226 528 264 593 q 189 379 189 463 q 226 231 189 297 q 328 128 264 165 q 471 90 392 90 m 803 0 q 764 15 779 0 q 749 53 749 29 l 749 290 l 775 400 l 857 379 l 857 53 q 842 15 857 29 q 803 0 826 0 m 471 824 q 374 863 414 824 q 335 960 335 901 q 375 1057 335 1018 q 471 1096 415 1096 q 568 1057 529 1096 q 607 960 607 1018 q 569 863 607 903 q 471 824 531 824 m 471 886 q 524 908 503 886 q 544 960 544 929 q 524 1013 544 992 q 471 1033 503 1033 q 419 1013 440 1033 q 399 960 399 992 q 419 908 399 929 q 471 886 440 886 m 461 1150 q 423 1166 439 1150 q 407 1204 407 1182 q 419 1240 407 1226 l 576 1397 q 614 1413 592 1413 q 653 1397 638 1413 q 668 1357 668 1381 q 665 1338 668 1347 q 653 1321 661 1328 l 497 1164 q 461 1150 483 1150 z "},"ã":{"ha":940,"x_min":85,"x_max":857,"o":"m 460 -7 q 268 44 353 -7 q 134 182 183 94 q 85 379 85 269 q 135 578 85 490 q 274 716 186 665 q 471 767 361 767 q 667 716 581 767 q 805 578 754 665 q 857 379 856 490 l 814 346 q 767 166 814 246 q 641 40 721 86 q 460 -7 561 -7 m 471 90 q 615 128 551 90 q 715 231 678 165 q 751 379 751 297 q 715 528 751 463 q 615 631 678 593 q 471 669 551 669 q 328 631 392 669 q 226 528 264 593 q 189 379 189 463 q 226 231 189 297 q 328 128 264 165 q 471 90 392 90 m 803 0 q 764 15 779 0 q 749 53 749 29 l 749 290 l 775 400 l 857 379 l 857 53 q 842 15 857 29 q 803 0 826 0 m 618 871 q 540 887 574 871 q 483 917 507 903 q 436 942 454 935 q 400 949 418 949 q 352 937 375 949 q 308 900 329 925 q 276 876 296 882 q 239 881 257 871 q 217 910 221 890 q 226 949 214 931 q 307 1017 261 993 q 403 1042 353 1042 q 478 1026 447 1042 q 532 997 510 1011 q 577 972 560 981 q 617 964 594 964 q 656 971 639 964 q 685 992 672 978 q 716 1013 700 1007 q 750 1008 732 1019 q 774 978 769 999 q 764 939 778 957 q 618 871 708 871 z "},"æ":{"ha":1522,"x_min":85,"x_max":1467,"o":"m 1139 -7 q 947 42 1031 -7 q 816 179 864 92 q 768 379 768 267 q 813 580 768 493 q 937 717 858 667 q 1118 767 1015 767 q 1302 719 1224 767 q 1424 586 1381 671 q 1467 393 1467 501 q 1453 358 1467 371 q 1417 344 1439 344 l 826 344 l 826 433 l 1428 433 l 1369 390 q 1339 535 1369 471 q 1252 635 1308 599 q 1118 671 1196 671 q 979 633 1039 671 q 887 530 919 596 q 854 379 854 464 q 891 229 854 294 q 992 126 928 164 q 1139 89 1056 89 q 1243 106 1196 89 q 1321 150 1290 124 q 1356 164 1336 163 q 1389 153 1375 165 q 1408 117 1407 136 q 1392 83 1408 97 q 1275 19 1346 44 q 1139 -7 1204 -7 m 460 -7 q 268 44 353 -7 q 134 182 183 94 q 85 379 85 269 q 135 578 85 490 q 274 716 186 665 q 471 767 361 767 q 667 716 581 767 q 805 578 754 665 q 857 379 856 490 l 814 346 q 767 166 814 246 q 641 40 721 86 q 460 -7 561 -7 m 471 90 q 615 128 551 90 q 715 231 678 165 q 751 379 751 297 q 715 528 751 463 q 615 631 678 593 q 471 669 551 669 q 328 631 392 669 q 226 528 264 593 q 189 379 189 463 q 226 231 189 297 q 328 128 264 165 q 471 90 392 90 m 803 0 q 764 15 779 0 q 749 53 749 29 l 749 290 l 775 400 l 857 379 l 857 53 q 842 15 857 29 q 803 0 826 0 z "},"ǽ":{"ha":1522,"x_min":85,"x_max":1467,"o":"m 1139 -7 q 947 42 1031 -7 q 816 179 864 92 q 768 379 768 267 q 813 580 768 493 q 937 717 858 667 q 1118 767 1015 767 q 1302 719 1224 767 q 1424 586 1381 671 q 1467 393 1467 501 q 1453 358 1467 371 q 1417 344 1439 344 l 826 344 l 826 433 l 1428 433 l 1369 390 q 1339 535 1369 471 q 1252 635 1308 599 q 1118 671 1196 671 q 979 633 1039 671 q 887 530 919 596 q 854 379 854 464 q 891 229 854 294 q 992 126 928 164 q 1139 89 1056 89 q 1243 106 1196 89 q 1321 150 1290 124 q 1356 164 1336 163 q 1389 153 1375 165 q 1408 117 1407 136 q 1392 83 1408 97 q 1275 19 1346 44 q 1139 -7 1204 -7 m 460 -7 q 268 44 353 -7 q 134 182 183 94 q 85 379 85 269 q 135 578 85 490 q 274 716 186 665 q 471 767 361 767 q 667 716 581 767 q 805 578 754 665 q 857 379 856 490 l 814 346 q 767 166 814 246 q 641 40 721 86 q 460 -7 561 -7 m 471 90 q 615 128 551 90 q 715 231 678 165 q 751 379 751 297 q 715 528 751 463 q 615 631 678 593 q 471 669 551 669 q 328 631 392 669 q 226 528 264 593 q 189 379 189 463 q 226 231 189 297 q 328 128 264 165 q 471 90 392 90 m 803 0 q 764 15 779 0 q 749 53 749 29 l 749 290 l 775 400 l 857 379 l 857 53 q 842 15 857 29 q 803 0 826 0 m 767 875 q 728 891 744 875 q 713 929 713 907 q 725 965 713 951 l 882 1122 q 919 1138 897 1138 q 958 1122 943 1138 q 974 1082 974 1106 q 970 1063 974 1072 q 958 1046 967 1053 l 803 889 q 767 875 789 875 z "},"b":{"ha":982,"x_min":125,"x_max":897,"o":"m 510 -7 q 315 43 401 -7 q 177 180 228 93 q 125 375 126 267 l 125 1031 q 140 1070 125 1056 q 179 1085 154 1085 q 217 1070 203 1085 q 232 1031 232 1056 l 232 622 q 353 727 278 688 q 522 767 429 767 q 714 716 629 767 q 848 578 799 665 q 897 381 897 490 q 847 182 897 269 q 708 44 796 94 q 510 -7 621 -7 m 510 90 q 654 128 590 90 q 755 232 718 167 q 792 381 792 297 q 755 528 792 463 q 654 632 718 594 q 510 669 590 669 q 367 632 431 669 q 267 528 303 594 q 231 381 231 463 q 267 232 231 297 q 367 128 303 167 q 510 90 431 90 z "},"c":{"ha":826,"x_min":85,"x_max":747,"o":"m 464 -7 q 269 44 354 -7 q 134 182 183 94 q 85 379 85 269 q 132 578 85 490 q 261 716 179 665 q 450 767 343 767 q 606 733 535 767 q 732 633 678 700 q 743 598 747 617 q 719 565 739 579 q 685 558 704 554 q 653 578 667 561 q 450 669 572 669 q 313 632 372 669 q 222 529 254 594 q 189 379 189 464 q 224 231 189 296 q 321 128 258 165 q 464 90 383 90 q 563 105 518 90 q 643 150 608 119 q 678 165 660 164 q 711 154 696 167 q 730 119 728 139 q 717 86 732 100 q 464 -7 615 -7 z "},"ć":{"ha":826,"x_min":85,"x_max":747,"o":"m 464 -7 q 269 44 354 -7 q 134 182 183 94 q 85 379 85 269 q 132 578 85 490 q 261 716 179 665 q 450 767 343 767 q 606 733 535 767 q 732 633 678 700 q 743 598 747 617 q 719 565 739 579 q 685 558 704 554 q 653 578 667 561 q 450 669 572 669 q 313 632 372 669 q 222 529 254 594 q 189 379 189 464 q 224 231 189 296 q 321 128 258 165 q 464 90 383 90 q 563 105 518 90 q 643 150 608 119 q 678 165 660 164 q 711 154 696 167 q 730 119 728 139 q 717 86 732 100 q 464 -7 615 -7 m 440 875 q 402 891 418 875 q 386 929 386 907 q 399 965 386 951 l 556 1122 q 593 1138 571 1138 q 632 1122 617 1138 q 647 1082 647 1106 q 644 1063 647 1072 q 632 1046 640 1053 l 476 889 q 440 875 463 875 z "},"č":{"ha":826,"x_min":85,"x_max":747,"o":"m 464 -7 q 269 44 354 -7 q 134 182 183 94 q 85 379 85 269 q 132 578 85 490 q 261 716 179 665 q 450 767 343 767 q 606 733 535 767 q 732 633 678 700 q 743 598 747 617 q 719 565 739 579 q 685 558 704 554 q 653 578 667 561 q 450 669 572 669 q 313 632 372 669 q 222 529 254 594 q 189 379 189 464 q 224 231 189 296 q 321 128 258 165 q 464 90 383 90 q 563 105 518 90 q 643 150 608 119 q 678 165 660 164 q 711 154 696 167 q 730 119 728 139 q 717 86 732 100 q 464 -7 615 -7 m 450 888 q 424 894 432 888 l 260 1003 q 233 1049 233 1021 q 260 1086 233 1075 q 321 1074 286 1097 l 450 986 l 579 1072 q 642 1086 618 1099 q 667 1049 667 1074 q 640 1003 667 1021 l 478 894 q 450 888 468 888 z "},"ç":{"ha":826,"x_min":85,"x_max":747,"o":"m 464 -7 q 269 44 354 -7 q 134 182 183 94 q 85 379 85 269 q 132 578 85 490 q 261 716 179 665 q 450 767 343 767 q 606 733 535 767 q 732 633 678 700 q 743 598 747 617 q 719 565 739 579 q 685 558 704 554 q 653 578 667 561 q 450 669 572 669 q 313 632 372 669 q 222 529 254 594 q 189 379 189 464 q 224 231 189 296 q 321 128 258 165 q 464 90 383 90 q 563 105 518 90 q 643 150 608 119 q 678 165 660 164 q 711 154 696 167 q 730 119 728 139 q 717 86 732 100 q 464 -7 615 -7 m 429 -324 q 307 -292 354 -324 q 260 -221 260 -260 q 275 -185 260 -200 q 311 -169 290 -169 q 338 -177 326 -169 q 360 -199 350 -185 q 388 -223 371 -214 q 431 -232 404 -232 q 483 -218 463 -232 q 504 -179 504 -204 q 488 -137 504 -153 q 432 -112 472 -122 q 385 -90 399 -106 q 385 -36 371 -74 l 407 21 q 428 51 414 40 q 468 63 443 63 q 508 44 494 63 q 510 0 521 25 l 489 -50 q 590 -101 561 -68 q 618 -179 618 -133 q 593 -251 618 -218 q 526 -303 568 -283 q 429 -324 483 -324 z "},"ĉ":{"ha":826,"x_min":85,"x_max":747,"o":"m 464 -7 q 269 44 354 -7 q 134 182 183 94 q 85 379 85 269 q 132 578 85 490 q 261 716 179 665 q 450 767 343 767 q 606 733 535 767 q 732 633 678 700 q 743 598 747 617 q 719 565 739 579 q 685 558 704 554 q 653 578 667 561 q 450 669 572 669 q 313 632 372 669 q 222 529 254 594 q 189 379 189 464 q 224 231 189 296 q 321 128 258 165 q 464 90 383 90 q 563 105 518 90 q 643 150 608 119 q 678 165 660 164 q 711 154 696 167 q 730 119 728 139 q 717 86 732 100 q 464 -7 615 -7 m 289 881 q 249 894 265 881 q 233 929 233 907 q 260 976 233 958 l 424 1085 q 450 1092 435 1092 q 465 1090 458 1092 q 478 1085 472 1088 l 640 976 q 667 929 667 958 q 651 894 667 908 q 613 881 636 881 q 595 883 603 881 q 579 892 588 886 l 450 981 l 321 892 q 289 881 306 881 z "},"ċ":{"ha":826,"x_min":85,"x_max":747,"o":"m 464 -7 q 269 44 354 -7 q 134 182 183 94 q 85 379 85 269 q 132 578 85 490 q 261 716 179 665 q 450 767 343 767 q 606 733 535 767 q 732 633 678 700 q 743 598 747 617 q 719 565 739 579 q 685 558 704 554 q 653 578 667 561 q 450 669 572 669 q 313 632 372 669 q 222 529 254 594 q 189 379 189 464 q 224 231 189 296 q 321 128 258 165 q 464 90 383 90 q 563 105 518 90 q 643 150 608 119 q 678 165 660 164 q 711 154 696 167 q 730 119 728 139 q 717 86 732 100 q 464 -7 615 -7 m 449 904 q 396 926 418 904 q 374 981 374 949 q 397 1035 374 1015 q 450 1056 419 1056 q 502 1035 479 1056 q 525 981 525 1015 q 503 926 525 949 q 449 904 481 904 z "},"d":{"ha":982,"x_min":85,"x_max":857,"o":"m 471 -7 q 274 44 361 -7 q 135 182 186 94 q 85 381 85 269 q 134 578 85 490 q 268 716 183 665 q 460 767 353 767 q 628 727 553 767 q 749 622 703 688 l 749 1031 q 764 1070 749 1056 q 803 1085 779 1085 q 842 1070 826 1085 q 857 1031 857 1056 l 857 375 q 803 180 854 267 q 666 43 753 93 q 471 -7 579 -7 m 471 90 q 615 128 551 90 q 715 232 678 167 q 751 381 751 297 q 715 528 751 463 q 615 632 678 594 q 471 669 551 669 q 328 632 392 669 q 226 528 264 594 q 189 381 189 463 q 226 232 189 297 q 328 128 264 167 q 471 90 392 90 z "},"ð":{"ha":926,"x_min":85,"x_max":829,"o":"m 454 -7 q 263 40 346 -7 q 132 169 179 86 q 85 358 85 251 q 131 546 85 464 q 258 674 176 628 q 443 719 339 719 q 614 676 540 719 q 730 558 688 633 q 772 383 772 482 l 829 383 q 781 181 829 269 q 649 43 733 93 q 454 -7 564 -7 m 454 90 q 594 124 533 90 q 690 219 656 158 q 725 358 725 279 q 690 496 725 436 q 594 589 656 556 q 454 622 533 622 q 317 589 376 622 q 223 496 257 556 q 189 358 189 436 q 223 219 189 279 q 317 124 257 158 q 454 90 376 90 m 747 379 l 747 479 q 723 678 746 594 q 649 822 700 761 q 516 928 599 882 q 313 1014 433 974 q 274 1038 288 1022 q 269 1075 261 1054 q 296 1101 276 1097 q 339 1097 315 1104 q 569 994 475 1050 q 721 869 664 939 q 803 706 778 799 q 829 493 829 614 l 829 379 l 747 379 m 354 847 q 334 867 339 854 q 339 897 329 881 l 464 1143 q 486 1164 472 1160 q 515 1160 500 1168 q 535 1136 532 1150 q 532 1108 539 1122 l 407 863 q 384 842 399 847 q 354 847 369 838 z "},"ď":{"ha":1097,"x_min":85,"x_max":1117,"o":"m 471 -7 q 274 44 361 -7 q 135 182 186 94 q 85 381 85 269 q 134 578 85 490 q 268 716 183 665 q 460 767 353 767 q 628 727 553 767 q 749 622 703 688 l 749 1031 q 764 1070 749 1056 q 803 1085 779 1085 q 842 1070 826 1085 q 857 1031 857 1056 l 857 375 q 803 180 854 267 q 666 43 753 93 q 471 -7 579 -7 m 471 90 q 615 128 551 90 q 715 232 678 167 q 751 381 751 297 q 715 528 751 463 q 615 632 678 594 q 471 669 551 669 q 328 632 392 669 q 226 528 264 594 q 189 381 189 463 q 226 232 189 297 q 328 128 264 167 q 471 90 392 90 m 960 728 q 938 740 946 731 q 932 763 931 749 q 949 801 935 779 q 978 849 963 822 q 997 914 993 876 q 994 957 1000 940 q 981 991 988 974 q 974 1035 974 1008 q 992 1077 974 1065 q 1038 1089 1011 1089 q 1098 1048 1079 1089 q 1108 953 1117 1007 q 1085 875 1103 915 q 1044 800 1068 835 q 998 745 1021 765 q 960 728 975 725 z "},"đ":{"ha":982,"x_min":85,"x_max":982,"o":"m 525 863 q 488 876 503 863 q 474 908 474 889 q 488 941 474 929 q 525 953 503 953 l 929 953 q 967 941 953 953 q 982 908 982 929 q 967 876 982 889 q 929 863 953 863 l 525 863 m 471 -7 q 274 44 361 -7 q 135 182 186 94 q 85 381 85 269 q 134 578 85 490 q 268 716 183 665 q 460 767 353 767 q 628 727 553 767 q 749 622 703 688 l 749 1031 q 764 1070 749 1056 q 803 1085 779 1085 q 842 1070 826 1085 q 857 1031 857 1056 l 857 375 q 803 180 854 267 q 666 43 753 93 q 471 -7 579 -7 m 471 90 q 615 128 551 90 q 715 232 678 167 q 751 381 751 297 q 715 528 751 463 q 615 632 678 594 q 471 669 551 669 q 328 632 392 669 q 226 528 264 594 q 189 381 189 463 q 226 232 189 297 q 328 128 264 167 q 471 90 392 90 z "},"e":{"ha":853,"x_min":85,"x_max":797,"o":"m 469 -7 q 270 42 357 -7 q 134 179 183 92 q 85 379 85 267 q 131 580 85 493 q 260 717 178 667 q 449 767 342 767 q 633 719 554 767 q 754 586 711 671 q 797 393 797 501 q 783 358 797 371 q 747 344 769 344 l 157 344 l 157 433 l 758 433 l 699 390 q 669 535 700 471 q 583 635 639 599 q 449 671 526 671 q 310 633 369 671 q 217 530 250 596 q 185 379 185 464 q 222 229 185 294 q 322 126 258 164 q 469 89 386 89 q 570 106 519 89 q 651 150 621 124 q 686 163 667 163 q 719 153 706 164 q 738 117 738 136 q 722 83 739 97 q 606 19 676 44 q 469 -7 535 -7 z "},"é":{"ha":853,"x_min":85,"x_max":797,"o":"m 469 -7 q 270 42 357 -7 q 134 179 183 92 q 85 379 85 267 q 131 580 85 493 q 260 717 178 667 q 449 767 342 767 q 633 719 554 767 q 754 586 711 671 q 797 393 797 501 q 783 358 797 371 q 747 344 769 344 l 157 344 l 157 433 l 758 433 l 699 390 q 669 535 700 471 q 583 635 639 599 q 449 671 526 671 q 310 633 369 671 q 217 530 250 596 q 185 379 185 464 q 222 229 185 294 q 322 126 258 164 q 469 89 386 89 q 570 106 519 89 q 651 150 621 124 q 686 163 667 163 q 719 153 706 164 q 738 117 738 136 q 722 83 739 97 q 606 19 676 44 q 469 -7 535 -7 m 432 875 q 394 891 410 875 q 378 929 378 907 q 390 965 378 951 l 547 1122 q 585 1138 563 1138 q 624 1122 608 1138 q 639 1082 639 1106 q 635 1063 639 1072 q 624 1046 632 1053 l 468 889 q 432 875 454 875 z "},"ĕ":{"ha":853,"x_min":85,"x_max":797,"o":"m 469 -7 q 270 42 357 -7 q 134 179 183 92 q 85 379 85 267 q 131 580 85 493 q 260 717 178 667 q 449 767 342 767 q 633 719 554 767 q 754 586 711 671 q 797 393 797 501 q 783 358 797 371 q 747 344 769 344 l 157 344 l 157 433 l 758 433 l 699 390 q 669 535 700 471 q 583 635 639 599 q 449 671 526 671 q 310 633 369 671 q 217 530 250 596 q 185 379 185 464 q 222 229 185 294 q 322 126 258 164 q 469 89 386 89 q 570 106 519 89 q 651 150 621 124 q 686 163 667 163 q 719 153 706 164 q 738 117 738 136 q 722 83 739 97 q 606 19 676 44 q 469 -7 535 -7 m 440 876 q 333 898 382 876 q 253 956 283 919 q 224 1038 224 992 q 239 1076 224 1060 q 276 1093 254 1093 q 313 1079 297 1093 q 328 1043 328 1065 q 360 989 328 1011 q 440 967 392 967 q 524 989 493 967 q 554 1043 554 1011 q 569 1079 554 1065 q 607 1093 585 1093 q 644 1077 629 1093 q 658 1039 658 1061 q 626 953 657 990 q 547 897 596 917 q 440 876 499 876 z "},"ě":{"ha":853,"x_min":85,"x_max":797,"o":"m 469 -7 q 270 42 357 -7 q 134 179 183 92 q 85 379 85 267 q 131 580 85 493 q 260 717 178 667 q 449 767 342 767 q 633 719 554 767 q 754 586 711 671 q 797 393 797 501 q 783 358 797 371 q 747 344 769 344 l 157 344 l 157 433 l 758 433 l 699 390 q 669 535 700 471 q 583 635 639 599 q 449 671 526 671 q 310 633 369 671 q 217 530 250 596 q 185 379 185 464 q 222 229 185 294 q 322 126 258 164 q 469 89 386 89 q 570 106 519 89 q 651 150 621 124 q 686 163 667 163 q 719 153 706 164 q 738 117 738 136 q 722 83 739 97 q 606 19 676 44 q 469 -7 535 -7 m 442 888 q 415 894 424 888 l 251 1003 q 225 1049 225 1021 q 251 1086 225 1075 q 313 1074 278 1097 l 442 986 l 571 1072 q 634 1086 610 1099 q 658 1049 658 1074 q 632 1003 658 1021 l 469 894 q 442 888 460 888 z "},"ê":{"ha":853,"x_min":85,"x_max":797,"o":"m 469 -7 q 270 42 357 -7 q 134 179 183 92 q 85 379 85 267 q 131 580 85 493 q 260 717 178 667 q 449 767 342 767 q 633 719 554 767 q 754 586 711 671 q 797 393 797 501 q 783 358 797 371 q 747 344 769 344 l 157 344 l 157 433 l 758 433 l 699 390 q 669 535 700 471 q 583 635 639 599 q 449 671 526 671 q 310 633 369 671 q 217 530 250 596 q 185 379 185 464 q 222 229 185 294 q 322 126 258 164 q 469 89 386 89 q 570 106 519 89 q 651 150 621 124 q 686 163 667 163 q 719 153 706 164 q 738 117 738 136 q 722 83 739 97 q 606 19 676 44 q 469 -7 535 -7 m 281 881 q 241 894 257 881 q 225 929 225 907 q 251 976 225 958 l 415 1085 q 442 1092 426 1092 q 457 1090 450 1092 q 469 1085 464 1088 l 632 976 q 658 929 658 958 q 643 894 658 908 q 604 881 628 881 q 587 883 594 881 q 571 892 579 886 l 442 981 l 313 892 q 281 881 297 881 z "}}}
